<?xml version="1.0" standalone="no"?>
<!DOCTYPE svg PUBLIC "-//W3C//DTD SVG 1.1//EN" "http://www.w3.org/Graphics/SVG/1.1/DTD/svg11.dtd" >
<svg xmlns="http://www.w3.org/2000/svg" xmlns:xlink="http://www.w3.org/1999/xlink" version="1.1">
<metadata>
Created by FontForge 20201107 at Mon Aug 27 23:24:03 2018
 By Unknown
Copyright (c) 2018 by Luzi Type. All rights reserved. |DCNT
</metadata>
<defs>
<font id="RecifeDisplay-Regular" horiz-adv-x="620" >
  <font-face 
    font-family="RecifeDisplay"
    font-weight="400"
    font-stretch="normal"
    units-per-em="1000"
    panose-1="0 0 5 0 0 0 0 0 0 0"
    ascent="757"
    descent="-243"
    x-height="503"
    cap-height="700"
    bbox="-21 -354 1282 1076"
    underline-thickness="50"
    underline-position="-150"
    unicode-range="U+000D-FB02"
  />
<missing-glyph horiz-adv-x="484" 
 />
    <glyph glyph-name="fi" unicode="fi" horiz-adv-x="636" 
d="M621 18v-18h-257v18l19 1q29 2 46.5 17.5t17.5 48.5v397h-238v-395q0 -30 17 -47.5t47 -19.5l39 -2v-18h-276v18l18 1q64 5 64 69v394h-118v21h118v38q0 116 58.5 183t158.5 67q37 0 72 -8v-91q-61 17 -112 17q-69 0 -108.5 -29t-39.5 -82q0 -47 34.5 -71t89.5 -24h267
v-418q0 -30 17 -47t47 -19z" />
    <glyph glyph-name="f_f_j" unicode="ffj" horiz-adv-x="929" 
d="M869 53q0 -62 -19.5 -107t-57 -81.5t-101.5 -80.5l-10 12l23 28q40 50 57 104.5t17 121.5v432h-238v-395q0 -30 17 -47.5t47 -19.5l39 -2v-18h-276v18l18 1q64 3 64 69v394h-240v-395q0 -30 17 -47.5t47 -19.5l39 -2v-18h-276v18l18 1q64 3 64 69v394h-118v21h118v38
q0 116 58.5 183t158.5 67q33 0 62 -6v-90q-58 14 -102 14q-69 0 -108.5 -29t-39.5 -82q0 -47 34.5 -71t89.5 -24h178v38q0 116 58.5 183t158.5 67q37 0 72 -8v-91q-61 17 -112 17q-69 0 -108.5 -29t-39.5 -82q0 -47 34.5 -71t89.5 -24h267v-450z" />
    <glyph glyph-name="f_f_t" unicode="fft" horiz-adv-x="1058" 
d="M1038 38v-16q-58 -33 -123 -33q-61 0 -98.5 28t-37.5 87v378h-239v-395q0 -30 17 -47.5t47 -19.5l39 -2v-18h-276v18l18 1q64 3 64 69v394h-240v-395q0 -30 17 -47.5t47 -19.5l39 -2v-18h-276v18l18 1q64 3 64 69v394h-118v21h118v38q0 116 58.5 183t158.5 67q33 0 62 -6
v-90q-58 14 -102 14q-69 0 -108.5 -29t-39.5 -82q0 -47 34.5 -71t89.5 -24h178v38q0 116 58.5 183t158.5 67q37 0 72 -8v-91q-61 17 -112 17q-69 0 -108.5 -29t-39.5 -82q0 -47 34.5 -71t89.5 -24h90q46 10 93 43.5t67 80.5h18v-124h165v-21h-165v-358q0 -52 24 -75t71 -23
q37 0 73 12z" />
    <glyph glyph-name="f_j" unicode="fj" horiz-adv-x="598" 
d="M538 53q0 -62 -19.5 -107t-57 -81.5t-101.5 -80.5l-10 12l23 28q40 50 57 104.5t17 121.5v432h-238v-395q0 -30 17 -47.5t47 -19.5l39 -2v-18h-276v18l18 1q64 5 64 69v394h-118v21h118v38q0 116 58.5 183t158.5 67q37 0 72 -8v-91q-61 17 -112 17q-69 0 -108.5 -29
t-39.5 -82q0 -47 34.5 -71t89.5 -24h267v-450z" />
    <glyph glyph-name="f_t" unicode="ft" horiz-adv-x="727" 
d="M707 38v-16q-58 -33 -123 -33q-61 0 -98.5 28t-37.5 87v378h-239v-395q0 -30 17 -47.5t47 -19.5l39 -2v-18h-276v18l18 1q64 5 64 69v394h-118v21h118v38q0 116 58.5 183t158.5 67q37 0 72 -8v-91q-61 17 -112 17q-69 0 -108.5 -29t-39.5 -82q0 -47 34.5 -71t89.5 -24h90
q46 10 93 43.5t67 80.5h18v-124h165v-21h-165v-358q0 -52 24 -75t71 -23q37 0 73 12z" />
    <glyph glyph-name="ff" unicode="ff" horiz-adv-x="708" 
d="M517.5 680q-39.5 -29 -39.5 -82q0 -47 34.5 -71t89.5 -24h97v-21h-158v-395q0 -30 17 -47.5t47 -19.5l39 -2v-18h-277v18l18 1q64 3 64 69v394h-239v-395q0 -30 17 -47.5t47 -19.5l39 -2v-18h-277v18l18 1q64 5 64 69v394h-118v21h118v38q0 116 58.5 183t158.5 67
q33 0 62 -6v-90q-58 14 -102 14q-69 0 -108.5 -29t-39.5 -82q0 -47 34.5 -71t89.5 -24h178v38q0 116 58.5 183t158.5 67q37 0 72 -8v-91q-61 17 -112 17q-69 0 -108.5 -29z" />
    <glyph glyph-name="ffi" unicode="ffi" horiz-adv-x="967" 
d="M952 18v-18h-257v18l19 1q29 2 46.5 17.5t17.5 48.5v397h-238v-395q0 -30 17 -47.5t47 -19.5l39 -2v-18h-276v18l18 1q64 3 64 69v394h-240v-395q0 -30 17 -47.5t47 -19.5l39 -2v-18h-276v18l18 1q64 3 64 69v394h-118v21h118v38q0 116 58.5 183t158.5 67q33 0 62 -6v-90
q-58 14 -102 14q-69 0 -108.5 -29t-39.5 -82q0 -47 34.5 -71t89.5 -24h178v38q0 116 58.5 183t158.5 67q37 0 72 -8v-91q-61 17 -112 17q-69 0 -108.5 -29t-39.5 -82q0 -47 34.5 -71t89.5 -24h267v-418q0 -30 17 -47t47 -19z" />
    <glyph glyph-name=".notdef" horiz-adv-x="484" 
 />
    <glyph glyph-name=".null" horiz-adv-x="248" 
 />
    <glyph glyph-name="nonmarkingreturn" unicode="&#xd;" horiz-adv-x="481" 
 />
    <glyph glyph-name="space" unicode=" " horiz-adv-x="240" 
 />
    <glyph glyph-name="exclam" unicode="!" horiz-adv-x="316" 
d="M149 193l-56 507h130l-55 -507h-19zM109 8.5q-19 18.5 -19 46.5q0 26 19 45t49 19q31 0 49.5 -18.5t18.5 -45.5q0 -28 -18.5 -46.5t-49.5 -18.5q-30 0 -49 18.5z" />
    <glyph glyph-name="quotedbl" unicode="&#x22;" horiz-adv-x="349" 
d="M106 462h-21l-40 273h102zM258 462h-21l-40 273h102z" />
    <glyph glyph-name="numbersign" unicode="#" horiz-adv-x="571" 
d="M411 428l-22 -147h146v-46h-153l-37 -235h-55l37 235h-126l-37 -235h-55l37 235h-126v46h133l22 147h-139v46h146l33 216h55l-33 -216h126l33 216h55l-33 -216h133v-46h-140zM356 428h-126l-22 -147h126z" />
    <glyph glyph-name="dollar" unicode="$" horiz-adv-x="640" 
d="M537 93.5q-27 -43.5 -76.5 -68.5t-113.5 -25v-130h-20v130q-94 5 -164 58t-86 134h116q7 -65 43 -110.5t91 -58.5v274l-15 6q-69 26 -112 48.5t-72.5 61t-29.5 96.5q0 56 27 99.5t77 67.5t116 24h9v104h20v-105q83 -8 139 -53.5t75 -121.5h-115q-8 60 -33.5 98t-65.5 52
v-277q70 -25 113 -46.5t73.5 -60t30.5 -98.5q0 -55 -27 -98.5zM186.5 485q21.5 -28 55 -45.5t85.5 -35.5v275q-18 2 -27 2q-59 0 -97 -35.5t-38 -92.5q0 -40 21.5 -68zM460.5 54q38.5 35 38.5 90t-39 86t-113 60v-270q6 -1 17 -1q58 0 96.5 35z" />
    <glyph glyph-name="percent" unicode="%" horiz-adv-x="825" 
d="M187 0h-59l445 700h58zM263 691q38 -21 60 -59t22 -85t-22 -85t-60 -59t-85 -21t-85 21t-60 59t-22 85t22 85t60 59t85 21t85 -21zM238 437.5q17 37.5 17 109.5t-17 109.5t-60 37.5t-60 -37.5t-17 -109.5t17 -109.5t60 -37.5t60 37.5zM694 299q38 -21 60 -59t22 -85
t-22 -85t-60 -59t-85 -21t-85 21t-60 59t-22 85t22 85t60 59t85 21t85 -21zM669 45.5q17 37.5 17 109.5t-17 109.5t-60 37.5t-60 -37.5t-17 -109.5t17 -109.5t60 -37.5t60 37.5z" />
    <glyph glyph-name="ampersand" unicode="&#x26;" horiz-adv-x="729" 
d="M678 21v-21h-97l-82 87q-44 -52 -102.5 -79t-123.5 -27q-62 0 -110.5 23t-75.5 64t-27 93q0 68 48 119t138 78l-43 46q-26 28 -41 46.5t-28.5 47.5t-13.5 62q0 46 26 82t72.5 56t107.5 20q79 0 129.5 -37.5t50.5 -98.5q0 -59 -44.5 -107.5t-133.5 -82.5l214 -224
q17 25 28.5 61t11.5 65q0 34 -17.5 47t-53.5 17l-16 2v14h214v-14l-28 -2q-3 0 -19 -1t-29 -16t-22 -44q-3 -9 -10.5 -35.5t-19.5 -54t-30 -51.5zM236.5 502.5q18.5 -32.5 50.5 -66.5l30 -33q47 23 71.5 69t24.5 106q0 59 -25.5 94t-67.5 35q-46 0 -74 -34t-28 -90
q0 -48 18.5 -80.5zM487 99l-233 249q-46 -22 -71 -60t-25 -88q0 -51 22 -92t62 -64t90 -23q94 0 155 78z" />
    <glyph glyph-name="quotesingle" unicode="'" horiz-adv-x="197" 
d="M106 462h-21l-40 273h102z" />
    <glyph glyph-name="parenleft" unicode="(" horiz-adv-x="314" 
d="M99 38q-74 123 -74 280q0 156 74 279.5t193 199.5l12 -17q-92 -75 -145 -197.5t-53 -264.5q0 -143 53 -266t145 -197l-12 -17q-119 77 -193 200z" />
    <glyph glyph-name="parenright" unicode=")" horiz-adv-x="314" 
d="M10 -145q92 74 145 197t53 266q0 142 -53 264.5t-145 197.5l12 17q119 -76 193 -199.5t74 -279.5q0 -157 -74 -280t-193 -200z" />
    <glyph glyph-name="asterisk" unicode="*" horiz-adv-x="340" 
d="M56 493l80 85l-116 24l22 67l107 -51l-14 120h72l-17 -120l109 49l21 -62l-117 -27l82 -84l-57 -41l-57 101l-57 -102z" />
    <glyph glyph-name="plus" unicode="+" 
d="M516 245h-177v-187h-56v187h-179v55h179v188h56v-188h177v-55z" />
    <glyph glyph-name="comma" unicode="," horiz-adv-x="253" 
d="M134.5 -102q35.5 29 35.5 63q0 16 -8 25.5t-20 14t-22 6.5l-19 6q-42 14 -42 51q0 24 16 39.5t43 15.5q38 0 61.5 -32.5t23.5 -84.5q0 -55 -26.5 -90t-62.5 -51.5t-69 -18.5v21q54 6 89.5 35z" />
    <glyph glyph-name="hyphen" unicode="-" horiz-adv-x="398" 
d="M55 364h288v-80h-288v80z" />
    <glyph glyph-name="period" unicode="." horiz-adv-x="246" 
d="M74 8.5q-19 18.5 -19 46.5q0 26 19 45t49 19q31 0 49.5 -18.5t18.5 -45.5q0 -28 -18.5 -46.5t-49.5 -18.5q-30 0 -49 18.5z" />
    <glyph glyph-name="slash" unicode="/" horiz-adv-x="394" 
d="M319 774h65l-309 -860h-65z" />
    <glyph glyph-name="zero" unicode="0" horiz-adv-x="617" 
d="M445 655.5q57 -44.5 87 -125.5t30 -187q0 -105 -29.5 -185t-86.5 -124.5t-137 -44.5t-137.5 45t-87 125.5t-29.5 186.5t29.5 186t86.5 124t137 44t137 -44.5zM460 292q0 186 -42.5 288t-123.5 102q-71 0 -102.5 -74.5t-31.5 -213.5q0 -186 41.5 -286.5t123.5 -100.5
q135 0 135 285z" />
    <glyph glyph-name="one" unicode="1" horiz-adv-x="455" 
d="M308 41.5q16 -19.5 44 -20.5l73 -3v-18h-357v18l72 3q28 1 44.5 21t16.5 50v535q-22 -15 -62 -25t-79 -12v20q118 3 192 80h40v-598q0 -31 16 -50.5z" />
    <glyph glyph-name="two" unicode="2" horiz-adv-x="563" 
d="M518 84v-84h-473v35l39 36q3 3 60 57q88 84 134.5 134.5t76.5 106.5t30 116q0 68 -39 110t-102 42q-53 0 -98 -31t-76 -88l-16 8q30 81 91 127.5t142 46.5q56 0 100.5 -23t69.5 -64t25 -94q0 -61 -32 -116t-77.5 -99.5t-120.5 -107.5q4 3 -55 -46l-77 -66h398z" />
    <glyph glyph-name="three" unicode="3" horiz-adv-x="577" 
d="M452.5 313q69.5 -53 69.5 -132q0 -55 -29 -99t-81 -69t-119 -25q-99 0 -166.5 50.5t-81.5 135.5h112q6 -79 44.5 -123t99.5 -44q57 0 90.5 37.5t33.5 102.5q0 87 -69.5 139t-189.5 58v20q105 18 165.5 61.5t60.5 106.5q0 51 -35 80.5t-94 29.5q-51 0 -97.5 -22.5
t-78.5 -66.5l-16 10q37 66 97.5 102t136.5 36q53 0 95 -18t65.5 -50t23.5 -72q0 -61 -57.5 -109.5t-168.5 -75.5q120 -10 189.5 -63z" />
    <glyph glyph-name="four" unicode="4" horiz-adv-x="595" 
d="M560 290v-78h-120v-212h-91v212h-324v70l333 408h82v-400h120zM349 633l-272 -343h272v343z" />
    <glyph glyph-name="five" unicode="5" horiz-adv-x="552" 
d="M411.5 380q95.5 -68 95.5 -183q0 -62 -28.5 -109t-80 -73t-120.5 -26q-94 0 -157.5 49t-85.5 136h113q7 -75 46.5 -121t100.5 -46q56 0 91 38.5t35 104.5q0 100 -83.5 156t-236.5 63l46 321h314v-69h-302l-24 -165q181 -8 276.5 -76z" />
    <glyph glyph-name="six" unicode="6" horiz-adv-x="605" 
d="M453 403.5q49 -27.5 78 -77t29 -113.5q0 -65 -30 -116t-84.5 -80t-125.5 -29q-79 0 -139 36t-93 101t-33 151q0 107 51 204t147 158t224 63v-18q-88 -9 -157 -56.5t-111 -124t-52 -171.5q36 49 85 74.5t104 25.5q58 0 107 -27.5zM424.5 57q36.5 50 36.5 127
q0 89 -47.5 138t-119.5 49q-74 0 -138 -54v-36q0 -80 23 -142.5t62.5 -97t87.5 -34.5q59 0 95.5 50z" />
    <glyph glyph-name="seven" unicode="7" horiz-adv-x="533" 
d="M508 690v-33l-307 -657h-85l348 612h-449v78h493z" />
    <glyph glyph-name="eight" unicode="8" horiz-adv-x="588" 
d="M445 312q43 -29 65.5 -65t22.5 -86q0 -82 -62.5 -127.5t-168.5 -45.5q-75 0 -131 21.5t-86 59.5t-30 87q0 65 50 113t130 61q-54 29 -88 54t-54 60t-20 83q0 81 60 127.5t153 46.5q61 0 111 -19.5t78.5 -54t28.5 -78.5q0 -60 -50 -108.5t-126 -64.5q74 -35 117 -64z
M199 649q-31 -33 -31 -91q0 -45 19.5 -77t50.5 -54t78 -45q42 29 64.5 70t22.5 88q0 67 -32 104.5t-88 37.5q-53 0 -84 -33zM397 40q35 33 35 93q0 46 -22.5 78.5t-55 53.5t-87.5 49l-18 9q-43 -24 -68 -66.5t-25 -93.5q0 -72 39.5 -114t106.5 -42q60 0 95 33z" />
    <glyph glyph-name="nine" unicode="9" horiz-adv-x="605" 
d="M152 287.5q-49 27.5 -78 77t-29 113.5q0 65 30 116t84.5 80t125.5 29q79 0 139 -36t93 -101t33 -151q0 -107 -51 -204t-147 -158t-224 -63v18q88 9 157 56.5t111 124t52 171.5q-36 -49 -85 -74.5t-104 -25.5q-58 0 -107 27.5zM180.5 634q-36.5 -50 -36.5 -127
q0 -89 47.5 -138t119.5 -49q74 0 138 54v36q0 80 -23 142.5t-62.5 97t-87.5 34.5q-59 0 -95.5 -50z" />
    <glyph glyph-name="colon" unicode=":" horiz-adv-x="246" 
d="M74 8.5q-19 18.5 -19 46.5q0 26 19 45t49 19q31 0 49.5 -18.5t18.5 -45.5q0 -28 -18.5 -46.5t-49.5 -18.5q-30 0 -49 18.5zM74 349.5q-19 18.5 -19 46.5q0 26 19 45t49 19q31 0 49.5 -18.5t18.5 -45.5q0 -28 -18.5 -46.5t-49.5 -18.5q-30 0 -49 18.5z" />
    <glyph glyph-name="semicolon" unicode=";" horiz-adv-x="253" 
d="M134.5 -102q35.5 29 35.5 63q0 16 -8 25.5t-20 14t-22 6.5l-19 6q-42 14 -42 51q0 24 16 39.5t43 15.5q38 0 61.5 -32.5t23.5 -84.5q0 -55 -26.5 -90t-62.5 -51.5t-69 -18.5v21q54 6 89.5 35zM82 349.5q-19 18.5 -19 46.5q0 26 19 45t49 19q31 0 49.5 -18.5t18.5 -45.5
q0 -28 -18.5 -46.5t-49.5 -18.5q-30 0 -49 18.5z" />
    <glyph glyph-name="less" unicode="&#x3c;" 
d="M128 235v55l340 202l25 -47l-310 -182l310 -181l-25 -47z" />
    <glyph glyph-name="equal" unicode="=" 
d="M114 320v53h392v-53h-392zM114 171v53h392v-53h-392z" />
    <glyph glyph-name="greater" unicode="&#x3e;" 
d="M127 82l310 181l-310 182l25 47l340 -202v-55l-340 -200z" />
    <glyph glyph-name="question" unicode="?" horiz-adv-x="398" 
d="M209.5 673.5q69.5 -39.5 106.5 -91.5t37 -110q0 -39 -15.5 -63.5t-38.5 -37.5t-59 -27q-34 -13 -51.5 -22t-30 -25t-12.5 -40q0 -20 11 -55h-21q-41 62 -41 106q0 43 31.5 68t85.5 45q5 2 11 3.5t12 4.5q49 16 72.5 30.5t23.5 38.5q0 50 -91 80t-195 42v113
q95 -20 164.5 -59.5zM103 8.5q-19 18.5 -19 46.5q0 26 19 45t49 19q31 0 49.5 -18.5t18.5 -45.5q0 -28 -18.5 -46.5t-49.5 -18.5q-30 0 -49 18.5z" />
    <glyph glyph-name="at" unicode="@" horiz-adv-x="925" 
d="M680 648.5q84 -35.5 137 -109t53 -182.5q0 -82 -25 -148t-70 -103.5t-102 -37.5q-46 0 -84 21.5t-56 60.5q-25 -40 -63 -64t-79 -24q-72 0 -115 52t-43 135q0 65 28.5 124.5t79.5 95.5t116 36q77 0 121 -60l9 46h83l-51 -224q-1 -5 -6.5 -26.5t-5.5 -47.5q0 -47 21 -71
t61 -24q48 0 82.5 35t52 92.5t17.5 124.5q0 96 -45 166t-122 107t-170 37q-116 0 -213 -57t-152.5 -152.5t-55.5 -207.5q0 -99 45 -175.5t125 -119.5t181 -43q52 0 97 13l4 -22q-48 -17 -110 -17q-108 0 -192 45.5t-131 127.5t-47 190q0 124 60.5 225t163.5 159t224 58
q93 0 177 -35.5zM564 401q-6 35 -29.5 60.5t-55.5 25.5q-44 0 -79 -31.5t-55 -83.5t-20 -111q0 -67 28 -109t75 -42q25 0 47.5 12t38.5 32z" />
    <glyph glyph-name="A" unicode="A" horiz-adv-x="744" 
d="M676 45q24 -20 58 -24v-21h-291v21q41 0 65 17.5t24 47.5q0 14 -8 32l-52 126h-272l-49 -119q-9 -21 -9 -38q0 -32 26.5 -48.5t73.5 -17.5v-21h-232v21q39 6 62 28t41 63l248 588h21l256 -604q14 -31 38 -51zM462 266l-128 306l-125 -306h253z" />
    <glyph glyph-name="B" unicode="B" horiz-adv-x="642" 
d="M534.5 317q67.5 -50 67.5 -128q0 -53 -33 -96.5t-91 -68t-130 -24.5h-323v21l33 2q33 2 51 20t18 49v516q0 31 -18.5 49t-51.5 20l-32 2v21h350q86 0 138.5 -40.5t52.5 -107.5q0 -45 -27.5 -84t-77.5 -64.5t-114 -30.5q120 -6 187.5 -56zM224 379h59q50 0 90 20t62 55
t22 79q0 64 -42.5 106t-107.5 42h-83v-302zM414.5 41q34.5 21 54 58t19.5 82q0 52 -26 92.5t-73.5 62.5t-109.5 22h-55v-261q0 -35 18 -56t52 -21h44q42 0 76.5 21z" />
    <glyph glyph-name="C" unicode="C" horiz-adv-x="694" 
d="M475.5 639.5q-44.5 57.5 -113.5 57.5q-64 0 -115 -41.5t-79.5 -114t-28.5 -160.5q0 -94 32.5 -166t91 -112t133.5 -40q89 0 149 48.5t80 136.5h22q-16 -125 -91.5 -195.5t-196.5 -70.5q-94 0 -166.5 43.5t-112.5 122t-40 179.5q0 108 43.5 197t123 141t183.5 52
q109 0 179 -60.5t80 -177.5h-122q-7 103 -51.5 160.5z" />
    <glyph glyph-name="D" unicode="D" horiz-adv-x="744" 
d="M527 659q84 -41 130.5 -115t46.5 -169q0 -97 -48 -183.5t-138 -139t-210 -52.5h-283v21l33 2q33 2 51 20t18 49v516q0 31 -18.5 49t-51.5 20l-32 2v21h309q109 0 193 -41zM461 65q61 45 95 121.5t34 168.5q0 94 -35.5 168t-98.5 116t-144 42h-88v-584q0 -35 21 -56
t56 -21h23q76 0 137 45z" />
    <glyph glyph-name="E" unicode="E" horiz-adv-x="652" 
d="M607 235l-26 -235h-556v21l33 2q33 2 51 20t18 49v516q0 31 -18.5 49t-51.5 20l-32 2v21h550v-199h-20q-14 85 -57 132.5t-126 47.5h-148v-314h105q60 0 83 26.5t29 88.5h23v-253h-23q-6 63 -29.5 90.5t-82.5 27.5h-105v-250q0 -35 21.5 -56t57.5 -21h71q163 0 210 215
h23z" />
    <glyph glyph-name="F" unicode="F" horiz-adv-x="610" 
d="M575 501h-19q-14 85 -57 132.5t-126 47.5h-149v-314h105q60 0 83 26.5t29 88.5h23v-253h-23q-6 63 -29.5 90.5t-82.5 27.5h-105v-249q0 -33 18.5 -53t50.5 -22l53 -2v-21h-321v21l33 2q33 2 51 20t18 49v516q0 31 -18.5 49t-51.5 20l-32 2v21h550v-199z" />
    <glyph glyph-name="G" unicode="G" horiz-adv-x="727" 
d="M392 315h300v-23h-66v-220q-68 -47 -130.5 -68.5t-129.5 -21.5q-97 0 -171 43.5t-114.5 122.5t-40.5 182q0 99 40 188t119 144t190 55q109 0 179 -60.5t82 -177.5h-122q-7 102 -52 160t-115 58q-64 0 -114.5 -41.5t-79 -114.5t-28.5 -164q0 -99 33.5 -183t94 -134
t138.5 -50q68 0 124 39v243h-137v23z" />
    <glyph glyph-name="H" unicode="H" horiz-adv-x="804" 
d="M695.5 657q-18.5 -18 -18.5 -49v-516q0 -31 18 -49t51 -20l33 -2v-21h-301v21l33 2q33 2 51 20t18 49v255h-356v-255q0 -31 18 -49t51 -20l33 -2v-21h-301v21l33 2q33 2 51 20t18 49v516q0 31 -18.5 49t-51.5 20l-32 2v21h301v-21l-32 -2q-33 -2 -51.5 -20t-18.5 -49
v-239h356v239q0 31 -18.5 49t-51.5 20l-32 2v21h301v-21l-32 -2q-33 -2 -51.5 -20z" />
    <glyph glyph-name="I" unicode="I" horiz-adv-x="371" 
d="M252.5 43q18.5 -18 50.5 -20l43 -2v-21h-321v21l43 2q32 2 50.5 20t18.5 49v516q0 31 -18.5 49t-51.5 20l-42 2v21h321v-21l-42 -2q-33 -2 -51.5 -20t-18.5 -49v-516q0 -31 18.5 -49z" />
    <glyph glyph-name="J" unicode="J" horiz-adv-x="345" 
d="M340 700v-21l-32 -2q-33 -2 -51.5 -20t-18.5 -49v-487q0 -89 -53.5 -159.5t-164.5 -135.5l-10 13l24 25q49 46 78 106.5t29 133.5v504q0 31 -18.5 49t-51.5 20l-42 2v21h311z" />
    <glyph glyph-name="K" unicode="K" horiz-adv-x="699" 
d="M242 43q18 -18 51 -20l33 -2v-21h-301v21l33 2q33 2 51 20t18 49v516q0 31 -18.5 49t-51.5 20l-32 2v21h301v-21l-32 -2q-33 -2 -51.5 -20t-18.5 -49v-516q0 -31 18 -49zM647.5 45q25.5 -23 41.5 -24v-21h-134q-18 19 -38 43l-265 320l211 206q46 44 46 74q0 31 -53 34
l-35 2v21h248v-21q-52 -4 -114 -61l-223 -209l263 -309q27 -32 52.5 -55z" />
    <glyph glyph-name="L" unicode="L" horiz-adv-x="637" 
d="M607 235l-26 -235h-556v21l33 2q33 2 51 20t18 49v516q0 31 -18.5 49t-51.5 20l-32 2v21h301v-21l-32 -2q-33 -2 -51.5 -20t-18.5 -49v-511q0 -35 21.5 -56t57.5 -21h71q163 0 210 215h23z" />
    <glyph glyph-name="M" unicode="M" horiz-adv-x="906" 
d="M797 43q18 -18 51 -20l33 -2v-21h-301v21l33 2q33 2 51 20t18 49v506l-234 -587h-33l-248 620v-519q0 -36 21.5 -61.5t52.5 -27.5l49 -2v-21h-265v21l38 2q31 1 52.5 27t21.5 62v497q0 30 -18 48t-51 20l-33 2v21h212l222 -573l219 573h193v-21l-33 -2q-33 -2 -51 -20
t-18 -48v-517q0 -31 18 -49z" />
    <glyph glyph-name="N" unicode="N" horiz-adv-x="797" 
d="M782 700v-21l-36 -2q-33 -1 -54.5 -26.5t-21.5 -62.5v-588h-32l-456 588v-476q0 -35 22 -61t52 -28l51 -2v-21h-267v21l37 2q32 1 53.5 27t21.5 62v499l-15 19q-20 26 -45 36.5t-67 12.5v21h195l419 -549v437q0 36 -21.5 61.5t-52.5 27.5l-52 2v21h269z" />
    <glyph glyph-name="O" unicode="O" horiz-adv-x="759" 
d="M207 30q-78 48 -122.5 132.5t-44.5 189.5q0 104 44 187.5t121.5 130.5t172.5 47q96 0 174 -48t122.5 -132.5t44.5 -189.5q0 -104 -44 -187.5t-121.5 -130.5t-172.5 -47q-96 0 -174 48zM512 41q45 39 70 108.5t25 158.5q0 105 -34 194.5t-92.5 142t-127.5 52.5
q-59 0 -104 -39t-70 -109t-25 -159q0 -105 34 -194.5t92 -141.5t127 -52q60 0 105 39z" />
    <glyph glyph-name="P" unicode="P" horiz-adv-x="633" 
d="M487.5 675.5q52.5 -24.5 79 -65.5t26.5 -89q0 -53 -31.5 -101.5t-92 -79t-144.5 -30.5h-101v-212q0 -33 18 -53.5t50 -21.5l36 -2v-21h-303v21l33 2q33 2 51 20t18 49v516q0 31 -18.5 49t-51.5 20l-32 2v21h336q74 0 126.5 -24.5zM224 329h78q57 0 97.5 25.5t61 66.5
t20.5 87q0 45 -20.5 85t-61 64t-97.5 24h-78v-352z" />
    <glyph glyph-name="Q" unicode="Q" horiz-adv-x="769" 
d="M786 -86v-77q-32 -9 -70 -9q-58 0 -118.5 21t-124.5 52l-223 106q-101 48 -155.5 138.5t-54.5 206.5q0 104 44 187.5t121.5 130.5t172.5 47q97 0 175 -48.5t122 -132.5t44 -188t-44 -187.5t-120 -131t-169 -47.5q-11 0 -16 1q107 -38 191.5 -54t159.5 -16q52 0 65 1z
M512 41q45 39 70 108.5t25 158.5q0 105 -34 194.5t-92.5 142t-127.5 52.5q-59 0 -104 -39t-70 -109t-25 -159q0 -105 34 -194.5t92 -141.5t127 -52q60 0 105 39z" />
    <glyph glyph-name="R" unicode="R" horiz-adv-x="682" 
d="M629.5 45.5q19.5 -19.5 42.5 -24.5v-21h-134q-26 33 -50 67l-184 263h-80v-232q0 -34 18 -53.5t51 -21.5l33 -2v-21h-301v21l33 2q33 2 51 20t18 49v516q0 31 -18.5 49t-51.5 20l-32 2v21h330q73 0 125 -24t78.5 -64t26.5 -85q0 -40 -21 -77.5t-62.5 -65t-99.5 -38.5
l183 -248q25 -33 44.5 -52.5zM392 374q39 24 59.5 62.5t20.5 81.5q0 42 -20 79.5t-60 60.5t-97 23h-71v-331h76q53 0 92 24z" />
    <glyph glyph-name="S" unicode="S" horiz-adv-x="586" 
d="M151.5 488.5q24.5 -29.5 61 -47.5t99.5 -40q77 -27 122 -49t78.5 -63t33.5 -105q0 -58 -28.5 -104t-81 -72t-120.5 -26q-69 0 -129 25.5t-100 71.5t-52 105h122q5 -53 30 -94.5t64 -64.5t85 -23q61 0 101.5 37t40.5 94q0 46 -26.5 76t-63 47.5t-106.5 43.5
q-72 27 -117.5 51t-76.5 64.5t-31 101.5q0 59 28 104.5t80.5 70.5t122.5 25q98 0 166 -49t89 -135h-121q-10 80 -49.5 122t-103.5 42q-62 0 -102 -37t-40 -97q0 -45 24.5 -74.5z" />
    <glyph glyph-name="T" unicode="T" horiz-adv-x="679" 
d="M659 501h-20q-18 82 -63.5 131t-116.5 49h-71v-589q0 -31 18.5 -49t50.5 -20l43 -2v-21h-321v21l43 2q32 2 50.5 20t18.5 49v589h-71q-72 0 -116.5 -49t-63.5 -131h-20l14 199h611z" />
    <glyph glyph-name="U" unicode="U" horiz-adv-x="800" 
d="M780 700v-22l-37 -2q-32 -2 -54 -27t-22 -61v-353q0 -79 -33 -136t-92.5 -87t-137.5 -30q-82 0 -146 33t-100 94.5t-36 143.5v355q0 31 -18.5 49t-51.5 20l-32 2v21h301v-21l-32 -2q-33 -2 -51.5 -20t-18.5 -49v-375q0 -100 56 -159.5t150 -59.5q62 0 110 26.5t75 75
t27 112.5v360q0 36 -21.5 61t-52.5 27l-50 2v22h267z" />
    <glyph glyph-name="V" unicode="V" horiz-adv-x="736" 
d="M726 700v-23q-43 -6 -69.5 -30t-43.5 -66l-241 -581h-27l-247 609q-11 27 -34 46t-54 23v22h279v-21q-41 -1 -64.5 -14t-23.5 -39q0 -11 6 -28l189 -480l179 450q10 24 10 45q0 63 -102 66v21h243z" />
    <glyph glyph-name="W" unicode="W" horiz-adv-x="1040" 
d="M1030 700v-22q-42 -4 -68.5 -28.5t-41.5 -68.5l-202 -581h-25l-174 475l-171 -475h-27l-222 608q-23 63 -89 70v22h269v-21q-78 -1 -78 -54q0 -11 5 -28l162 -477l134 401l-32 87q-11 30 -33.5 48t-54.5 22v22h270v-21q-39 -1 -59.5 -14.5t-20.5 -38.5q0 -9 6 -29
l161 -470l144 442q9 27 9 46q0 32 -22 47.5t-69 16.5v21h229z" />
    <glyph glyph-name="X" unicode="X" horiz-adv-x="735" 
d="M672.5 45.5q27.5 -19.5 47.5 -22.5v-23h-286v21q78 2 78 40q0 23 -23 53l-150 203l-154 -201q-16 -20 -16 -39q0 -25 24.5 -40t66.5 -16v-21h-245v22q34 6 67.5 30t60.5 58l181 227l-203 276q-17 23 -45.5 42t-50.5 22v23h290v-21q-76 -2 -76 -41q0 -20 23 -52l131 -178
l127 172q17 23 17 45q0 24 -23.5 38.5t-63.5 15.5v21h245v-22q-70 -11 -121 -77l-166 -213l221 -301q16 -22 43.5 -41.5z" />
    <glyph glyph-name="Y" unicode="Y" horiz-adv-x="663" 
d="M658 700v-23q-43 -7 -67.5 -29.5t-51.5 -67.5l-157 -265v-223q0 -31 18.5 -49t50.5 -20l43 -2v-21h-321v21l43 2q32 2 50.5 20t18.5 49v181l-196 335q-37 63 -84 70v22h270v-21q-35 -1 -54 -17t-19 -40q0 -17 10 -34l150 -262l137 245q16 28 16 50q0 27 -24 42t-68 16v21
h235z" />
    <glyph glyph-name="Z" unicode="Z" horiz-adv-x="628" 
d="M583 680l-432 -660h205q164 0 209 215h23l-25 -235h-523v20l434 661h-211q-83 0 -126 -47.5t-57 -132.5h-19v199h522v-20z" />
    <glyph glyph-name="bracketleft" unicode="[" horiz-adv-x="317" 
d="M85 787h197v-20h-116v-898h116v-20h-197v938z" />
    <glyph glyph-name="backslash" unicode="\" horiz-adv-x="394" 
d="M10 774h65l309 -860h-65z" />
    <glyph glyph-name="bracketright" unicode="]" horiz-adv-x="317" 
d="M35 -151v20h116v898h-116v20h197v-938h-197z" />
    <glyph glyph-name="asciicircum" unicode="^" horiz-adv-x="496" 
d="M86 436h-31l180 275h26l180 -275h-31l-162 154z" />
    <glyph glyph-name="underscore" unicode="_" horiz-adv-x="576" 
d="M55 -83v63h466v-63h-466z" />
    <glyph glyph-name="grave" unicode="`" horiz-adv-x="174" 
d="M0 739h123l51 -149h-31z" />
    <glyph glyph-name="a" unicode="a" horiz-adv-x="534" 
d="M524 33v-18q-40 -26 -85 -26q-78 0 -86 99q-42 -52 -91.5 -75.5t-96.5 -23.5q-60 0 -95 35.5t-35 92.5q0 46 23 74.5t56 43t87 29.5l45 14q58 19 89 46t31 78q0 46 -26.5 72t-71.5 26q-52 0 -83.5 -40t-38.5 -118h-103q12 84 71.5 127.5t152.5 43.5q84 0 127.5 -38
t43.5 -109v-264q0 -77 51 -77q19 0 35 8zM346 308q-18 -17 -39.5 -27t-54.5 -20q-6 -2 -43.5 -13.5t-55.5 -36t-18 -63.5q0 -50 24.5 -80.5t67.5 -30.5q34 0 67.5 18.5t51.5 46.5v206z" />
    <glyph glyph-name="b" unicode="b" horiz-adv-x="588" 
d="M452 483q49 -30 77.5 -85.5t28.5 -128.5q0 -81 -34.5 -145t-95.5 -99.5t-136 -35.5q-101 0 -208 63v595q0 31 -17 48t-48 17h-14v19l170 36v-338q31 40 75.5 62t93.5 22q59 0 108 -30zM376 30q38 30 60 83t22 119q0 68 -22.5 118.5t-62 77t-87.5 26.5q-68 0 -111 -43
v-349q43 -62 116 -62q47 0 85 30z" />
    <glyph glyph-name="c" unicode="c" horiz-adv-x="478" 
d="M324.5 458q-25.5 42 -72.5 42q-38 0 -69 -28.5t-48.5 -79t-17.5 -113.5q0 -101 44.5 -155.5t122.5 -54.5q48 0 87.5 21.5t60.5 64.5h16q-19 -77 -71.5 -121.5t-128.5 -44.5q-63 0 -113 30.5t-77.5 86t-27.5 127.5q0 79 32 143t87 100.5t123 36.5q74 0 123 -44t58 -127
h-103q0 74 -25.5 116z" />
    <glyph glyph-name="d" unicode="d" horiz-adv-x="590" 
d="M575 43v-19l-165 -35v90q-28 -43 -73.5 -66.5t-99.5 -23.5q-61 0 -108 29.5t-73 85t-26 130.5q0 81 30 144.5t85 99t127 35.5q38 0 74 -10t59 -30v174q0 31 -17.5 48t-47.5 17h-14v19l170 36v-658q0 -32 17.5 -49t47.5 -17h14zM354 54q31 15 51 41v300q-18 48 -51 76.5
t-76 28.5t-77 -29.5t-52.5 -81t-18.5 -114.5q0 -69 21 -122.5t57.5 -83.5t81.5 -30q33 0 64 15z" />
    <glyph glyph-name="e" unicode="e" horiz-adv-x="487" 
d="M135 19.5q-50 30.5 -77.5 86.5t-27.5 128q0 79 32 142.5t88 100t126 36.5q87 0 133 -58.5t48 -163.5h-339q-1 -7 -1 -16q0 -97 44.5 -151.5t122.5 -54.5q48 0 87.5 21.5t60.5 64.5h16q-19 -77 -71.5 -121.5t-128.5 -44.5q-63 0 -113 30.5zM353 310v14q0 80 -26 128
t-75 48q-34 0 -63 -23.5t-48 -67t-23 -99.5h235z" />
    <glyph glyph-name="f" unicode="f" horiz-adv-x="376" 
d="M406 692q-61 17 -112 17q-68 0 -107.5 -29t-39.5 -82q0 -47 34 -71t89 -24h97v-21h-158v-395q0 -30 17 -47.5t47 -19.5l39 -2v-18h-276v18l18 1q64 3 64 69v394h-118v21h118v38q0 115 58 182.5t158 67.5q37 0 72 -8v-91z" />
    <glyph glyph-name="g" unicode="g" horiz-adv-x="576" 
d="M556 428q-50 6 -121 28q-24 8 -36 11q77 -55 77 -131q0 -46 -28 -83t-76.5 -58t-108.5 -21q-58 0 -100 19q-54 -25 -54 -60q0 -25 21.5 -38t56.5 -13h181q74 0 115.5 -29.5t41.5 -83.5q0 -57 -44 -97.5t-113 -61.5t-141 -21q-85 0 -143.5 28.5t-58.5 79.5q0 36 29 64.5
t80 38.5q-37 10 -59 34t-22 57q0 36 26.5 64t71.5 43q-46 21 -70.5 56.5t-24.5 82.5q0 49 27 89.5t74.5 63.5t106.5 23q27 0 69 -7q39 -6 69 -9t77 -3h77v-66zM351 221.5q26 35.5 26 104.5q0 80 -32.5 127.5t-88.5 47.5q-46 0 -72 -36t-26 -105q0 -79 32.5 -126.5
t87.5 -47.5q47 0 73 35.5zM142 -4q-20 -10 -33 -31t-13 -45q0 -50 54.5 -78.5t128.5 -28.5q75 0 129 28.5t54 82.5q0 33 -24 52.5t-68 19.5h-228z" />
    <glyph glyph-name="h" unicode="h" horiz-adv-x="612" 
d="M602 18v-18h-253v18l18 1q61 3 61 67v244q0 66 -26.5 100t-78.5 34q-38 0 -74 -17.5t-60 -47.5v-313q0 -30 15.5 -48t45.5 -19l19 -1v-18h-254v18l19 1q29 2 46.5 18t17.5 49v561q0 31 -17.5 48t-47.5 17h-14v19l170 36v-347q30 41 81 67t104 26q69 0 107.5 -43.5
t38.5 -123.5v-260q0 -31 17 -48t47 -19z" />
    <glyph glyph-name="i" unicode="i" horiz-adv-x="292" 
d="M92.5 640q-19.5 18 -19.5 45t19 45t50 18t49 -17.5t18 -45.5t-18 -45.5t-49 -17.5q-30 0 -49.5 18zM277 18v-18h-257v18l19 1q29 2 46.5 17.5t17.5 48.5v307q0 32 -17 48.5t-48 16.5h-14v20l170 36v-428q0 -30 17 -47t47 -19z" />
    <glyph glyph-name="j" unicode="j" horiz-adv-x="263" 
d="M85 639q-19 18 -19 45t19 45t49 18q31 0 50 -17.5t19 -45.5t-19 -45.5t-50 -17.5q-30 0 -49 18zM18 477l170 36v-460q0 -62 -19.5 -107t-57 -81.5t-101.5 -80.5l-10 12l23 28q40 50 57 104.5t17 121.5v342q0 32 -17 48.5t-48 16.5h-14v20z" />
    <glyph glyph-name="k" unicode="k" horiz-adv-x="562" 
d="M206 38.5q17 -18.5 48 -19.5l18 -1v-18h-257v18l19 1q29 2 46.5 18t17.5 49v561q0 31 -17 48t-48 17h-14v19l170 36v-681q0 -29 17 -47.5zM527.5 38q14.5 -15 24.5 -20v-18h-113q-20 22 -46 52l-179 206l128 127q31 31 31 56q0 42 -83 42v20h251v-21q-34 -5 -72 -25
t-68 -48l-111 -104l194 -219q29 -33 43.5 -48z" />
    <glyph glyph-name="l" unicode="l" horiz-adv-x="287" 
d="M80.5 695q-17.5 17 -47.5 17h-14v19l170 36v-681q0 -31 17 -48t47 -19l19 -1v-18h-257v18l19 1q29 2 46.5 18t17.5 49v561q0 31 -17.5 48z" />
    <glyph glyph-name="m" unicode="m" horiz-adv-x="936" 
d="M804.5 469.5q38.5 -43.5 38.5 -123.5v-260q0 -64 65 -67l18 -1v-18h-251v18l18 1q59 3 59 67v245q0 68 -30 100.5t-76 32.5q-36 0 -72 -18.5t-58 -47.5v-312q0 -64 59 -67l18 -1v-18h-245v18l18 1q59 3 59 67v245q0 68 -30 100.5t-76 32.5q-36 0 -72 -18.5t-58 -47.5
v-312q0 -64 59 -67l18 -1v-18h-251v18l19 1q29 2 46.5 18t17.5 49v307q0 32 -17 48.5t-48 16.5h-14v19l165 36v-98q29 43 80.5 70.5t106.5 27.5q54 0 91 -27t47 -76q28 45 80.5 74t107.5 29q69 0 107.5 -43.5z" />
    <glyph glyph-name="n" unicode="n" horiz-adv-x="612" 
d="M602 18v-18h-252v18l18 1q61 3 61 67v244q0 66 -27 100t-79 34q-38 0 -74 -17.5t-60 -47.5v-313q0 -30 15.5 -48t45.5 -19l19 -1v-18h-254v18l19 1q29 2 46.5 18t17.5 49v307q0 32 -17 48.5t-48 16.5h-14v19l165 36v-100q29 44 81.5 72t108.5 28q69 0 107.5 -43.5
t38.5 -123.5v-260q0 -31 17 -48t47 -19z" />
    <glyph glyph-name="o" unicode="o" horiz-adv-x="546" 
d="M399.5 479q55.5 -34 86 -93.5t30.5 -134.5q0 -74 -31 -134t-86.5 -94t-126.5 -34t-126 33.5t-85.5 93t-30.5 133.5q0 75 31 135t86.5 94.5t125.5 34.5q71 0 126.5 -34zM383.5 54.5q31.5 52.5 31.5 149.5q0 88 -20.5 155t-57 104t-84.5 37q-57 0 -89 -53t-32 -149
q0 -87 20.5 -154t57.5 -104.5t84 -37.5q58 0 89.5 52.5z" />
    <glyph glyph-name="p" unicode="p" horiz-adv-x="603" 
d="M470.5 481.5q48.5 -31.5 75.5 -89t27 -130.5q0 -78 -31 -137.5t-87.5 -92t-130.5 -32.5q-82 0 -135 45v-160q0 -30 17 -48t47 -19l29 -1v-18h-267v18l19 1q29 2 46.5 18.5t17.5 48.5v508q0 32 -17 48.5t-48 16.5h-14v19l165 36v-102q27 48 73.5 75t103.5 27
q61 0 109.5 -31.5zM395.5 40.5q36.5 28.5 56.5 79.5t20 117q0 103 -45.5 160t-117.5 57q-77 0 -120 -57v-304q19 -38 50 -59.5t73 -21.5q47 0 83.5 28.5z" />
    <glyph glyph-name="q" unicode="q" horiz-adv-x="583" 
d="M311 -183l29 1q29 1 46.5 19.5t17.5 47.5v206q-22 -42 -68.5 -66.5t-101.5 -24.5q-60 0 -106 28.5t-72 81.5t-26 126q0 78 29.5 141t83 99.5t122.5 36.5q41 0 79 -12.5t68 -34.5l64 37h19v-618q0 -30 17 -47t47 -20l9 -1v-18h-257v18zM352 67.5q32 15.5 52 42.5v285
q-46 104 -127 104q-43 0 -77 -29.5t-53 -81t-19 -114.5q0 -66 20.5 -116.5t56.5 -78t81 -27.5q34 0 66 15.5z" />
    <glyph glyph-name="r" unicode="r" horiz-adv-x="410" 
d="M390 507v-92q-31 9 -60 9q-43 0 -81 -21t-60 -69v-248q0 -32 17.5 -49t46.5 -18l29 -1v-18h-267v18l19 1q29 2 46.5 18.5t17.5 48.5v307q0 32 -17 48.5t-48 16.5h-14v19l165 36v-167q26 82 71 124.5t95 42.5q14 0 40 -6z" />
    <glyph glyph-name="s" unicode="s" horiz-adv-x="452" 
d="M123 355q17 -20 43 -32t70 -25q63 -20 98 -34.5t61.5 -45.5t26.5 -82q0 -68 -48.5 -107.5t-126.5 -39.5q-86 0 -144.5 44t-72.5 116h103q10 -69 42 -108t87 -39q45 0 71.5 25t26.5 65q0 33 -18 54t-45.5 33t-73.5 26q-57 18 -91.5 33.5t-59 46t-24.5 79.5
q0 70 49.5 109.5t127.5 39.5q74 0 125 -37t67 -100h-103q-5 57 -35 90.5t-78 33.5q-42 0 -68.5 -26t-26.5 -67q0 -32 17 -52z" />
    <glyph glyph-name="t" unicode="t" horiz-adv-x="376" 
d="M188 124q0 -52 24 -75t71 -23q37 0 73 12v-16q-58 -33 -123 -33q-61 0 -98.5 28t-37.5 87v381h-87v18q46 10 93 43.5t67 80.5h18v-124h165v-21h-165v-358z" />
    <glyph glyph-name="u" unicode="u" horiz-adv-x="599" 
d="M584 43v-19l-166 -35v100q-30 -43 -79 -71.5t-102 -28.5q-68 0 -108 46t-40 125v232q0 32 -17 48.5t-48 16.5h-14v20l170 36v-337q0 -64 28.5 -99.5t81.5 -35.5q69 0 123 62v289q0 32 -17 48.5t-48 16.5h-14v20l170 36v-404q0 -32 17.5 -49t48.5 -17h14z" />
    <glyph glyph-name="v" unicode="v" horiz-adv-x="576" 
d="M566 503v-19q-55 -7 -86 -77l-181 -407h-24l-185 424q-12 27 -33 42.5t-47 17.5v19h238v-19q-59 -1 -59 -42q0 -14 8 -35l123 -308l127 300q10 25 10 39q0 44 -81 46v19h190z" />
    <glyph glyph-name="w" unicode="w" horiz-adv-x="842" 
d="M832 503v-19q-24 -5 -46 -26.5t-36 -51.5l-179 -406h-22l-128 311l-139 -311h-24l-183 424q-24 54 -65 60v19h219v-19q-57 -1 -57 -42q0 -14 8 -34l125 -311l102 247l-33 80q-22 54 -58 59v20h212v-19q-31 -1 -44.5 -11.5t-13.5 -30.5q0 -13 8 -34l116 -306l122 297
q6 15 6 28q0 25 -21.5 40.5t-56.5 16.5v19h188z" />
    <glyph glyph-name="x" unicode="x" horiz-adv-x="557" 
d="M511.5 38.5q21.5 -17.5 35.5 -20.5v-18h-255v18q71 3 71 39q0 15 -18 40l-102 133l-89 -125q-20 -28 -20 -46q0 -39 71 -41v-18h-195v18q22 4 50 22t49 46l122 160l-130 173q-22 29 -42.5 45.5t-45.5 20.5v18h246v-19q-26 -1 -38.5 -11.5t-12.5 -26.5q0 -19 17 -41
l85 -111l75 103q21 29 21 48q0 37 -70 39v19h194v-19q-25 -5 -51.5 -22.5t-48.5 -45.5l-107 -139l146 -193q21 -28 42.5 -45.5z" />
    <glyph glyph-name="y" unicode="y" horiz-adv-x="586" 
d="M576 503v-19q-28 -6 -43.5 -27t-25.5 -45.5t-14 -32.5l-158 -359q-26 -58 -54 -101t-80 -76.5t-129 -33.5q-29 0 -62 5v86q63 -22 119 -22q107 0 160 97l-194 437q-14 32 -33 50t-48 22v19h243v-19q-31 -1 -45.5 -16t-14.5 -38q0 -19 10 -42l130 -318l126 306
q10 25 10 46q0 59 -90 62v19h193z" />
    <glyph glyph-name="z" unicode="z" horiz-adv-x="482" 
d="M447 167l-20 -167h-397v16l309 467h-125q-67 0 -102.5 -33.5t-46.5 -99.5h-20v153h401v-15l-309 -469h136q63 0 97.5 36t52.5 112h24z" />
    <glyph glyph-name="braceleft" unicode="{" horiz-adv-x="323" 
d="M224 -115q25 -33 89 -37v-21q-96 2 -146 43.5t-50 134.5v163q0 64 -25 99t-82 40v21q57 5 82 40t25 99v163q0 93 50 134.5t146 43.5v-21q-64 -4 -89 -37t-25 -111v-195q0 -102 -135 -126q60 -12 97.5 -41t37.5 -86v-195q0 -78 25 -111z" />
    <glyph glyph-name="bar" unicode="|" horiz-adv-x="184" 
d="M124 -112h-64v924h64v-924z" />
    <glyph glyph-name="braceright" unicode="}" horiz-adv-x="323" 
d="M124 191q0 57 37.5 86t97.5 41q-135 24 -135 126v195q0 78 -25 111t-89 37v21q96 -2 146 -43.5t50 -134.5v-163q0 -64 25 -99t82 -40v-21q-57 -5 -82 -40t-25 -99v-163q0 -93 -50 -134.5t-146 -43.5v21q64 4 89 37t25 111v195z" />
    <glyph glyph-name="asciitilde" unicode="~" 
d="M508.5 328q-15.5 -40 -44 -61.5t-61.5 -21.5q-26 0 -48.5 11.5t-51.5 34.5q-29 21 -47.5 31t-39.5 10q-54 0 -80 -78h-36q1 49 19 85t46 55t60 19q27 0 50 -12t56 -36q27 -20 45 -30t36 -10q26 0 45.5 24t27.5 71h36q3 -52 -12.5 -92z" />
    <glyph glyph-name="exclamdown" unicode="&#xa1;" horiz-adv-x="316" 
d="M207.5 473.5q18.5 -18.5 18.5 -46.5q0 -26 -18.5 -45t-49.5 -19q-30 0 -49 19t-19 45q0 28 19 46.5t49 18.5q31 0 49.5 -18.5zM223 -218h-130l56 507h19z" />
    <glyph glyph-name="cent" unicode="&#xa2;" horiz-adv-x="640" 
d="M525 158h20q-17 -77 -71.5 -122t-144.5 -45h-16l-8 -119h-19l8 121q-93 11 -148 76t-55 165q0 74 30.5 135.5t85 99t123.5 43.5l8 112h20l-8 -111h4q83 0 136 -41.5t60 -119.5h-103q-2 66 -27 104t-71 40l-32 -447q17 -3 33 -3q134 0 175 112zM205.5 130.5
q34.5 -57.5 93.5 -76.5l30 441q-71 -6 -114.5 -68.5t-43.5 -161.5q0 -77 34.5 -134.5z" />
    <glyph glyph-name="sterling" unicode="&#xa3;" horiz-adv-x="640" 
d="M601 167q-3 -82 -43 -130t-109 -48q-41 0 -76 21t-84 71q-55 -92 -140 -92q-49 0 -79 27.5t-30 71.5q0 46 31 77t78 31q57 0 108 -53q6 31 7 60.5t1 106.5v98h-118v20h118v39q0 116 58 183t158 67q38 0 72 -8v-91q-59 17 -113 17q-68 0 -107 -29.5t-39 -82.5
q0 -47 34.5 -71t89.5 -24h97v-20h-158v-87q0 -66 -10.5 -116t-36.5 -92q7 -4 31 -17.5t53 -23.5t59 -10q52 0 86.5 25.5t45.5 79.5h16zM225 48.5q24 33.5 28 76.5q-41 41 -84 41q-31 0 -51 -21t-20 -57q0 -33 18 -53t47 -20q38 0 62 33.5z" />
    <glyph glyph-name="currency" unicode="&#xa4;" horiz-adv-x="640" 
d="M505 209q-14 -35 -38 -61l91 -114l-43 -34l-91 113q-47 -28 -103 -28t-103 28l-92 -113l-43 34l92 115q-24 26 -37.5 60t-13.5 73t14 74t40 62l-95 118l43 33l95 -118q44 27 100 27q55 0 99 -26l95 117l43 -33l-94 -117q26 -27 40.5 -62t14.5 -75q0 -38 -14 -73z
M194.5 208q19.5 -34 53 -53.5t73.5 -19.5t73 19.5t52.5 53.5t19.5 74t-19.5 73t-52.5 52.5t-73 19.5t-73.5 -19.5t-53 -52.5t-19.5 -73t19.5 -74z" />
    <glyph glyph-name="yen" unicode="&#xa5;" horiz-adv-x="640" 
d="M608 700v-23q-44 -6 -65.5 -24.5t-47.5 -62.5l-122 -208v-65h157v-19h-157v-114h157v-19h-157v-74q0 -30 18.5 -48t50.5 -20l43 -2v-21h-321v21l43 2q32 2 50.5 20t18.5 48v74h-159v19h159v114h-159v19h159v27l-163 274q-16 27 -35 41.5t-46 18.5v22h259v-21
q-34 -1 -51.5 -14t-17.5 -33q0 -15 11 -34l119 -207l106 190q15 28 15 46q0 51 -96 52v21h231z" />
    <glyph glyph-name="brokenbar" unicode="&#xa6;" horiz-adv-x="184" 
d="M124 423h-64v389h64v-389zM124 -112h-64v389h64v-389z" />
    <glyph glyph-name="section" unicode="&#xa7;" horiz-adv-x="467" 
d="M427 136q0 -68 -48.5 -107.5t-126.5 -39.5q-86 0 -144.5 44t-72.5 116h103q10 -69 42 -108t87 -39q45 0 71.5 25t26.5 67q0 33 -19 54.5t-47 33.5t-78 27q-55 17 -88.5 33t-56.5 45t-23 76q0 49 48 86q-48 38 -48 101q0 70 49 110t128 40q74 0 125 -37t67 -100h-103
q-5 57 -35 90.5t-78 33.5q-42 0 -68.5 -26t-26.5 -67q0 -46 33.5 -69t98.5 -43q64 -19 98 -33.5t60 -44.5t26 -81q0 -50 -46 -86q46 -36 46 -101zM142 340q31 -23 90 -41l24 -8q37 -11 60.5 -19.5t43.5 -20.5q5 15 5 30q0 46 -34 69t-102 44q-42 13 -66.5 22t-45.5 22
q-6 -12 -6 -31q0 -44 31 -67z" />
    <glyph glyph-name="dieresis" unicode="&#xa8;" horiz-adv-x="301" 
d="M15 707q15 15 40 15q24 0 38.5 -15t14.5 -40q0 -26 -14.5 -41.5t-38.5 -15.5q-25 0 -40 15.5t-15 41.5q0 25 15 40zM207 707q15 15 39 15q25 0 40 -15t15 -40q0 -26 -15 -41.5t-40 -15.5q-24 0 -39 15.5t-15 41.5q0 25 15 40z" />
    <glyph glyph-name="copyright" unicode="&#xa9;" horiz-adv-x="798" 
d="M581.5 665q81.5 -46 129 -128.5t47.5 -186.5t-47.5 -186.5t-129 -128.5t-181.5 -46t-182.5 46t-130 128.5t-47.5 186.5t47.5 186.5t130 128.5t182.5 46t181.5 -46zM566.5 56.5q75.5 42.5 119 119t43.5 174.5q0 97 -43.5 174t-119 119.5t-166.5 42.5t-166.5 -42.5
t-120 -119t-44.5 -174.5t44.5 -174.5t120 -119t166.5 -42.5t166.5 42.5zM503.5 211.5q30.5 23.5 44.5 65.5h20q-16 -65 -61.5 -101.5t-109.5 -36.5q-54 0 -96 26t-65 72.5t-23 106.5q0 67 26.5 121t73.5 84.5t104 30.5q62 0 103 -35.5t50 -103.5h-92q-1 60 -21 90.5
t-57 30.5q-32 0 -57.5 -23.5t-40 -65t-14.5 -93.5q0 -86 39.5 -139t103.5 -53q42 0 72.5 23.5z" />
    <glyph glyph-name="ordfeminine" unicode="&#xaa;" horiz-adv-x="412" 
d="M382 349v-18q-13 -9 -30 -14t-34 -5q-28 0 -44 17.5t-18 49.5q-28 -34 -64 -50.5t-69 -16.5q-42 0 -67.5 27t-25.5 70q0 34 16 54.5t39.5 31.5t62.5 22q37 10 60 20t38.5 29.5t15.5 50.5q0 32 -17 50t-47 18q-34 0 -55 -28t-26 -80h-81q9 58 51.5 90.5t109.5 32.5
q60 0 92 -28.5t32 -81.5v-196q0 -53 34 -53q12 0 27 8zM214.5 364q21.5 13 34.5 34v143q-14 -13 -29.5 -19.5t-40.5 -15.5q-36 -11 -53 -25.5t-17 -50.5t16.5 -57.5t44.5 -21.5q23 0 44.5 13z" />
    <glyph glyph-name="guillemotleft" unicode="&#xab;" horiz-adv-x="472" 
d="M211 105l-20 -15l-166 170v50l166 171l20 -15l-92 -181zM427 105l-20 -15l-166 170v50l166 171l20 -15l-92 -181z" />
    <glyph glyph-name="logicalnot" unicode="&#xac;" 
d="M448 104v141h-334v57h392v-198h-58z" />
    <glyph glyph-name="registered" unicode="&#xae;" horiz-adv-x="499" 
d="M358.5 683.5q48.5 -27.5 77 -77t28.5 -111.5t-28.5 -111t-77 -76.5t-108.5 -27.5t-109 27.5t-77.5 76.5t-28.5 111t28.5 111.5t77.5 77t109 27.5t108.5 -27.5zM342.5 332.5q41.5 23.5 65.5 66t24 96.5t-24 97t-65.5 66.5t-92.5 23.5t-92.5 -23.5t-66 -66.5t-24.5 -97
t24.5 -96.5t66 -66t92.5 -23.5t92.5 23.5zM369 406v-14h-55q-10 11 -20 27l-43 69h-26v-64q0 -17 20 -22l4 -1v-9h-98v11l10 1q8 1 14 7t6 13v158q0 7 -6 13t-14 7l-10 1v11h111q36 0 57.5 -15t21.5 -41q0 -19 -12 -34.5t-35 -22.5l42 -65q18 -27 33 -30zM281 516
q13 14 13 35q0 22 -11.5 35.5t-35.5 13.5h-22v-98h19q24 0 37 14z" />
    <glyph glyph-name="macron" unicode="&#xaf;" horiz-adv-x="298" 
d="M0 600v66h298v-66h-298z" />
    <glyph glyph-name="degree" unicode="&#xb0;" horiz-adv-x="397" 
d="M283 734q38 -21 60 -59t22 -85t-22 -85t-60 -59t-85 -21t-85 21t-60 59t-22 85t22 85t60 59t85 21t85 -21zM258 480.5q17 37.5 17 109.5t-17 109.5t-60 37.5t-60 -37.5t-17 -109.5t17 -109.5t60 -37.5t60 37.5z" />
    <glyph glyph-name="plusminus" unicode="&#xb1;" 
d="M516 425h-177v-187h-56v187h-179v55h179v188h56v-188h177v-55zM516 120h-412v55h412v-55z" />
    <glyph glyph-name="uni00B2" unicode="&#xb2;" horiz-adv-x="340" 
d="M316 325v-61h-296v24l25 24l15 14q61 56 94 90.5t54 72t21 77.5q0 41 -23.5 66t-60.5 25q-32 0 -59.5 -19.5t-46.5 -55.5l-14 7q19 52 57.5 81.5t88.5 29.5q55 0 89 -32t34 -82q0 -39 -21 -74.5t-50.5 -64.5t-76.5 -69l-28 -24l-35 -29h233z" />
    <glyph glyph-name="uni00B3" unicode="&#xb3;" horiz-adv-x="340" 
d="M281.5 458q39.5 -32 39.5 -79q0 -55 -39 -88.5t-103 -33.5q-63 0 -107 33.5t-52 88.5h80q2 -50 23 -77.5t58 -27.5q35 0 54 22t19 62q0 53 -40.5 84t-113.5 34v16q64 11 101 37.5t37 64.5q0 30 -20.5 47t-55.5 17q-32 0 -60 -13.5t-47 -41.5l-14 9q24 44 61 66t84 22
q50 0 83 -25t33 -63t-33 -67t-95 -46q68 -9 107.5 -41z" />
    <glyph glyph-name="acute" unicode="&#xb4;" horiz-adv-x="174" 
d="M0 590l51 149h123l-143 -149h-31z" />
    <glyph glyph-name="paragraph" unicode="&#xb6;" horiz-adv-x="556" 
d="M531 679l-32 -2q-33 -2 -51 -20t-18 -49v-739h-41v812h-68v-812h-40v474h-28q-71 0 -119 24.5t-71 64.5t-23 88q0 46 22 87t69.5 67t118.5 26h281v-21zM281 683q-70 -3 -107 -46t-37 -112q0 -72 37.5 -117t106.5 -47v322z" />
    <glyph glyph-name="periodcentered" unicode="&#xb7;" horiz-adv-x="246" 
d="M74 309.5q-19 18.5 -19 46.5q0 26 19 45t49 19q31 0 49.5 -18.5t18.5 -45.5q0 -28 -18.5 -46.5t-49.5 -18.5q-30 0 -49 18.5z" />
    <glyph glyph-name="cedilla" unicode="&#xb8;" horiz-adv-x="198" 
d="M170 -83q28 -20 28 -52q0 -33 -26.5 -55.5t-67.5 -22.5q-56 0 -104 43l16 25q17 -11 39 -17t41 -6q20 0 33 8.5t13 25.5q0 44 -89 43l14 92h23v-64q52 0 80 -20z" />
    <glyph glyph-name="uni00B9" unicode="&#xb9;" horiz-adv-x="340" 
d="M281 281v-17h-225v17l48 2q15 1 24.5 12t9.5 28v327q-14 -9 -38.5 -15t-47.5 -8v18q73 0 120 49h27v-371q0 -18 9.5 -28.5t24.5 -11.5z" />
    <glyph glyph-name="ordmasculine" unicode="&#xba;" horiz-adv-x="420" 
d="M304 678.5q41 -24.5 63.5 -68.5t22.5 -101t-22.5 -101t-64 -68.5t-94.5 -24.5q-81 0 -130 53t-49 139q0 57 22.5 101.5t63.5 69.5t94 25t94 -24.5zM285 372.5q24 42.5 24 122.5q0 89 -29 141t-77 52q-43 0 -67 -43t-24 -122q0 -88 28.5 -140.5t76.5 -52.5q44 0 68 42.5z
" />
    <glyph glyph-name="guillemotright" unicode="&#xbb;" horiz-adv-x="456" 
d="M29 466l20 15l166 -171v-50l-166 -170l-20 15l92 180zM245 466l20 15l166 -171v-50l-166 -170l-20 15l92 180z" />
    <glyph glyph-name="onequarter" unicode="&#xbc;" horiz-adv-x="942" 
d="M810 112v-117h-61v117h-198v44l207 266h52v-257h72v-53h-72zM749 375l-161 -210h161v210zM278 0h-59l445 700h58zM289 280v-17h-225v17l48 2q15 1 24.5 12t9.5 28v327q-14 -9 -38.5 -15t-47.5 -8v18q73 0 120 49h27v-371q0 -18 9.5 -28.5t24.5 -11.5z" />
    <glyph glyph-name="onehalf" unicode="&#xbd;" horiz-adv-x="941" 
d="M881 57v-61h-296v24l25 24l15 14q61 56 94 90.5t54 72t21 77.5q0 41 -23.5 66t-60.5 25q-32 0 -59.5 -19.5t-46.5 -55.5l-14 7q19 52 57.5 81.5t88.5 29.5q55 0 89 -32t34 -82q0 -39 -21 -74.5t-50.5 -64.5t-76.5 -69l-28 -24l-35 -29h233zM278 0h-59l445 700h58z
M289 280v-17h-225v17l48 2q15 1 24.5 12t9.5 28v327q-14 -9 -38.5 -15t-47.5 -8v18q73 0 120 49h27v-371q0 -18 9.5 -28.5t24.5 -11.5z" />
    <glyph glyph-name="threequarters" unicode="&#xbe;" horiz-adv-x="976" 
d="M321.5 458q39.5 -32 39.5 -79q0 -55 -39 -88.5t-103 -33.5q-63 0 -107 33.5t-52 88.5h80q2 -50 23 -77.5t58 -27.5q35 0 54 22t19 62q0 53 -40.5 84t-113.5 34v16q64 11 101 37.5t37 64.5q0 30 -20.5 47t-55.5 17q-32 0 -60 -13.5t-47 -41.5l-14 9q24 44 61 66t84 22
q50 0 83 -25t33 -63t-33 -67t-95 -46q68 -9 107.5 -41zM337 0h-59l445 700h58zM844 112v-117h-61v117h-198v44l207 266h52v-257h72v-53h-72zM783 375l-161 -210h161v210z" />
    <glyph glyph-name="questiondown" unicode="&#xbf;" horiz-adv-x="398" 
d="M295 473.5q19 -18.5 19 -46.5q0 -26 -19 -45t-49 -19t-49 19t-19 45q0 28 18.5 46.5t49.5 18.5q30 0 49 -18.5zM188.5 -191.5q-69.5 39.5 -106.5 91.5t-37 110q0 39 15.5 63.5t38.5 37.5t59 27q34 13 51.5 22t30 25t12.5 40q0 20 -11 55h21q41 -61 41 -106
q0 -43 -31.5 -68t-85.5 -45q-5 -2 -11 -3.5t-12 -4.5q-49 -16 -72.5 -30.5t-23.5 -38.5q0 -50 91 -80t195 -42v-113q-95 20 -164.5 59.5z" />
    <glyph glyph-name="Agrave" unicode="&#xc0;" horiz-adv-x="744" 
d="M676 45q24 -20 58 -24v-21h-291v21q41 0 65 17.5t24 47.5q0 14 -8 32l-52 126h-272l-49 -119q-9 -21 -9 -38q0 -32 26.5 -48.5t73.5 -17.5v-21h-232v21q39 6 62 28t41 63l248 588h21l256 -604q14 -31 38 -51zM462 266l-128 306l-125 -306h253zM201 925h123l51 -149h-31z
" />
    <glyph glyph-name="Aacute" unicode="&#xc1;" horiz-adv-x="744" 
d="M676 45q24 -20 58 -24v-21h-291v21q41 0 65 17.5t24 47.5q0 14 -8 32l-52 126h-272l-49 -119q-9 -21 -9 -38q0 -32 26.5 -48.5t73.5 -17.5v-21h-232v21q39 6 62 28t41 63l248 588h21l256 -604q14 -31 38 -51zM462 266l-128 306l-125 -306h253zM359 776l51 149h123
l-143 -149h-31z" />
    <glyph glyph-name="Acircumflex" unicode="&#xc2;" horiz-adv-x="744" 
d="M676 45q24 -20 58 -24v-21h-291v21q41 0 65 17.5t24 47.5q0 14 -8 32l-52 126h-272l-49 -119q-9 -21 -9 -38q0 -32 26.5 -48.5t73.5 -17.5v-21h-232v21q39 6 62 28t41 63l248 588h21l256 -604q14 -31 38 -51zM462 266l-128 306l-125 -306h253zM372 867l-123 -91h-31
l128 162h52l128 -162h-31z" />
    <glyph glyph-name="Atilde" unicode="&#xc3;" horiz-adv-x="744" 
d="M504 810q-26 -35 -64 -35q-19 0 -35 7.5t-40 23.5q-22 14 -35.5 21t-28.5 7q-20 0 -38 -13.5t-26 -40.5h-17q4 58 29.5 91.5t63.5 33.5q19 0 36.5 -8t39.5 -24q22 -15 35 -21.5t28 -6.5q21 0 39.5 14.5t21.5 46.5h17q0 -61 -26 -96zM676 45q24 -20 58 -24v-21h-291v21
q41 0 65 17.5t24 47.5q0 14 -8 32l-52 126h-272l-49 -119q-9 -21 -9 -38q0 -32 26.5 -48.5t73.5 -17.5v-21h-232v21q39 6 62 28t41 63l248 588h21l256 -604q14 -31 38 -51zM462 266l-128 306l-125 -306h253z" />
    <glyph glyph-name="Adieresis" unicode="&#xc4;" horiz-adv-x="744" 
d="M231 872q15 15 40 15q24 0 38.5 -15t14.5 -40t-14.5 -40.5t-38.5 -15.5q-25 0 -40 15.5t-15 40.5t15 40zM434.5 872q14.5 15 38.5 15q25 0 40 -15t15 -40t-15 -40.5t-40 -15.5q-24 0 -38.5 15t-14.5 41q0 25 14.5 40zM676 45q24 -20 58 -24v-21h-291v21q41 0 65 17.5
t24 47.5q0 14 -8 32l-52 126h-272l-49 -119q-9 -21 -9 -38q0 -32 26.5 -48.5t73.5 -17.5v-21h-232v21q39 6 62 28t41 63l248 588h21l256 -604q14 -31 38 -51zM462 266l-128 306l-125 -306h253z" />
    <glyph glyph-name="Aring" unicode="&#xc5;" horiz-adv-x="744" 
d="M305 923q27 26 67 26t67 -26t27 -67t-27 -68.5t-67 -27.5t-67 27.5t-27 68.5t27 67zM412.5 897.5q-16.5 16.5 -40.5 16.5q-25 0 -41 -16.5t-16 -41.5q0 -26 16 -43.5t41 -17.5q24 0 40.5 17.5t16.5 43.5q0 25 -16.5 41.5zM676 45q24 -20 58 -24v-21h-291v21q41 0 65 17.5
t24 47.5q0 14 -8 32l-52 126h-272l-49 -119q-9 -21 -9 -38q0 -32 26.5 -48.5t73.5 -17.5v-21h-232v21q39 6 62 28t41 63l248 588h21l256 -604q14 -31 38 -51zM462 266l-128 306l-125 -306h253z" />
    <glyph glyph-name="AE" unicode="&#xc6;" horiz-adv-x="1010" 
d="M965 235l-26 -235h-556v21l33 2q33 2 51 20t18 49v159h-242l-91 -150q-13 -21 -13 -37q0 -43 91 -43v-21h-220v21q32 4 57 23t47 54l300 485q18 29 18 51q0 18 -15 30t-48 13l-41 2v21h605v-199h-20q-14 85 -57 132.5t-126 47.5h-148v-314h105q60 0 83 26.5t29 88.5h23
v-253h-23q-6 63 -29.5 90.5t-82.5 27.5h-105v-250q0 -35 21.5 -56t57.5 -21h71q163 0 210 215h23zM485 273v379l-229 -379h229z" />
    <glyph glyph-name="Ccedilla" unicode="&#xc7;" horiz-adv-x="694" 
d="M545 111.5q60 48.5 80 136.5h22q-16 -125 -91.5 -195.5t-196.5 -70.5h-1v-45q52 0 80 -20t28 -52q0 -33 -26.5 -55.5t-67.5 -22.5q-56 0 -104 43l16 25q17 -11 39 -17t41 -6q20 0 33 8.5t13 25.5q0 44 -89 43l11 74q-87 6 -153 51t-102.5 121t-36.5 172q0 108 43.5 197
t123 141t183.5 52q109 0 179 -60.5t80 -177.5h-122q-7 103 -51.5 160.5t-113.5 57.5q-64 0 -115 -41.5t-79.5 -114t-28.5 -160.5q0 -94 32.5 -166t91 -112t133.5 -40q89 0 149 48.5z" />
    <glyph glyph-name="Egrave" unicode="&#xc8;" horiz-adv-x="652" 
d="M607 235l-26 -235h-556v21l33 2q33 2 51 20t18 49v516q0 31 -18.5 49t-51.5 20l-32 2v21h550v-199h-20q-14 85 -57 132.5t-126 47.5h-148v-314h105q60 0 83 26.5t29 88.5h23v-253h-23q-6 63 -29.5 90.5t-82.5 27.5h-105v-250q0 -35 21.5 -56t57.5 -21h71q163 0 210 215
h23zM193 925h123l51 -149h-31z" />
    <glyph glyph-name="Eacute" unicode="&#xc9;" horiz-adv-x="652" 
d="M303 776l51 149h123l-143 -149h-31zM607 235l-26 -235h-556v21l33 2q33 2 51 20t18 49v516q0 31 -18.5 49t-51.5 20l-32 2v21h550v-199h-20q-14 85 -57 132.5t-126 47.5h-148v-314h105q60 0 83 26.5t29 88.5h23v-253h-23q-6 63 -29.5 90.5t-82.5 27.5h-105v-250
q0 -35 21.5 -56t57.5 -21h71q163 0 210 215h23z" />
    <glyph glyph-name="Ecircumflex" unicode="&#xca;" horiz-adv-x="652" 
d="M607 235l-26 -235h-556v21l33 2q33 2 51 20t18 49v516q0 31 -18.5 49t-51.5 20l-32 2v21h550v-199h-20q-14 85 -57 132.5t-126 47.5h-148v-314h105q60 0 83 26.5t29 88.5h23v-253h-23q-6 63 -29.5 90.5t-82.5 27.5h-105v-250q0 -35 21.5 -56t57.5 -21h71q163 0 210 215
h23zM334 867l-123 -91h-31l128 162h52l128 -162h-31z" />
    <glyph glyph-name="Edieresis" unicode="&#xcb;" horiz-adv-x="652" 
d="M607 235l-26 -235h-556v21l33 2q33 2 51 20t18 49v516q0 31 -18.5 49t-51.5 20l-32 2v21h550v-199h-20q-14 85 -57 132.5t-126 47.5h-148v-314h105q60 0 83 26.5t29 88.5h23v-253h-23q-6 63 -29.5 90.5t-82.5 27.5h-105v-250q0 -35 21.5 -56t57.5 -21h71q163 0 210 215
h23zM197 872q15 15 40 15q24 0 38.5 -15t14.5 -40t-14.5 -40.5t-38.5 -15.5q-25 0 -40 15.5t-15 40.5t15 40zM400.5 872q14.5 15 38.5 15q25 0 40 -15t15 -40t-15 -40.5t-40 -15.5q-24 0 -38.5 15t-14.5 41q0 25 14.5 40z" />
    <glyph glyph-name="Igrave" unicode="&#xcc;" horiz-adv-x="371" 
d="M252.5 43q18.5 -18 50.5 -20l43 -2v-21h-321v21l43 2q32 2 50.5 20t18.5 49v516q0 31 -18.5 49t-51.5 20l-42 2v21h321v-21l-42 -2q-33 -2 -51.5 -20t-18.5 -49v-516q0 -31 18.5 -49zM25 925h123l51 -149h-31z" />
    <glyph glyph-name="Iacute" unicode="&#xcd;" horiz-adv-x="371" 
d="M172 776l51 149h123l-143 -149h-31zM252.5 43q18.5 -18 50.5 -20l43 -2v-21h-321v21l43 2q32 2 50.5 20t18.5 49v516q0 31 -18.5 49t-51.5 20l-42 2v21h321v-21l-42 -2q-33 -2 -51.5 -20t-18.5 -49v-516q0 -31 18.5 -49z" />
    <glyph glyph-name="Icircumflex" unicode="&#xce;" horiz-adv-x="371" 
d="M252.5 43q18.5 -18 50.5 -20l43 -2v-21h-321v21l43 2q32 2 50.5 20t18.5 49v516q0 31 -18.5 49t-51.5 20l-42 2v21h321v-21l-42 -2q-33 -2 -51.5 -20t-18.5 -49v-516q0 -31 18.5 -49zM186 867l-123 -91h-31l128 162h52l128 -162h-31z" />
    <glyph glyph-name="Idieresis" unicode="&#xcf;" horiz-adv-x="371" 
d="M252.5 43q18.5 -18 50.5 -20l43 -2v-21h-321v21l43 2q32 2 50.5 20t18.5 49v516q0 31 -18.5 49t-51.5 20l-42 2v21h321v-21l-42 -2q-33 -2 -51.5 -20t-18.5 -49v-516q0 -31 18.5 -49zM45 872q15 15 40 15q24 0 38.5 -15t14.5 -40t-14.5 -40.5t-38.5 -15.5q-25 0 -40 15.5
t-15 40.5t15 40zM248.5 872q14.5 15 38.5 15q25 0 40 -15t15 -40t-15 -40.5t-40 -15.5q-24 0 -38.5 15t-14.5 41q0 25 14.5 40z" />
    <glyph glyph-name="Eth" unicode="&#xd0;" horiz-adv-x="744" 
d="M527 659q84 -41 130.5 -115t46.5 -169q0 -97 -48 -183.5t-138 -139t-210 -52.5h-283v21l33 2q33 2 51 20t18 49v236h-102v45h102v235q0 31 -18.5 49t-51.5 20l-32 2v21h309q109 0 193 -41zM461 65q61 45 95 121.5t34 168.5q0 94 -35.5 168t-98.5 116t-144 42h-88v-308
h155v-45h-155v-231q0 -35 21 -56t56 -21h23q76 0 137 45z" />
    <glyph glyph-name="Ntilde" unicode="&#xd1;" horiz-adv-x="797" 
d="M782 700v-21l-36 -2q-33 -1 -54.5 -26.5t-21.5 -62.5v-588h-32l-456 588v-476q0 -35 22 -61t52 -28l51 -2v-21h-267v21l37 2q32 1 53.5 27t21.5 62v499l-15 19q-20 26 -45 36.5t-67 12.5v21h195l419 -549v437q0 36 -21.5 61.5t-52.5 27.5l-52 2v21h269zM540 810
q-26 -35 -64 -35q-19 0 -35 7.5t-40 23.5q-22 14 -35.5 21t-28.5 7q-20 0 -38 -13.5t-26 -40.5h-17q4 58 29.5 91.5t63.5 33.5q19 0 36.5 -8t39.5 -24q22 -15 35 -21.5t28 -6.5q21 0 39.5 14.5t21.5 46.5h17q0 -61 -26 -96z" />
    <glyph glyph-name="Ograve" unicode="&#xd2;" horiz-adv-x="759" 
d="M207 30q-78 48 -122.5 132.5t-44.5 189.5q0 104 44 187.5t121.5 130.5t172.5 47q96 0 174 -48t122.5 -132.5t44.5 -189.5q0 -104 -44 -187.5t-121.5 -130.5t-172.5 -47q-96 0 -174 48zM512 41q45 39 70 108.5t25 158.5q0 105 -34 194.5t-92.5 142t-127.5 52.5
q-59 0 -104 -39t-70 -109t-25 -159q0 -105 34 -194.5t92 -141.5t127 -52q60 0 105 39zM222 925h123l51 -149h-31z" />
    <glyph glyph-name="Oacute" unicode="&#xd3;" horiz-adv-x="759" 
d="M362 776l51 149h123l-143 -149h-31zM207 30q-78 48 -122.5 132.5t-44.5 189.5q0 104 44 187.5t121.5 130.5t172.5 47q96 0 174 -48t122.5 -132.5t44.5 -189.5q0 -104 -44 -187.5t-121.5 -130.5t-172.5 -47q-96 0 -174 48zM512 41q45 39 70 108.5t25 158.5
q0 105 -34 194.5t-92.5 142t-127.5 52.5q-59 0 -104 -39t-70 -109t-25 -159q0 -105 34 -194.5t92 -141.5t127 -52q60 0 105 39z" />
    <glyph glyph-name="Ocircumflex" unicode="&#xd4;" horiz-adv-x="759" 
d="M207 30q-78 48 -122.5 132.5t-44.5 189.5q0 104 44 187.5t121.5 130.5t172.5 47q96 0 174 -48t122.5 -132.5t44.5 -189.5q0 -104 -44 -187.5t-121.5 -130.5t-172.5 -47q-96 0 -174 48zM512 41q45 39 70 108.5t25 158.5q0 105 -34 194.5t-92.5 142t-127.5 52.5
q-59 0 -104 -39t-70 -109t-25 -159q0 -105 34 -194.5t92 -141.5t127 -52q60 0 105 39zM380 867l-123 -91h-31l128 162h52l128 -162h-31z" />
    <glyph glyph-name="Otilde" unicode="&#xd5;" horiz-adv-x="759" 
d="M207 30q-78 48 -122.5 132.5t-44.5 189.5q0 104 44 187.5t121.5 130.5t172.5 47q96 0 174 -48t122.5 -132.5t44.5 -189.5q0 -104 -44 -187.5t-121.5 -130.5t-172.5 -47q-96 0 -174 48zM512 41q45 39 70 108.5t25 158.5q0 105 -34 194.5t-92.5 142t-127.5 52.5
q-59 0 -104 -39t-70 -109t-25 -159q0 -105 34 -194.5t92 -141.5t127 -52q60 0 105 39zM502 810q-26 -35 -64 -35q-19 0 -35 7.5t-40 23.5q-22 14 -35.5 21t-28.5 7q-20 0 -38 -13.5t-26 -40.5h-17q4 58 29.5 91.5t63.5 33.5q19 0 36.5 -8t39.5 -24q22 -15 35 -21.5t28 -6.5
q21 0 39.5 14.5t21.5 46.5h17q0 -61 -26 -96z" />
    <glyph glyph-name="Odieresis" unicode="&#xd6;" horiz-adv-x="759" 
d="M207 30q-78 48 -122.5 132.5t-44.5 189.5q0 104 44 187.5t121.5 130.5t172.5 47q96 0 174 -48t122.5 -132.5t44.5 -189.5q0 -104 -44 -187.5t-121.5 -130.5t-172.5 -47q-96 0 -174 48zM512 41q45 39 70 108.5t25 158.5q0 105 -34 194.5t-92.5 142t-127.5 52.5
q-59 0 -104 -39t-70 -109t-25 -159q0 -105 34 -194.5t92 -141.5t127 -52q60 0 105 39zM239 872q15 15 40 15q24 0 38.5 -15t14.5 -40t-14.5 -40.5t-38.5 -15.5q-25 0 -40 15.5t-15 40.5t15 40zM442.5 872q14.5 15 38.5 15q25 0 40 -15t15 -40t-15 -40.5t-40 -15.5
q-24 0 -38.5 15t-14.5 41q0 25 14.5 40z" />
    <glyph glyph-name="multiply" unicode="&#xd7;" 
d="M474 399l-125 -125l133 -133l-40 -39l-132 132l-127 -126l-39 38l127 127l-133 133l39 40l133 -133l126 125z" />
    <glyph glyph-name="Oslash" unicode="&#xd8;" horiz-adv-x="759" 
d="M692.5 496.5q26.5 -69.5 26.5 -149.5q0 -104 -44 -187.5t-121.5 -130.5t-172.5 -47q-116 0 -204 69l-61 -78l-39 31l63 81q-47 50 -73.5 118.5t-26.5 148.5q0 104 44 187.5t121.5 130.5t172.5 47q115 0 202 -67l62 79l40 -31l-64 -82q48 -50 74.5 -119.5zM201 163
l330 423q-35 53 -81 82t-97 29q-59 0 -104 -39t-70 -109t-25 -159q0 -127 47 -227zM512 41q45 39 70 108.5t25 158.5q0 128 -49 231l-330 -423q35 -54 81 -84t98 -30q60 0 105 39z" />
    <glyph glyph-name="Ugrave" unicode="&#xd9;" horiz-adv-x="800" 
d="M780 700v-22l-37 -2q-32 -2 -54 -27t-22 -61v-353q0 -79 -33 -136t-92.5 -87t-137.5 -30q-82 0 -146 33t-100 94.5t-36 143.5v355q0 31 -18.5 49t-51.5 20l-32 2v21h301v-21l-32 -2q-33 -2 -51.5 -20t-18.5 -49v-375q0 -100 56 -159.5t150 -59.5q62 0 110 26.5t75 75
t27 112.5v360q0 36 -21.5 61t-52.5 27l-50 2v22h267zM239 925h123l51 -149h-31z" />
    <glyph glyph-name="Uacute" unicode="&#xda;" horiz-adv-x="800" 
d="M393 776l51 149h123l-143 -149h-31zM780 700v-22l-37 -2q-32 -2 -54 -27t-22 -61v-353q0 -79 -33 -136t-92.5 -87t-137.5 -30q-82 0 -146 33t-100 94.5t-36 143.5v355q0 31 -18.5 49t-51.5 20l-32 2v21h301v-21l-32 -2q-33 -2 -51.5 -20t-18.5 -49v-375q0 -100 56 -159.5
t150 -59.5q62 0 110 26.5t75 75t27 112.5v360q0 36 -21.5 61t-52.5 27l-50 2v22h267z" />
    <glyph glyph-name="Ucircumflex" unicode="&#xdb;" horiz-adv-x="800" 
d="M780 700v-22l-37 -2q-32 -2 -54 -27t-22 -61v-353q0 -79 -33 -136t-92.5 -87t-137.5 -30q-82 0 -146 33t-100 94.5t-36 143.5v355q0 31 -18.5 49t-51.5 20l-32 2v21h301v-21l-32 -2q-33 -2 -51.5 -20t-18.5 -49v-375q0 -100 56 -159.5t150 -59.5q62 0 110 26.5t75 75
t27 112.5v360q0 36 -21.5 61t-52.5 27l-50 2v22h267zM400 867l-123 -91h-31l128 162h52l128 -162h-31z" />
    <glyph glyph-name="Udieresis" unicode="&#xdc;" horiz-adv-x="800" 
d="M780 700v-22l-37 -2q-32 -2 -54 -27t-22 -61v-353q0 -79 -33 -136t-92.5 -87t-137.5 -30q-82 0 -146 33t-100 94.5t-36 143.5v355q0 31 -18.5 49t-51.5 20l-32 2v21h301v-21l-32 -2q-33 -2 -51.5 -20t-18.5 -49v-375q0 -100 56 -159.5t150 -59.5q62 0 110 26.5t75 75
t27 112.5v360q0 36 -21.5 61t-52.5 27l-50 2v22h267zM259 872q15 15 40 15q24 0 38.5 -15t14.5 -40t-14.5 -40.5t-38.5 -15.5q-25 0 -40 15.5t-15 40.5t15 40zM462.5 872q14.5 15 38.5 15q25 0 40 -15t15 -40t-15 -40.5t-40 -15.5q-24 0 -38.5 15t-14.5 41q0 25 14.5 40z
" />
    <glyph glyph-name="Yacute" unicode="&#xdd;" horiz-adv-x="663" 
d="M333 776l51 149h123l-143 -149h-31zM658 700v-23q-43 -7 -67.5 -29.5t-51.5 -67.5l-157 -265v-223q0 -31 18.5 -49t50.5 -20l43 -2v-21h-321v21l43 2q32 2 50.5 20t18.5 49v181l-196 335q-37 63 -84 70v22h270v-21q-35 -1 -54 -17t-19 -40q0 -17 10 -34l150 -262l137 245
q16 28 16 50q0 27 -24 42t-68 16v21h235z" />
    <glyph glyph-name="Thorn" unicode="&#xde;" horiz-adv-x="633" 
d="M224 98q0 -32 19 -53t50 -22l43 -2v-21h-311v21l33 2q33 2 51 20t18 49v516q0 31 -18.5 49t-51.5 20l-32 2v21h301v-21l-32 -2q-33 -2 -51.5 -20t-18.5 -49v-38h137q74 0 126.5 -24.5t79 -65.5t26.5 -89q0 -53 -31.5 -101.5t-92 -79t-144.5 -30.5h-101v-82zM224 551v-352
h78q57 0 97.5 25.5t61 66.5t20.5 87q0 45 -20.5 85t-61 64t-97.5 24h-78z" />
    <glyph glyph-name="germandbls" unicode="&#xdf;" horiz-adv-x="611" 
d="M347 360q21 -15 67 -37q51 -24 84.5 -45.5t58 -56.5t24.5 -84q0 -70 -48.5 -109t-119.5 -39q-58 0 -101.5 26t-66.5 72h101q10 -39 31 -62t52 -23q34 0 60.5 25.5t26.5 68.5q0 33 -16 56.5t-39 38.5t-63 36q-38 19 -60.5 33.5t-37.5 36t-15 51.5q0 32 16.5 52.5
t49.5 44.5q27 21 43 36.5t27.5 40.5t11.5 60q0 61 -34 91.5t-85 30.5q-55 0 -90.5 -38t-35.5 -128v-538h-174v18l19 1q29 2 46.5 18t17.5 49v435q0 96 59 146t164 50q89 0 151.5 -34.5t62.5 -103.5q0 -38 -19 -62.5t-45.5 -38.5t-67.5 -29q-39 -14 -57.5 -25.5t-18.5 -29.5
q0 -19 21 -34z" />
    <glyph glyph-name="agrave" unicode="&#xe0;" horiz-adv-x="534" 
d="M524 33v-18q-40 -26 -85 -26q-78 0 -86 99q-42 -52 -91.5 -75.5t-96.5 -23.5q-60 0 -95 35.5t-35 92.5q0 46 23 74.5t56 43t87 29.5l45 14q58 19 89 46t31 78q0 46 -26.5 72t-71.5 26q-52 0 -83.5 -40t-38.5 -118h-103q12 84 71.5 127.5t152.5 43.5q84 0 127.5 -38
t43.5 -109v-264q0 -77 51 -77q19 0 35 8zM346 308q-18 -17 -39.5 -27t-54.5 -20q-6 -2 -43.5 -13.5t-55.5 -36t-18 -63.5q0 -50 24.5 -80.5t67.5 -30.5q34 0 67.5 18.5t51.5 46.5v206zM118 739h123l51 -149h-31z" />
    <glyph glyph-name="aacute" unicode="&#xe1;" horiz-adv-x="534" 
d="M524 33v-18q-40 -26 -85 -26q-78 0 -86 99q-42 -52 -91.5 -75.5t-96.5 -23.5q-60 0 -95 35.5t-35 92.5q0 46 23 74.5t56 43t87 29.5l45 14q58 19 89 46t31 78q0 46 -26.5 72t-71.5 26q-52 0 -83.5 -40t-38.5 -118h-103q12 84 71.5 127.5t152.5 43.5q84 0 127.5 -38
t43.5 -109v-264q0 -77 51 -77q19 0 35 8zM346 308q-18 -17 -39.5 -27t-54.5 -20q-6 -2 -43.5 -13.5t-55.5 -36t-18 -63.5q0 -50 24.5 -80.5t67.5 -30.5q34 0 67.5 18.5t51.5 46.5v206zM244 590l51 149h123l-143 -149h-31z" />
    <glyph glyph-name="acircumflex" unicode="&#xe2;" horiz-adv-x="534" 
d="M524 33v-18q-40 -26 -85 -26q-78 0 -86 99q-42 -52 -91.5 -75.5t-96.5 -23.5q-60 0 -95 35.5t-35 92.5q0 46 23 74.5t56 43t87 29.5l45 14q58 19 89 46t31 78q0 46 -26.5 72t-71.5 26q-52 0 -83.5 -40t-38.5 -118h-103q12 84 71.5 127.5t152.5 43.5q84 0 127.5 -38
t43.5 -109v-264q0 -77 51 -77q19 0 35 8zM346 308q-18 -17 -39.5 -27t-54.5 -20q-6 -2 -43.5 -13.5t-55.5 -36t-18 -63.5q0 -50 24.5 -80.5t67.5 -30.5q34 0 67.5 18.5t51.5 46.5v206zM259 681l-123 -91h-31l128 162h52l128 -162h-31z" />
    <glyph glyph-name="atilde" unicode="&#xe3;" horiz-adv-x="534" 
d="M524 33v-18q-40 -26 -85 -26q-78 0 -86 99q-42 -52 -91.5 -75.5t-96.5 -23.5q-60 0 -95 35.5t-35 92.5q0 46 23 74.5t56 43t87 29.5l45 14q58 19 89 46t31 78q0 46 -26.5 72t-71.5 26q-52 0 -83.5 -40t-38.5 -118h-103q12 84 71.5 127.5t152.5 43.5q84 0 127.5 -38
t43.5 -109v-264q0 -77 51 -77q19 0 35 8zM346 308q-18 -17 -39.5 -27t-54.5 -20q-6 -2 -43.5 -13.5t-55.5 -36t-18 -63.5q0 -50 24.5 -80.5t67.5 -30.5q34 0 67.5 18.5t51.5 46.5v206zM394 625q-26 -35 -64 -35q-19 0 -35 7.5t-40 23.5q-22 15 -35.5 21.5t-28.5 6.5
q-20 0 -38 -13.5t-26 -40.5h-17q4 58 29.5 91.5t63.5 33.5q19 0 36.5 -8t39.5 -24q22 -15 35 -21.5t28 -6.5q21 0 39.5 14.5t21.5 46.5h17q0 -61 -26 -96z" />
    <glyph glyph-name="adieresis" unicode="&#xe4;" horiz-adv-x="534" 
d="M524 33v-18q-40 -26 -85 -26q-78 0 -86 99q-42 -52 -91.5 -75.5t-96.5 -23.5q-60 0 -95 35.5t-35 92.5q0 46 23 74.5t56 43t87 29.5l45 14q58 19 89 46t31 78q0 46 -26.5 72t-71.5 26q-52 0 -83.5 -40t-38.5 -118h-103q12 84 71.5 127.5t152.5 43.5q84 0 127.5 -38
t43.5 -109v-264q0 -77 51 -77q19 0 35 8zM346 308q-18 -17 -39.5 -27t-54.5 -20q-6 -2 -43.5 -13.5t-55.5 -36t-18 -63.5q0 -50 24.5 -80.5t67.5 -30.5q34 0 67.5 18.5t51.5 46.5v206zM128 707q15 15 40 15q24 0 38.5 -15t14.5 -40q0 -26 -14.5 -41.5t-38.5 -15.5
q-25 0 -40 15.5t-15 41.5q0 25 15 40zM320 707q15 15 39 15q25 0 40 -15t15 -40q0 -26 -15 -41.5t-40 -15.5q-24 0 -39 15.5t-15 41.5q0 25 15 40z" />
    <glyph glyph-name="aring" unicode="&#xe5;" horiz-adv-x="534" 
d="M524 33v-18q-40 -26 -85 -26q-78 0 -86 99q-42 -52 -91.5 -75.5t-96.5 -23.5q-60 0 -95 35.5t-35 92.5q0 46 23 74.5t56 43t87 29.5l45 14q58 19 89 46t31 78q0 46 -26.5 72t-71.5 26q-52 0 -83.5 -40t-38.5 -118h-103q12 84 71.5 127.5t152.5 43.5q84 0 127.5 -38
t43.5 -109v-264q0 -77 51 -77q19 0 35 8zM346 308q-18 -17 -39.5 -27t-54.5 -20q-6 -2 -43.5 -13.5t-55.5 -36t-18 -63.5q0 -50 24.5 -80.5t67.5 -30.5q34 0 67.5 18.5t51.5 46.5v206zM190.5 768q29.5 29 73.5 29q43 0 73 -29t30 -74t-29.5 -74.5t-73.5 -29.5t-73.5 29.5
t-29.5 74.5t29.5 74zM310 741.5q-19 19.5 -46 19.5q-28 0 -46.5 -19.5t-18.5 -47.5t19 -48t46 -20t46 20t19 48t-19 47.5z" />
    <glyph glyph-name="ae" unicode="&#xe6;" horiz-adv-x="803" 
d="M688 90.5q40 21.5 60 64.5h17q-20 -77 -72.5 -121.5t-128.5 -44.5q-65 0 -115 32t-77 90q-45 -66 -100 -94t-107 -28q-60 0 -95 35.5t-35 92.5q0 47 23 75.5t56.5 43t89.5 30.5l42 12q58 19 89 46t31 78q0 46 -26.5 72t-71.5 26q-52 0 -83.5 -40t-38.5 -118h-103
q12 84 71.5 127.5t152.5 43.5q64 0 100 -24t50 -72q29 46 73.5 71t101.5 25q87 0 133 -58.5t48 -163.5h-339q-1 -6 -1 -14q1 -98 45 -153t122 -55q48 0 88 21.5zM505 476.5q-29 -23.5 -47.5 -67t-22.5 -99.5h234v14q0 80 -26 128t-75 48q-34 0 -63 -23.5zM305 63.5
q41 26.5 61 61.5q-20 49 -20 112v71q-17 -17 -37.5 -26t-56.5 -21q-8 -3 -45 -14.5t-54.5 -35.5t-17.5 -63q0 -50 24 -80.5t66 -30.5q39 0 80 26.5z" />
    <glyph glyph-name="ccedilla" unicode="&#xe7;" horiz-adv-x="478" 
d="M371.5 90.5q39.5 21.5 60.5 64.5h16q-19 -76 -70.5 -120.5t-126.5 -45.5v-52q52 0 80 -20t28 -52q0 -33 -26.5 -55.5t-67.5 -22.5q-56 0 -104 43l16 25q17 -11 39 -17t41 -6q20 0 33 8.5t13 25.5q0 44 -89 43l12 81q-58 5 -102.5 36.5t-69 85t-24.5 121.5q0 79 32 143
t87 100.5t123 36.5q74 0 123 -44t58 -127h-103q0 74 -25.5 116t-72.5 42q-38 0 -69 -28.5t-48.5 -79t-17.5 -113.5q0 -101 44.5 -155.5t122.5 -54.5q48 0 87.5 21.5z" />
    <glyph glyph-name="egrave" unicode="&#xe8;" horiz-adv-x="487" 
d="M135 19.5q-50 30.5 -77.5 86.5t-27.5 128q0 79 32 142.5t88 100t126 36.5q87 0 133 -58.5t48 -163.5h-339q-1 -7 -1 -16q0 -97 44.5 -151.5t122.5 -54.5q48 0 87.5 21.5t60.5 64.5h16q-19 -77 -71.5 -121.5t-128.5 -44.5q-63 0 -113 30.5zM353 310v14q0 80 -26 128
t-75 48q-34 0 -63 -23.5t-48 -67t-23 -99.5h235zM123 739h123l51 -149h-31z" />
    <glyph glyph-name="eacute" unicode="&#xe9;" horiz-adv-x="487" 
d="M240 590l51 149h123l-143 -149h-31zM135 19.5q-50 30.5 -77.5 86.5t-27.5 128q0 79 32 142.5t88 100t126 36.5q87 0 133 -58.5t48 -163.5h-339q-1 -7 -1 -16q0 -97 44.5 -151.5t122.5 -54.5q48 0 87.5 21.5t60.5 64.5h16q-19 -77 -71.5 -121.5t-128.5 -44.5
q-63 0 -113 30.5zM353 310v14q0 80 -26 128t-75 48q-34 0 -63 -23.5t-48 -67t-23 -99.5h235z" />
    <glyph glyph-name="ecircumflex" unicode="&#xea;" horiz-adv-x="487" 
d="M135 19.5q-50 30.5 -77.5 86.5t-27.5 128q0 79 32 142.5t88 100t126 36.5q87 0 133 -58.5t48 -163.5h-339q-1 -7 -1 -16q0 -97 44.5 -151.5t122.5 -54.5q48 0 87.5 21.5t60.5 64.5h16q-19 -77 -71.5 -121.5t-128.5 -44.5q-63 0 -113 30.5zM353 310v14q0 80 -26 128
t-75 48q-34 0 -63 -23.5t-48 -67t-23 -99.5h235zM252 681l-123 -91h-31l128 162h52l128 -162h-31z" />
    <glyph glyph-name="edieresis" unicode="&#xeb;" horiz-adv-x="487" 
d="M135 19.5q-50 30.5 -77.5 86.5t-27.5 128q0 79 32 142.5t88 100t126 36.5q87 0 133 -58.5t48 -163.5h-339q-1 -7 -1 -16q0 -97 44.5 -151.5t122.5 -54.5q48 0 87.5 21.5t60.5 64.5h16q-19 -77 -71.5 -121.5t-128.5 -44.5q-63 0 -113 30.5zM353 310v14q0 80 -26 128
t-75 48q-34 0 -63 -23.5t-48 -67t-23 -99.5h235zM132 707q15 15 40 15q24 0 38.5 -15t14.5 -40q0 -26 -14.5 -41.5t-38.5 -15.5q-25 0 -40 15.5t-15 41.5q0 25 15 40zM324 707q15 15 39 15q25 0 40 -15t15 -40q0 -26 -15 -41.5t-40 -15.5q-24 0 -39 15.5t-15 41.5
q0 25 15 40z" />
    <glyph glyph-name="igrave" unicode="&#xec;" horiz-adv-x="292" 
d="M277 18v-18h-257v18l19 1q64 5 64 66v307q0 32 -17 48.5t-48 16.5h-14v20l170 36v-428q0 -30 16.5 -47t47.5 -19zM1 739h123l51 -149h-31z" />
    <glyph glyph-name="iacute" unicode="&#xed;" horiz-adv-x="292" 
d="M131 590l51 149h123l-143 -149h-31zM277 18v-18h-257v18l19 1q64 5 64 66v307q0 32 -17 48.5t-48 16.5h-14v20l170 36v-428q0 -30 16.5 -47t47.5 -19z" />
    <glyph glyph-name="icircumflex" unicode="&#xee;" horiz-adv-x="292" 
d="M277 18v-18h-257v18l19 1q64 5 64 66v307q0 32 -17 48.5t-48 16.5h-14v20l170 36v-428q0 -30 16.5 -47t47.5 -19zM137 681l-123 -91h-31l128 162h52l128 -162h-31z" />
    <glyph glyph-name="idieresis" unicode="&#xef;" horiz-adv-x="292" 
d="M277 18v-18h-257v18l19 1q64 5 64 66v307q0 32 -17 48.5t-48 16.5h-14v20l170 36v-428q0 -30 16.5 -47t47.5 -19zM7 707q15 15 40 15q24 0 38.5 -15t14.5 -40q0 -26 -14.5 -41.5t-38.5 -15.5q-25 0 -40 15.5t-15 41.5q0 25 15 40zM199 707q15 15 39 15q25 0 40 -15
t15 -40q0 -26 -15 -41.5t-40 -15.5q-24 0 -39 15.5t-15 41.5q0 25 15 40z" />
    <glyph glyph-name="eth" unicode="&#xf0;" horiz-adv-x="575" 
d="M493.5 460.5q41.5 -89.5 41.5 -184.5q0 -86 -33 -151t-93 -101t-140 -36q-71 0 -125.5 28.5t-84 79t-29.5 114.5q0 61 27 111t74.5 78.5t104.5 28.5t110.5 -26.5t85.5 -66.5q-7 71 -33 132t-67 107l-73 -61l-32 37l70 58q-79 65 -184 75v18q122 -1 222 -61l99 82v-64
l-58 -48q76 -60 117.5 -149.5zM349.5 42q39.5 35 62 97.5t22.5 141.5q0 32 -1 42q-32 27 -69.5 42t-74.5 15q-72 0 -116 -54t-44 -142q0 -79 36 -128t96 -49q49 0 88.5 35z" />
    <glyph glyph-name="ntilde" unicode="&#xf1;" horiz-adv-x="612" 
d="M602 18v-18h-252v18l18 1q61 3 61 67v244q0 66 -27 100t-79 34q-38 0 -74 -17.5t-60 -47.5v-313q0 -30 15.5 -48t45.5 -19l19 -1v-18h-254v18l19 1q29 2 46.5 18t17.5 49v307q0 32 -17 48.5t-48 16.5h-14v19l165 36v-100q29 44 81.5 72t108.5 28q69 0 107.5 -43.5
t38.5 -123.5v-260q0 -31 17 -48t47 -19zM445 625q-26 -35 -64 -35q-19 0 -35 7.5t-40 23.5q-22 15 -35.5 21.5t-28.5 6.5q-20 0 -38 -13.5t-26 -40.5h-17q4 58 29.5 91.5t63.5 33.5q19 0 36.5 -8t39.5 -24q22 -15 35 -21.5t28 -6.5q21 0 39.5 14.5t21.5 46.5h17
q0 -61 -26 -96z" />
    <glyph glyph-name="ograve" unicode="&#xf2;" horiz-adv-x="546" 
d="M399.5 479q55.5 -34 86 -93.5t30.5 -134.5q0 -74 -31 -134t-86.5 -94t-126.5 -34t-126 33.5t-85.5 93t-30.5 133.5q0 75 31 135t86.5 94.5t125.5 34.5q71 0 126.5 -34zM383.5 54.5q31.5 52.5 31.5 149.5q0 88 -20.5 155t-57 104t-84.5 37q-57 0 -89 -53t-32 -149
q0 -87 20.5 -154t57.5 -104.5t84 -37.5q58 0 89.5 52.5zM112 739h123l51 -149h-31z" />
    <glyph glyph-name="oacute" unicode="&#xf3;" horiz-adv-x="546" 
d="M245 590l51 149h123l-143 -149h-31zM399.5 479q55.5 -34 86 -93.5t30.5 -134.5q0 -74 -31 -134t-86.5 -94t-126.5 -34t-126 33.5t-85.5 93t-30.5 133.5q0 75 31 135t86.5 94.5t125.5 34.5q71 0 126.5 -34zM383.5 54.5q31.5 52.5 31.5 149.5q0 88 -20.5 155t-57 104
t-84.5 37q-57 0 -89 -53t-32 -149q0 -87 20.5 -154t57.5 -104.5t84 -37.5q58 0 89.5 52.5z" />
    <glyph glyph-name="ocircumflex" unicode="&#xf4;" horiz-adv-x="546" 
d="M399.5 479q55.5 -34 86 -93.5t30.5 -134.5q0 -74 -31 -134t-86.5 -94t-126.5 -34t-126 33.5t-85.5 93t-30.5 133.5q0 75 31 135t86.5 94.5t125.5 34.5q71 0 126.5 -34zM383.5 54.5q31.5 52.5 31.5 149.5q0 88 -20.5 155t-57 104t-84.5 37q-57 0 -89 -53t-32 -149
q0 -87 20.5 -154t57.5 -104.5t84 -37.5q58 0 89.5 52.5zM273 681l-123 -91h-31l128 162h52l128 -162h-31z" />
    <glyph glyph-name="otilde" unicode="&#xf5;" horiz-adv-x="546" 
d="M399.5 479q55.5 -34 86 -93.5t30.5 -134.5q0 -74 -31 -134t-86.5 -94t-126.5 -34t-126 33.5t-85.5 93t-30.5 133.5q0 75 31 135t86.5 94.5t125.5 34.5q71 0 126.5 -34zM383.5 54.5q31.5 52.5 31.5 149.5q0 88 -20.5 155t-57 104t-84.5 37q-57 0 -89 -53t-32 -149
q0 -87 20.5 -154t57.5 -104.5t84 -37.5q58 0 89.5 52.5zM397 625q-26 -35 -64 -35q-19 0 -35 7.5t-40 23.5q-22 15 -35.5 21.5t-28.5 6.5q-20 0 -38 -13.5t-26 -40.5h-17q4 58 29.5 91.5t63.5 33.5q19 0 36.5 -8t39.5 -24q22 -15 35 -21.5t28 -6.5q21 0 39.5 14.5t21.5 46.5
h17q0 -61 -26 -96z" />
    <glyph glyph-name="odieresis" unicode="&#xf6;" horiz-adv-x="546" 
d="M399.5 479q55.5 -34 86 -93.5t30.5 -134.5q0 -74 -31 -134t-86.5 -94t-126.5 -34t-126 33.5t-85.5 93t-30.5 133.5q0 75 31 135t86.5 94.5t125.5 34.5q71 0 126.5 -34zM383.5 54.5q31.5 52.5 31.5 149.5q0 88 -20.5 155t-57 104t-84.5 37q-57 0 -89 -53t-32 -149
q0 -87 20.5 -154t57.5 -104.5t84 -37.5q58 0 89.5 52.5zM138 707q15 15 40 15q24 0 38.5 -15t14.5 -40q0 -26 -14.5 -41.5t-38.5 -15.5q-25 0 -40 15.5t-15 41.5q0 25 15 40zM330 707q15 15 39 15q25 0 40 -15t15 -40q0 -26 -15 -41.5t-40 -15.5q-24 0 -39 15.5t-15 41.5
q0 25 15 40z" />
    <glyph glyph-name="divide" unicode="&#xf7;" 
d="M265.5 397q-17.5 17 -17.5 41t17.5 41t44.5 17t44 -17t17 -41q0 -25 -17 -41.5t-44 -16.5t-44.5 17zM516 245h-412v55h412v-55zM265.5 66q-17.5 17 -17.5 41t17.5 41t44.5 17t44 -17t17 -41q0 -25 -17 -41.5t-44 -16.5t-44.5 17z" />
    <glyph glyph-name="oslash" unicode="&#xf8;" horiz-adv-x="546" 
d="M498 356.5q18 -48.5 18 -105.5q0 -74 -31 -134t-86.5 -94t-126.5 -34q-82 0 -143 45l-48 -61l-34 25l50 64q-32 36 -49.5 84t-17.5 103q0 75 31 135t86.5 94.5t125.5 34.5q81 0 141 -44l53 68l33 -28l-53 -68q33 -36 51 -84.5zM155 136l217 279q-21 41 -52 63t-67 22
q-57 0 -89 -53t-32 -149q0 -93 23 -162zM383.5 54.5q31.5 52.5 31.5 149.5t-24 166l-218 -279q22 -43 53 -66t68 -23q58 0 89.5 52.5z" />
    <glyph glyph-name="ugrave" unicode="&#xf9;" horiz-adv-x="599" 
d="M584 43v-19l-166 -35v100q-30 -43 -79 -71.5t-102 -28.5q-68 0 -108 46t-40 125v232q0 32 -17 48.5t-48 16.5h-14v20l170 36v-337q0 -64 28.5 -99.5t81.5 -35.5q69 0 123 62v289q0 32 -17 48.5t-48 16.5h-14v20l170 36v-404q0 -32 17.5 -49t48.5 -17h14zM138 739h123
l51 -149h-31z" />
    <glyph glyph-name="uacute" unicode="&#xfa;" horiz-adv-x="599" 
d="M263 590l51 149h123l-143 -149h-31zM584 43v-19l-166 -35v100q-30 -43 -79 -71.5t-102 -28.5q-68 0 -108 46t-40 125v232q0 32 -17 48.5t-48 16.5h-14v20l170 36v-337q0 -64 28.5 -99.5t81.5 -35.5q69 0 123 62v289q0 32 -17 48.5t-48 16.5h-14v20l170 36v-404
q0 -32 17.5 -49t48.5 -17h14z" />
    <glyph glyph-name="ucircumflex" unicode="&#xfb;" horiz-adv-x="599" 
d="M584 43v-19l-166 -35v100q-30 -43 -79 -71.5t-102 -28.5q-68 0 -108 46t-40 125v232q0 32 -17 48.5t-48 16.5h-14v20l170 36v-337q0 -64 28.5 -99.5t81.5 -35.5q69 0 123 62v289q0 32 -17 48.5t-48 16.5h-14v20l170 36v-404q0 -32 17.5 -49t48.5 -17h14zM291 681
l-123 -91h-31l128 162h52l128 -162h-31z" />
    <glyph glyph-name="udieresis" unicode="&#xfc;" horiz-adv-x="599" 
d="M584 43v-19l-166 -35v100q-30 -43 -79 -71.5t-102 -28.5q-68 0 -108 46t-40 125v232q0 32 -17 48.5t-48 16.5h-14v20l170 36v-337q0 -64 28.5 -99.5t81.5 -35.5q69 0 123 62v289q0 32 -17 48.5t-48 16.5h-14v20l170 36v-404q0 -32 17.5 -49t48.5 -17h14zM161 707
q15 15 40 15q24 0 38.5 -15t14.5 -40q0 -26 -14.5 -41.5t-38.5 -15.5q-25 0 -40 15.5t-15 41.5q0 25 15 40zM353 707q15 15 39 15q25 0 40 -15t15 -40q0 -26 -15 -41.5t-40 -15.5q-24 0 -39 15.5t-15 41.5q0 25 15 40z" />
    <glyph glyph-name="yacute" unicode="&#xfd;" horiz-adv-x="586" 
d="M576 503v-19q-28 -6 -43.5 -27t-25.5 -45.5t-14 -32.5l-158 -359q-26 -58 -54 -101t-80 -76.5t-129 -33.5q-29 0 -62 5v86q63 -22 119 -22q107 0 160 97l-194 437q-14 32 -33 50t-48 22v19h243v-19q-31 -1 -45.5 -16t-14.5 -38q0 -19 10 -42l130 -318l126 306
q10 25 10 46q0 59 -90 62v19h193zM266 590l51 149h123l-143 -149h-31z" />
    <glyph glyph-name="thorn" unicode="&#xfe;" horiz-adv-x="603" 
d="M470.5 481.5q48.5 -31.5 75.5 -89t27 -130.5q0 -78 -31 -137.5t-87.5 -92t-130.5 -32.5q-82 0 -135 45v-160q0 -30 17 -48t47 -19l29 -1v-18h-267v18l19 1q29 2 46.5 18.5t17.5 48.5v762q0 31 -17.5 48t-47.5 17h-14v19l170 36v-348q28 45 73 69.5t99 24.5
q61 0 109.5 -31.5zM395.5 40.5q36.5 28.5 56.5 79.5t20 117q0 103 -45.5 160t-117.5 57q-77 0 -120 -57v-304q19 -38 50 -59.5t73 -21.5q47 0 83.5 28.5z" />
    <glyph glyph-name="ydieresis" unicode="&#xff;" horiz-adv-x="586" 
d="M576 503v-19q-28 -6 -43.5 -27t-25.5 -45.5t-14 -32.5l-158 -359q-26 -58 -54 -101t-80 -76.5t-129 -33.5q-29 0 -62 5v86q63 -22 119 -22q107 0 160 97l-194 437q-14 32 -33 50t-48 22v19h243v-19q-31 -1 -45.5 -16t-14.5 -38q0 -19 10 -42l130 -318l126 306
q10 25 10 46q0 59 -90 62v19h193zM165 707q15 15 40 15q24 0 38.5 -15t14.5 -40q0 -26 -14.5 -41.5t-38.5 -15.5q-25 0 -40 15.5t-15 41.5q0 25 15 40zM357 707q15 15 39 15q25 0 40 -15t15 -40q0 -26 -15 -41.5t-40 -15.5q-24 0 -39 15.5t-15 41.5q0 25 15 40z" />
    <glyph glyph-name="Amacron" unicode="&#x100;" horiz-adv-x="744" 
d="M676 45q24 -20 58 -24v-21h-291v21q41 0 65 17.5t24 47.5q0 14 -8 32l-52 126h-272l-49 -119q-9 -21 -9 -38q0 -32 26.5 -48.5t73.5 -17.5v-21h-232v21q39 6 62 28t41 63l248 588h21l256 -604q14 -31 38 -51zM462 266l-128 306l-125 -306h253zM223 776v65h298v-65h-298z
" />
    <glyph glyph-name="amacron" unicode="&#x101;" horiz-adv-x="534" 
d="M524 33v-18q-40 -26 -85 -26q-78 0 -86 99q-42 -52 -91.5 -75.5t-96.5 -23.5q-60 0 -95 35.5t-35 92.5q0 46 23 74.5t56 43t87 29.5l45 14q58 19 89 46t31 78q0 46 -26.5 72t-71.5 26q-52 0 -83.5 -40t-38.5 -118h-103q12 84 71.5 127.5t152.5 43.5q84 0 127.5 -38
t43.5 -109v-264q0 -77 51 -77q19 0 35 8zM346 308q-18 -17 -39.5 -27t-54.5 -20q-6 -2 -43.5 -13.5t-55.5 -36t-18 -63.5q0 -50 24.5 -80.5t67.5 -30.5q34 0 67.5 18.5t51.5 46.5v206zM106 600v66h298v-66h-298z" />
    <glyph glyph-name="Abreve" unicode="&#x102;" horiz-adv-x="744" 
d="M676 45q24 -20 58 -24v-21h-291v21q41 0 65 17.5t24 47.5q0 14 -8 32l-52 126h-272l-49 -119q-9 -21 -9 -38q0 -32 26.5 -48.5t73.5 -17.5v-21h-232v21q39 6 62 28t41 63l248 588h21l256 -604q14 -31 38 -51zM462 266l-128 306l-125 -306h253zM492 877q0 -45 -29.5 -76
t-90.5 -31t-90 31t-29 76q0 24 7 42h21q-3 -15 -3 -27q0 -31 26.5 -47t67.5 -16t68 16t27 47q0 12 -3 27h21q7 -18 7 -42z" />
    <glyph glyph-name="abreve" unicode="&#x103;" horiz-adv-x="534" 
d="M524 33v-18q-40 -26 -85 -26q-78 0 -86 99q-42 -52 -91.5 -75.5t-96.5 -23.5q-60 0 -95 35.5t-35 92.5q0 46 23 74.5t56 43t87 29.5l45 14q58 19 89 46t31 78q0 46 -26.5 72t-71.5 26q-52 0 -83.5 -40t-38.5 -118h-103q12 84 71.5 127.5t152.5 43.5q84 0 127.5 -38
t43.5 -109v-264q0 -77 51 -77q19 0 35 8zM346 308q-18 -17 -39.5 -27t-54.5 -20q-6 -2 -43.5 -13.5t-55.5 -36t-18 -63.5q0 -50 24.5 -80.5t67.5 -30.5q34 0 67.5 18.5t51.5 46.5v206zM395 697q0 -45 -29.5 -76t-90.5 -31t-90 31t-29 76q0 24 7 42h21q-3 -15 -3 -27
q0 -31 26.5 -47t67.5 -16t68 16t27 47q0 12 -3 27h21q7 -18 7 -42z" />
    <glyph glyph-name="Aogonek" unicode="&#x104;" horiz-adv-x="744" 
d="M483 0q-18 -18 -18 -42q0 -27 23.5 -45.5t55.5 -20.5v-58q-59 5 -97 35t-38 71q0 38 34 65v16q41 0 65 17.5t24 47.5q0 14 -8 32l-52 126h-272l-49 -119q-9 -21 -9 -38q0 -32 26.5 -48.5t73.5 -17.5v-21h-232v21q39 6 62 28t41 63l248 588h21l256 -604q14 -31 38 -51
t58 -24v-21h-251zM462 266l-128 306l-125 -306h253z" />
    <glyph glyph-name="aogonek" unicode="&#x105;" horiz-adv-x="534" 
d="M416 -8q-11 -16 -11 -34q0 -27 23.5 -45.5t55.5 -20.5v-58q-59 5 -97 35t-38 71q0 20 10 37.5t27 29.5q-28 24 -33 81q-42 -52 -91.5 -75.5t-96.5 -23.5q-60 0 -95 35.5t-35 92.5q0 46 23 74.5t56 43t87 29.5l45 14q58 19 89 46t31 78q0 46 -26.5 72t-71.5 26
q-52 0 -83.5 -40t-38.5 -118h-103q12 84 71.5 127.5t152.5 43.5q84 0 127.5 -38t43.5 -109v-264q0 -77 51 -77q19 0 35 8v-18q-40 -26 -85 -26q-12 0 -23 3zM346 308q-18 -17 -39.5 -27t-54.5 -20q-6 -2 -43.5 -13.5t-55.5 -36t-18 -63.5q0 -50 24.5 -80.5t67.5 -30.5
q34 0 67.5 18.5t51.5 46.5v206z" />
    <glyph glyph-name="Cacute" unicode="&#x106;" horiz-adv-x="694" 
d="M475.5 639.5q-44.5 57.5 -113.5 57.5q-64 0 -115 -41.5t-79.5 -114t-28.5 -160.5q0 -94 32.5 -166t91 -112t133.5 -40q89 0 149 48.5t80 136.5h22q-16 -125 -91.5 -195.5t-196.5 -70.5q-94 0 -166.5 43.5t-112.5 122t-40 179.5q0 108 43.5 197t123 141t183.5 52
q109 0 179 -60.5t80 -177.5h-122q-7 103 -51.5 160.5zM366 776l51 149h123l-143 -149h-31z" />
    <glyph glyph-name="cacute" unicode="&#x107;" horiz-adv-x="478" 
d="M324.5 458q-25.5 42 -72.5 42q-38 0 -69 -28.5t-48.5 -79t-17.5 -113.5q0 -101 44.5 -155.5t122.5 -54.5q48 0 87.5 21.5t60.5 64.5h16q-19 -77 -71.5 -121.5t-128.5 -44.5q-63 0 -113 30.5t-77.5 86t-27.5 127.5q0 79 32 143t87 100.5t123 36.5q74 0 123 -44t58 -127
h-103q0 74 -25.5 116zM241 590l51 149h123l-143 -149h-31z" />
    <glyph glyph-name="Ccircumflex" unicode="&#x108;" horiz-adv-x="694" 
d="M475.5 639.5q-44.5 57.5 -113.5 57.5q-64 0 -115 -41.5t-79.5 -114t-28.5 -160.5q0 -94 32.5 -166t91 -112t133.5 -40q89 0 149 48.5t80 136.5h22q-16 -125 -91.5 -195.5t-196.5 -70.5q-94 0 -166.5 43.5t-112.5 122t-40 179.5q0 108 43.5 197t123 141t183.5 52
q109 0 179 -60.5t80 -177.5h-122q-7 103 -51.5 160.5zM382 867l-123 -91h-31l128 162h52l128 -162h-31z" />
    <glyph glyph-name="ccircumflex" unicode="&#x109;" horiz-adv-x="478" 
d="M324.5 458q-25.5 42 -72.5 42q-38 0 -69 -28.5t-48.5 -79t-17.5 -113.5q0 -101 44.5 -155.5t122.5 -54.5q48 0 87.5 21.5t60.5 64.5h16q-19 -77 -71.5 -121.5t-128.5 -44.5q-63 0 -113 30.5t-77.5 86t-27.5 127.5q0 79 32 143t87 100.5t123 36.5q74 0 123 -44t58 -127
h-103q0 74 -25.5 116zM256 681l-123 -91h-31l128 162h52l128 -162h-31z" />
    <glyph glyph-name="Cdotaccent" unicode="&#x10a;" horiz-adv-x="694" 
d="M475.5 639.5q-44.5 57.5 -113.5 57.5q-64 0 -115 -41.5t-79.5 -114t-28.5 -160.5q0 -94 32.5 -166t91 -112t133.5 -40q89 0 149 48.5t80 136.5h22q-16 -125 -91.5 -195.5t-196.5 -70.5q-94 0 -166.5 43.5t-112.5 122t-40 179.5q0 108 43.5 197t123 141t183.5 52
q109 0 179 -60.5t80 -177.5h-122q-7 103 -51.5 160.5zM328 794.5q-19 18.5 -19 46.5q0 26 19 45t49 19q31 0 49.5 -18.5t18.5 -45.5q0 -28 -18.5 -46.5t-49.5 -18.5q-30 0 -49 18.5z" />
    <glyph glyph-name="cdotaccent" unicode="&#x10b;" horiz-adv-x="478" 
d="M324.5 458q-25.5 42 -72.5 42q-38 0 -69 -28.5t-48.5 -79t-17.5 -113.5q0 -101 44.5 -155.5t122.5 -54.5q48 0 87.5 21.5t60.5 64.5h16q-19 -77 -71.5 -121.5t-128.5 -44.5q-63 0 -113 30.5t-77.5 86t-27.5 127.5q0 79 32 143t87 100.5t123 36.5q74 0 123 -44t58 -127
h-103q0 74 -25.5 116zM206 608.5q-19 18.5 -19 46.5q0 26 19 45t49 19q31 0 49.5 -18.5t18.5 -45.5q0 -28 -18.5 -46.5t-49.5 -18.5q-30 0 -49 18.5z" />
    <glyph glyph-name="Ccaron" unicode="&#x10c;" horiz-adv-x="694" 
d="M475.5 639.5q-44.5 57.5 -113.5 57.5q-64 0 -115 -41.5t-79.5 -114t-28.5 -160.5q0 -94 32.5 -166t91 -112t133.5 -40q89 0 149 48.5t80 136.5h22q-16 -125 -91.5 -195.5t-196.5 -70.5q-94 0 -166.5 43.5t-112.5 122t-40 179.5q0 108 43.5 197t123 141t183.5 52
q109 0 179 -60.5t80 -177.5h-122q-7 103 -51.5 160.5zM528 938l-128 -162h-52l-128 162h31l123 -91l123 91h31z" />
    <glyph glyph-name="ccaron" unicode="&#x10d;" horiz-adv-x="478" 
d="M324.5 458q-25.5 42 -72.5 42q-38 0 -69 -28.5t-48.5 -79t-17.5 -113.5q0 -101 44.5 -155.5t122.5 -54.5q48 0 87.5 21.5t60.5 64.5h16q-19 -77 -71.5 -121.5t-128.5 -44.5q-63 0 -113 30.5t-77.5 86t-27.5 127.5q0 79 32 143t87 100.5t123 36.5q74 0 123 -44t58 -127
h-103q0 74 -25.5 116zM251 661l123 91h31l-128 -162h-52l-128 162h31z" />
    <glyph glyph-name="Dcaron" unicode="&#x10e;" horiz-adv-x="744" 
d="M527 659q84 -41 130.5 -115t46.5 -169q0 -97 -48 -183.5t-138 -139t-210 -52.5h-283v21l33 2q33 2 51 20t18 49v516q0 31 -18.5 49t-51.5 20l-32 2v21h309q109 0 193 -41zM461 65q61 45 95 121.5t34 168.5q0 94 -35.5 168t-98.5 116t-144 42h-88v-584q0 -35 21 -56
t56 -21h23q76 0 137 45zM442 938l-128 -162h-52l-128 162h31l123 -91l123 91h31z" />
    <glyph glyph-name="dcaron" unicode="&#x10f;" horiz-adv-x="828" 
d="M575 43v-19l-165 -35v90q-28 -43 -73.5 -66.5t-99.5 -23.5q-61 0 -108 29.5t-73 85t-26 130.5q0 81 30 144.5t85 99t127 35.5q38 0 74 -10t59 -30v174q0 31 -17.5 48t-47.5 17h-14v19l170 36v-658q0 -32 17.5 -49t47.5 -17h14zM354 54q31 15 51 41v300q-18 48 -51 76.5
t-76 28.5t-77 -29.5t-52.5 -81t-18.5 -114.5q0 -69 21 -122.5t57.5 -83.5t81.5 -30q33 0 64 15zM709.5 496q35.5 29 35.5 63q0 16 -8 25.5t-20 14t-22 6.5l-19 6q-42 14 -42 51q0 24 16 39.5t43 15.5q38 0 61.5 -32.5t23.5 -84.5q0 -55 -26.5 -90t-62.5 -51.5t-69 -18.5v21
q54 6 89.5 35z" />
    <glyph glyph-name="Dcroat" unicode="&#x110;" horiz-adv-x="744" 
d="M527 659q84 -41 130.5 -115t46.5 -169q0 -97 -48 -183.5t-138 -139t-210 -52.5h-283v21l33 2q33 2 51 20t18 49v236h-102v45h102v235q0 31 -18.5 49t-51.5 20l-32 2v21h309q109 0 193 -41zM461 65q61 45 95 121.5t34 168.5q0 94 -35.5 168t-98.5 116t-144 42h-88v-308
h155v-45h-155v-231q0 -35 21 -56t56 -21h23q76 0 137 45z" />
    <glyph glyph-name="dcroat" unicode="&#x111;" horiz-adv-x="590" 
d="M575 43v-19l-165 -35v90q-28 -43 -73.5 -66.5t-99.5 -23.5q-61 0 -108 29.5t-73 85t-26 130.5q0 81 30 144.5t85 99t127 35.5q38 0 74 -10t59 -30v105h-157v37h157v32q0 31 -17.5 48t-47.5 17h-14v19l170 36v-152h69v-37h-69v-469q0 -32 17.5 -49t47.5 -17h14zM405 395
q-18 48 -51 76.5t-76 28.5t-77 -29.5t-52.5 -81t-18.5 -114.5q0 -69 21 -122.5t57.5 -83.5t81.5 -30q33 0 64 15t51 41v300z" />
    <glyph glyph-name="Emacron" unicode="&#x112;" horiz-adv-x="652" 
d="M607 235l-26 -235h-556v21l33 2q33 2 51 20t18 49v516q0 31 -18.5 49t-51.5 20l-32 2v21h550v-199h-20q-14 85 -57 132.5t-126 47.5h-148v-314h105q60 0 83 26.5t29 88.5h23v-253h-23q-6 63 -29.5 90.5t-82.5 27.5h-105v-250q0 -35 21.5 -56t57.5 -21h71q163 0 210 215
h23zM190 776v65h298v-65h-298z" />
    <glyph glyph-name="emacron" unicode="&#x113;" horiz-adv-x="487" 
d="M135 19.5q-50 30.5 -77.5 86.5t-27.5 128q0 79 32 142.5t88 100t126 36.5q87 0 133 -58.5t48 -163.5h-339q-1 -7 -1 -16q0 -97 44.5 -151.5t122.5 -54.5q48 0 87.5 21.5t60.5 64.5h16q-19 -77 -71.5 -121.5t-128.5 -44.5q-63 0 -113 30.5zM353 310v14q0 80 -26 128
t-75 48q-34 0 -63 -23.5t-48 -67t-23 -99.5h235zM108 600v66h298v-66h-298z" />
    <glyph glyph-name="Ebreve" unicode="&#x114;" horiz-adv-x="652" 
d="M607 235l-26 -235h-556v21l33 2q33 2 51 20t18 49v516q0 31 -18.5 49t-51.5 20l-32 2v21h550v-199h-20q-14 85 -57 132.5t-126 47.5h-148v-314h105q60 0 83 26.5t29 88.5h23v-253h-23q-6 63 -29.5 90.5t-82.5 27.5h-105v-250q0 -35 21.5 -56t57.5 -21h71q163 0 210 215
h23zM445 877q0 -45 -29.5 -76t-90.5 -31t-90 31t-29 76q0 24 7 42h21q-3 -15 -3 -27q0 -31 26.5 -47t67.5 -16t68 16t27 47q0 12 -3 27h21q7 -18 7 -42z" />
    <glyph glyph-name="ebreve" unicode="&#x115;" horiz-adv-x="487" 
d="M135 19.5q-50 30.5 -77.5 86.5t-27.5 128q0 79 32 142.5t88 100t126 36.5q87 0 133 -58.5t48 -163.5h-339q-1 -7 -1 -16q0 -97 44.5 -151.5t122.5 -54.5q48 0 87.5 21.5t60.5 64.5h16q-19 -77 -71.5 -121.5t-128.5 -44.5q-63 0 -113 30.5zM353 310v14q0 80 -26 128
t-75 48q-34 0 -63 -23.5t-48 -67t-23 -99.5h235zM374 697q0 -45 -29.5 -76t-90.5 -31t-90 31t-29 76q0 24 7 42h21q-3 -15 -3 -27q0 -31 26.5 -47t67.5 -16t68 16t27 47q0 12 -3 27h21q7 -18 7 -42z" />
    <glyph glyph-name="Edotaccent" unicode="&#x116;" horiz-adv-x="652" 
d="M607 235l-26 -235h-556v21l33 2q33 2 51 20t18 49v516q0 31 -18.5 49t-51.5 20l-32 2v21h550v-199h-20q-14 85 -57 132.5t-126 47.5h-148v-314h105q60 0 83 26.5t29 88.5h23v-253h-23q-6 63 -29.5 90.5t-82.5 27.5h-105v-250q0 -35 21.5 -56t57.5 -21h71q163 0 210 215
h23zM280 794.5q-19 18.5 -19 46.5q0 26 19 45t49 19q31 0 49.5 -18.5t18.5 -45.5q0 -28 -18.5 -46.5t-49.5 -18.5q-30 0 -49 18.5z" />
    <glyph glyph-name="edotaccent" unicode="&#x117;" horiz-adv-x="487" 
d="M135 19.5q-50 30.5 -77.5 86.5t-27.5 128q0 79 32 142.5t88 100t126 36.5q87 0 133 -58.5t48 -163.5h-339q-1 -7 -1 -16q0 -97 44.5 -151.5t122.5 -54.5q48 0 87.5 21.5t60.5 64.5h16q-19 -77 -71.5 -121.5t-128.5 -44.5q-63 0 -113 30.5zM353 310v14q0 80 -26 128
t-75 48q-34 0 -63 -23.5t-48 -67t-23 -99.5h235zM215 608.5q-19 18.5 -19 46.5q0 26 19 45t49 19q31 0 49.5 -18.5t18.5 -45.5q0 -28 -18.5 -46.5t-49.5 -18.5q-30 0 -49 18.5z" />
    <glyph glyph-name="Eogonek" unicode="&#x118;" horiz-adv-x="652" 
d="M506 0q-18 -18 -18 -42q0 -27 23.5 -45.5t55.5 -20.5v-58q-59 5 -97 35t-38 71q0 35 28 60h-435v21l33 2q33 2 51 20t18 49v516q0 31 -18.5 49t-51.5 20l-32 2v21h550v-199h-20q-14 85 -57 132.5t-126 47.5h-148v-314h105q60 0 83 26.5t29 88.5h23v-253h-23
q-6 63 -29.5 90.5t-82.5 27.5h-105v-250q0 -35 21.5 -56t57.5 -21h71q163 0 210 215h23l-26 -235h-75z" />
    <glyph glyph-name="eogonek" unicode="&#x119;" horiz-adv-x="487" 
d="M371.5 90.5q39.5 21.5 60.5 64.5h16q-18 -73 -66.5 -117t-118.5 -49q-9 -14 -9 -31q0 -27 23.5 -45.5t55.5 -20.5v-58q-59 5 -97 35t-38 71q0 29 19 51q-84 11 -135.5 77t-51.5 166q0 79 32 142.5t88 100t126 36.5q87 0 133 -58.5t48 -163.5h-339q-1 -7 -1 -16
q0 -97 44.5 -151.5t122.5 -54.5q48 0 87.5 21.5zM189 476.5q-29 -23.5 -48 -67t-23 -99.5h235v14q0 80 -26 128t-75 48q-34 0 -63 -23.5z" />
    <glyph glyph-name="Ecaron" unicode="&#x11a;" horiz-adv-x="652" 
d="M607 235l-26 -235h-556v21l33 2q33 2 51 20t18 49v516q0 31 -18.5 49t-51.5 20l-32 2v21h550v-199h-20q-14 85 -57 132.5t-126 47.5h-148v-314h105q60 0 83 26.5t29 88.5h23v-253h-23q-6 63 -29.5 90.5t-82.5 27.5h-105v-250q0 -35 21.5 -56t57.5 -21h71q163 0 210 215
h23zM491 938l-128 -162h-52l-128 162h31l123 -91l123 91h31z" />
    <glyph glyph-name="ecaron" unicode="&#x11b;" horiz-adv-x="487" 
d="M135 19.5q-50 30.5 -77.5 86.5t-27.5 128q0 79 32 142.5t88 100t126 36.5q87 0 133 -58.5t48 -163.5h-339q-1 -7 -1 -16q0 -97 44.5 -151.5t122.5 -54.5q48 0 87.5 21.5t60.5 64.5h16q-19 -77 -71.5 -121.5t-128.5 -44.5q-63 0 -113 30.5zM353 310v14q0 80 -26 128
t-75 48q-34 0 -63 -23.5t-48 -67t-23 -99.5h235zM262 661l123 91h31l-128 -162h-52l-128 162h31z" />
    <glyph glyph-name="Gcircumflex" unicode="&#x11c;" horiz-adv-x="727" 
d="M392 315h300v-23h-66v-220q-68 -47 -130.5 -68.5t-129.5 -21.5q-97 0 -171 43.5t-114.5 122.5t-40.5 182q0 99 40 188t119 144t190 55q109 0 179 -60.5t82 -177.5h-122q-7 102 -52 160t-115 58q-64 0 -114.5 -41.5t-79 -114.5t-28.5 -164q0 -99 33.5 -183t94 -134
t138.5 -50q68 0 124 39v243h-137v23zM366 867l-123 -91h-31l128 162h52l128 -162h-31z" />
    <glyph glyph-name="gcircumflex" unicode="&#x11d;" horiz-adv-x="576" 
d="M556 428q-50 6 -121 28q-24 8 -36 11q77 -55 77 -131q0 -46 -28 -83t-76.5 -58t-108.5 -21q-58 0 -100 19q-54 -25 -54 -60q0 -25 21.5 -38t56.5 -13h181q74 0 115.5 -29.5t41.5 -83.5q0 -57 -44 -97.5t-113 -61.5t-141 -21q-85 0 -143.5 28.5t-58.5 79.5q0 36 29 64.5
t80 38.5q-37 10 -59 34t-22 57q0 36 26.5 64t71.5 43q-46 21 -70.5 56.5t-24.5 82.5q0 49 27 89.5t74.5 63.5t106.5 23q27 0 69 -7q39 -6 69 -9t77 -3h77v-66zM351 221.5q26 35.5 26 104.5q0 80 -32.5 127.5t-88.5 47.5q-46 0 -72 -36t-26 -105q0 -79 32.5 -126.5
t87.5 -47.5q47 0 73 35.5zM142 -4q-20 -10 -33 -31t-13 -45q0 -50 54.5 -78.5t128.5 -28.5q75 0 129 28.5t54 82.5q0 33 -24 52.5t-68 19.5h-228zM281 681l-123 -91h-31l128 162h52l128 -162h-31z" />
    <glyph glyph-name="Gbreve" unicode="&#x11e;" horiz-adv-x="727" 
d="M392 315h300v-23h-66v-220q-68 -47 -130.5 -68.5t-129.5 -21.5q-97 0 -171 43.5t-114.5 122.5t-40.5 182q0 99 40 188t119 144t190 55q109 0 179 -60.5t82 -177.5h-122q-7 102 -52 160t-115 58q-64 0 -114.5 -41.5t-79 -114.5t-28.5 -164q0 -99 33.5 -183t94 -134
t138.5 -50q68 0 124 39v243h-137v23zM498 877q0 -45 -29.5 -76t-90.5 -31t-90 31t-29 76q0 24 7 42h21q-3 -15 -3 -27q0 -31 26.5 -47t67.5 -16t68 16t27 47q0 12 -3 27h21q7 -18 7 -42z" />
    <glyph glyph-name="gbreve" unicode="&#x11f;" horiz-adv-x="576" 
d="M556 428q-50 6 -121 28q-24 8 -36 11q77 -55 77 -131q0 -46 -28 -83t-76.5 -58t-108.5 -21q-58 0 -100 19q-54 -25 -54 -60q0 -25 21.5 -38t56.5 -13h181q74 0 115.5 -29.5t41.5 -83.5q0 -57 -44 -97.5t-113 -61.5t-141 -21q-85 0 -143.5 28.5t-58.5 79.5q0 36 29 64.5
t80 38.5q-37 10 -59 34t-22 57q0 36 26.5 64t71.5 43q-46 21 -70.5 56.5t-24.5 82.5q0 49 27 89.5t74.5 63.5t106.5 23q27 0 69 -7q39 -6 69 -9t77 -3h77v-66zM351 221.5q26 35.5 26 104.5q0 80 -32.5 127.5t-88.5 47.5q-46 0 -72 -36t-26 -105q0 -79 32.5 -126.5
t87.5 -47.5q47 0 73 35.5zM142 -4q-20 -10 -33 -31t-13 -45q0 -50 54.5 -78.5t128.5 -28.5q75 0 129 28.5t54 82.5q0 33 -24 52.5t-68 19.5h-228zM395 697q0 -45 -29.5 -76t-90.5 -31t-90 31t-29 76q0 24 7 42h21q-3 -15 -3 -27q0 -31 26.5 -47t67.5 -16t68 16t27 47
q0 12 -3 27h21q7 -18 7 -42z" />
    <glyph glyph-name="Gdotaccent" unicode="&#x120;" horiz-adv-x="727" 
d="M392 315h300v-23h-66v-220q-68 -47 -130.5 -68.5t-129.5 -21.5q-97 0 -171 43.5t-114.5 122.5t-40.5 182q0 99 40 188t119 144t190 55q109 0 179 -60.5t82 -177.5h-122q-7 102 -52 160t-115 58q-64 0 -114.5 -41.5t-79 -114.5t-28.5 -164q0 -99 33.5 -183t94 -134
t138.5 -50q68 0 124 39v243h-137v23zM323 794.5q-19 18.5 -19 46.5q0 26 19 45t49 19q31 0 49.5 -18.5t18.5 -45.5q0 -28 -18.5 -46.5t-49.5 -18.5q-30 0 -49 18.5z" />
    <glyph glyph-name="gdotaccent" unicode="&#x121;" horiz-adv-x="576" 
d="M556 428q-50 6 -121 28q-24 8 -36 11q77 -55 77 -131q0 -46 -28 -83t-76.5 -58t-108.5 -21q-58 0 -100 19q-54 -25 -54 -60q0 -25 21.5 -38t56.5 -13h181q74 0 115.5 -29.5t41.5 -83.5q0 -57 -44 -97.5t-113 -61.5t-141 -21q-85 0 -143.5 28.5t-58.5 79.5q0 36 29 64.5
t80 38.5q-37 10 -59 34t-22 57q0 36 26.5 64t71.5 43q-46 21 -70.5 56.5t-24.5 82.5q0 49 27 89.5t74.5 63.5t106.5 23q27 0 69 -7q39 -6 69 -9t77 -3h77v-66zM351 221.5q26 35.5 26 104.5q0 80 -32.5 127.5t-88.5 47.5q-46 0 -72 -36t-26 -105q0 -79 32.5 -126.5
t87.5 -47.5q47 0 73 35.5zM142 -4q-20 -10 -33 -31t-13 -45q0 -50 54.5 -78.5t128.5 -28.5q75 0 129 28.5t54 82.5q0 33 -24 52.5t-68 19.5h-228zM223 608.5q-19 18.5 -19 46.5q0 26 19 45t49 19q31 0 49.5 -18.5t18.5 -45.5q0 -28 -18.5 -46.5t-49.5 -18.5q-30 0 -49 18.5z
" />
    <glyph glyph-name="uni0122" unicode="&#x122;" horiz-adv-x="727" 
d="M392 315h300v-23h-66v-220q-68 -47 -130.5 -68.5t-129.5 -21.5q-97 0 -171 43.5t-114.5 122.5t-40.5 182q0 99 40 188t119 144t190 55q109 0 179 -60.5t82 -177.5h-122q-7 102 -52 160t-115 58q-64 0 -114.5 -41.5t-79 -114.5t-28.5 -164q0 -99 33.5 -183t94 -134
t138.5 -50q68 0 124 39v243h-137v23zM420.5 -298q35.5 29 35.5 63q0 16 -8 25.5t-20 14t-22 6.5l-19 6q-42 14 -42 51q0 24 16 39.5t43 15.5q38 0 61.5 -32.5t23.5 -84.5q0 -55 -26.5 -90t-62.5 -51.5t-69 -18.5v21q54 6 89.5 35z" />
    <glyph glyph-name="uni0123" unicode="&#x123;" horiz-adv-x="576" 
d="M234.5 821q-35.5 -29 -35.5 -63q0 -16 8 -25.5t20 -14t22 -6.5l19 -6q42 -13 42 -51q0 -24 -16 -39.5t-43 -15.5q-38 0 -61.5 32.5t-23.5 84.5q0 55 26.5 90t62.5 51.5t69 18.5v-21q-54 -6 -89.5 -35zM556 428q-50 6 -121 28q-24 8 -36 11q77 -55 77 -131q0 -46 -28 -83
t-76.5 -58t-108.5 -21q-58 0 -100 19q-54 -25 -54 -60q0 -25 21.5 -38t56.5 -13h181q74 0 115.5 -29.5t41.5 -83.5q0 -57 -44 -97.5t-113 -61.5t-141 -21q-85 0 -143.5 28.5t-58.5 79.5q0 36 29 64.5t80 38.5q-37 10 -59 34t-22 57q0 36 26.5 64t71.5 43q-46 21 -70.5 56.5
t-24.5 82.5q0 49 27 89.5t74.5 63.5t106.5 23q27 0 69 -7q39 -6 69 -9t77 -3h77v-66zM351 221.5q26 35.5 26 104.5q0 80 -32.5 127.5t-88.5 47.5q-46 0 -72 -36t-26 -105q0 -79 32.5 -126.5t87.5 -47.5q47 0 73 35.5zM142 -4q-20 -10 -33 -31t-13 -45q0 -50 54.5 -78.5
t128.5 -28.5q75 0 129 28.5t54 82.5q0 33 -24 52.5t-68 19.5h-228z" />
    <glyph glyph-name="Hcircumflex" unicode="&#x124;" horiz-adv-x="804" 
d="M695.5 657q-18.5 -18 -18.5 -49v-516q0 -31 18 -49t51 -20l33 -2v-21h-301v21l33 2q33 2 51 20t18 49v255h-356v-255q0 -31 18 -49t51 -20l33 -2v-21h-301v21l33 2q33 2 51 20t18 49v516q0 31 -18.5 49t-51.5 20l-32 2v21h301v-21l-32 -2q-33 -2 -51.5 -20t-18.5 -49
v-239h356v239q0 31 -18.5 49t-51.5 20l-32 2v21h301v-21l-32 -2q-33 -2 -51.5 -20zM402 867l-123 -91h-31l128 162h52l128 -162h-31z" />
    <glyph glyph-name="hcircumflex" unicode="&#x125;" horiz-adv-x="612" 
d="M602 18v-18h-253v18l18 1q61 3 61 67v244q0 66 -26.5 100t-78.5 34q-38 0 -74 -17.5t-60 -47.5v-313q0 -30 15.5 -48t45.5 -19l19 -1v-18h-254v18l19 1q29 2 46.5 18t17.5 49v561q0 31 -17.5 48t-47.5 17h-14v19l170 36v-347q30 41 81 67t104 26q69 0 107.5 -43.5
t38.5 -123.5v-260q0 -31 17 -48t47 -19zM380 678l-120 -88h-30l124 157h51l124 -157h-30z" />
    <glyph glyph-name="Hbar" unicode="&#x126;" horiz-adv-x="804" 
d="M695.5 657q-18.5 -18 -18.5 -49v-66h101v-42h-101v-408q0 -31 18 -49t51 -20l33 -2v-21h-301v21l33 2q33 2 51 20t18 49v255h-356v-255q0 -31 18 -49t51 -20l33 -2v-21h-301v21l33 2q33 2 51 20t18 49v408h-102v42h102v66q0 31 -18.5 49t-51.5 20l-32 2v21h301v-21
l-32 -2q-33 -2 -51.5 -20t-18.5 -49v-66h356v66q0 31 -18.5 49t-51.5 20l-32 2v21h301v-21l-32 -2q-33 -2 -51.5 -20zM580 500h-356v-131h356v131z" />
    <glyph glyph-name="hbar" unicode="&#x127;" horiz-adv-x="612" 
d="M602 18v-18h-253v18l18 1q61 3 61 67v244q0 66 -26.5 100t-78.5 34q-38 0 -74 -17.5t-60 -47.5v-313q0 -30 15.5 -48t45.5 -19l19 -1v-18h-254v18l19 1q29 2 46.5 18t17.5 49v492h-83v37h83v32q0 31 -17.5 48t-47.5 17h-14v19l170 36v-152h143v-37h-143v-158q30 41 81 67
t104 26q69 0 107.5 -43.5t38.5 -123.5v-260q0 -31 17 -48t47 -19z" />
    <glyph glyph-name="Itilde" unicode="&#x128;" horiz-adv-x="371" 
d="M252.5 43q18.5 -18 50.5 -20l43 -2v-21h-321v21l43 2q32 2 50.5 20t18.5 49v516q0 31 -18.5 49t-51.5 20l-42 2v21h321v-21l-42 -2q-33 -2 -51.5 -20t-18.5 -49v-516q0 -31 18.5 -49zM320 810q-26 -35 -64 -35q-19 0 -35 7.5t-40 23.5q-22 14 -35.5 21t-28.5 7
q-20 0 -38 -13.5t-26 -40.5h-17q4 58 29.5 91.5t63.5 33.5q19 0 36.5 -8t39.5 -24q22 -15 35 -21.5t28 -6.5q21 0 39.5 14.5t21.5 46.5h17q0 -61 -26 -96z" />
    <glyph glyph-name="itilde" unicode="&#x129;" horiz-adv-x="292" 
d="M277 18v-18h-257v18l19 1q64 5 64 66v307q0 32 -17 48.5t-48 16.5h-14v20l170 36v-428q0 -30 16.5 -47t47.5 -19zM274 625q-26 -35 -64 -35q-19 0 -35 7.5t-40 23.5q-22 15 -35.5 21.5t-28.5 6.5q-20 0 -38 -13.5t-26 -40.5h-17q4 58 29.5 91.5t63.5 33.5q19 0 36.5 -8
t39.5 -24q22 -15 35 -21.5t28 -6.5q21 0 39.5 14.5t21.5 46.5h17q0 -61 -26 -96z" />
    <glyph glyph-name="Imacron" unicode="&#x12a;" horiz-adv-x="371" 
d="M252.5 43q18.5 -18 50.5 -20l43 -2v-21h-321v21l43 2q32 2 50.5 20t18.5 49v516q0 31 -18.5 49t-51.5 20l-42 2v21h321v-21l-42 -2q-33 -2 -51.5 -20t-18.5 -49v-516q0 -31 18.5 -49zM37 776v65h298v-65h-298z" />
    <glyph glyph-name="imacron" unicode="&#x12b;" horiz-adv-x="292" 
d="M277 18v-18h-257v18l19 1q64 5 64 66v307q0 32 -17 48.5t-48 16.5h-14v20l170 36v-428q0 -30 16.5 -47t47.5 -19zM-14 619v66h298v-66h-298z" />
    <glyph glyph-name="Iogonek" unicode="&#x12e;" horiz-adv-x="371" 
d="M252.5 657q-18.5 -18 -18.5 -49v-516q0 -31 18.5 -49t50.5 -20l43 -2v-21h-157q-18 -18 -18 -42q0 -27 23.5 -45.5t55.5 -20.5v-58q-59 5 -97 35t-38 71q0 35 28 60h-118v21l43 2q32 2 50.5 20t18.5 49v516q0 31 -18.5 49t-51.5 20l-42 2v21h321v-21l-42 -2
q-33 -2 -51.5 -20z" />
    <glyph glyph-name="iogonek" unicode="&#x12f;" horiz-adv-x="292" 
d="M92.5 640q-19.5 18 -19.5 45t19 45t50 18t49 -17.5t18 -45.5t-18 -45.5t-49 -17.5q-30 0 -49.5 18zM129 0q-18 -18 -18 -42q0 -27 23.5 -45.5t55.5 -20.5v-58q-59 5 -97 35t-38 71q0 35 28 60h-63v18l19 1q29 2 46.5 17.5t17.5 48.5v307q0 32 -17 48.5t-48 16.5h-14v20
l170 36v-428q0 -30 17 -47t47 -19l19 -1v-18h-148z" />
    <glyph glyph-name="Idotaccent" unicode="&#x130;" horiz-adv-x="371" 
d="M252.5 43q18.5 -18 50.5 -20l43 -2v-21h-321v21l43 2q32 2 50.5 20t18.5 49v516q0 31 -18.5 49t-51.5 20l-42 2v21h321v-21l-42 -2q-33 -2 -51.5 -20t-18.5 -49v-516q0 -31 18.5 -49zM137 794.5q-19 18.5 -19 46.5q0 26 19 45t49 19q31 0 49.5 -18.5t18.5 -45.5
q0 -28 -18.5 -46.5t-49.5 -18.5q-30 0 -49 18.5z" />
    <glyph glyph-name="dotlessi" unicode="&#x131;" horiz-adv-x="292" 
d="M277 18v-18h-257v18l19 1q64 5 64 66v307q0 32 -17 48.5t-48 16.5h-14v20l170 36v-428q0 -30 16.5 -47t47.5 -19z" />
    <glyph glyph-name="IJ" unicode="&#x132;" horiz-adv-x="716" 
d="M252.5 43q18.5 -18 50.5 -20l43 -2v-21h-321v21l43 2q32 2 50.5 20t18.5 49v516q0 31 -18.5 49t-51.5 20l-42 2v21h321v-21l-42 -2q-33 -2 -51.5 -20t-18.5 -49v-516q0 -31 18.5 -49zM711 700v-21l-32 -2q-33 -2 -51.5 -20t-18.5 -49v-487q0 -89 -53.5 -159.5
t-164.5 -135.5l-10 13l24 25q49 46 78 106.5t29 133.5v504q0 31 -18.5 49t-51.5 20l-42 2v21h311z" />
    <glyph glyph-name="ij" unicode="&#x133;" horiz-adv-x="574" 
d="M92.5 640q-19.5 18 -19.5 45t19 45t50 18t49 -17.5t18 -45.5t-18 -45.5t-49 -17.5q-30 0 -49.5 18zM277 18v-18h-257v18l19 1q29 2 46.5 17.5t17.5 48.5v307q0 32 -17 48.5t-48 16.5h-14v20l170 36v-428q0 -30 17 -47t47 -19zM396 639q-19 18 -19 45t19 45t49 18
q31 0 50 -17.5t19 -45.5t-19 -45.5t-50 -17.5q-30 0 -49 18zM329 477l170 36v-460q0 -62 -19.5 -107t-57 -81.5t-101.5 -80.5l-10 12l23 28q40 50 57 104.5t17 121.5v342q0 32 -17 48.5t-48 16.5h-14v20z" />
    <glyph glyph-name="Jcircumflex" unicode="&#x134;" horiz-adv-x="345" 
d="M340 700v-21l-32 -2q-33 -2 -51.5 -20t-18.5 -49v-487q0 -89 -53.5 -159.5t-164.5 -135.5l-10 13l24 25q49 46 78 106.5t29 133.5v504q0 31 -18.5 49t-51.5 20l-42 2v21h311zM186 867l-123 -91h-31l128 162h52l128 -162h-31z" />
    <glyph glyph-name="jcircumflex" unicode="&#x135;" horiz-adv-x="263" 
d="M133 681l-123 -91h-31l128 162h52l128 -162h-31zM18 477l170 36v-460q0 -62 -19.5 -107t-57 -81.5t-101.5 -80.5l-10 12l23 28q41 49 57.5 103.5t16.5 122.5v342q0 32 -17 48.5t-48 16.5h-14v20z" />
    <glyph glyph-name="uni0136" unicode="&#x136;" horiz-adv-x="699" 
d="M242 43q18 -18 51 -20l33 -2v-21h-301v21l33 2q33 2 51 20t18 49v516q0 31 -18.5 49t-51.5 20l-32 2v21h301v-21l-32 -2q-33 -2 -51.5 -20t-18.5 -49v-516q0 -31 18 -49zM647.5 45q25.5 -23 41.5 -24v-21h-134q-18 19 -38 43l-265 320l211 206q46 44 46 74q0 31 -53 34
l-35 2v21h248v-21q-52 -4 -114 -61l-223 -209l263 -309q27 -32 52.5 -55zM412.5 -298q35.5 29 35.5 63q0 16 -8 25.5t-20 14t-22 6.5l-19 6q-42 14 -42 51q0 24 16 39.5t43 15.5q38 0 61.5 -32.5t23.5 -84.5q0 -55 -26.5 -90t-62.5 -51.5t-69 -18.5v21q54 6 89.5 35z" />
    <glyph glyph-name="uni0137" unicode="&#x137;" horiz-adv-x="562" 
d="M206 38.5q17 -18.5 48 -19.5l18 -1v-18h-257v18l19 1q29 2 46.5 18t17.5 49v561q0 31 -17 48t-48 17h-14v19l170 36v-681q0 -29 17 -47.5zM527.5 38q14.5 -15 24.5 -20v-18h-113q-20 22 -46 52l-179 206l128 127q31 31 31 56q0 42 -83 42v20h251v-21q-34 -5 -72 -25
t-68 -48l-111 -104l194 -219q29 -33 43.5 -48zM340.5 -298q35.5 29 35.5 63q0 16 -8 25.5t-20 14t-22 6.5l-19 6q-42 14 -42 51q0 24 16 39.5t43 15.5q38 0 61.5 -32.5t23.5 -84.5q0 -55 -26.5 -90t-62.5 -51.5t-69 -18.5v21q54 6 89.5 35z" />
    <glyph glyph-name="kgreenlandic" unicode="&#x138;" horiz-adv-x="562" 
d="M206 38q17 -18 48 -19l18 -1v-18h-257v18l19 1q29 2 46.5 18t17.5 49v307q0 31 -17 48t-48 17h-14v19l170 36v-427q0 -30 17 -48zM503 64q18 -21 28.5 -31.5t20.5 -14.5v-18h-113q-20 22 -46 52l-179 206l128 127q31 31 31 56q0 42 -83 42v20h251v-21q-34 -5 -72 -25
t-68 -48l-111 -104l194 -219z" />
    <glyph glyph-name="Lacute" unicode="&#x139;" horiz-adv-x="637" 
d="M607 235l-26 -235h-556v21l33 2q33 2 51 20t18 49v516q0 31 -18.5 49t-51.5 20l-32 2v21h301v-21l-32 -2q-33 -2 -51.5 -20t-18.5 -49v-511q0 -35 21.5 -56t57.5 -21h71q163 0 210 215h23zM162 776l51 149h123l-143 -149h-31z" />
    <glyph glyph-name="lacute" unicode="&#x13a;" horiz-adv-x="308" 
d="M80.5 695q-17.5 17 -47.5 17h-14v19l170 36v-681q0 -31 17 -48t47 -19l19 -1v-18h-257v18l19 1q29 2 46.5 18t17.5 49v561q0 31 -17.5 48zM64 776l51 149h123l-143 -149h-31z" />
    <glyph glyph-name="uni013B" unicode="&#x13b;" horiz-adv-x="637" 
d="M607 235l-26 -235h-556v21l33 2q33 2 51 20t18 49v516q0 31 -18.5 49t-51.5 20l-32 2v21h301v-21l-32 -2q-33 -2 -51.5 -20t-18.5 -49v-511q0 -35 21.5 -56t57.5 -21h71q163 0 210 215h23zM345.5 -298q35.5 29 35.5 63q0 16 -8 25.5t-20 14t-22 6.5l-19 6q-42 14 -42 51
q0 24 16 39.5t43 15.5q38 0 61.5 -32.5t23.5 -84.5q0 -55 -26.5 -90t-62.5 -51.5t-69 -18.5v21q54 6 89.5 35z" />
    <glyph glyph-name="uni013C" unicode="&#x13c;" horiz-adv-x="306" 
d="M80.5 695q-17.5 17 -47.5 17h-14v19l170 36v-681q0 -31 17 -48t47 -19l19 -1v-18h-257v18l19 1q29 2 46.5 18t17.5 49v561q0 31 -17.5 48zM173.5 -298q35.5 29 35.5 63q0 16 -8 25.5t-20 14t-22 6.5l-19 6q-42 14 -42 51q0 24 16 39.5t43 15.5q38 0 61.5 -32.5
t23.5 -84.5q0 -55 -26.5 -90t-62.5 -51.5t-69 -18.5v21q54 6 89.5 35z" />
    <glyph glyph-name="Lcaron" unicode="&#x13d;" horiz-adv-x="665" 
d="M607 235l-26 -235h-556v21l33 2q33 2 51 20t18 49v516q0 31 -18.5 49t-51.5 20l-32 2v21h301v-21l-32 -2q-33 -2 -51.5 -20t-18.5 -49v-511q0 -35 21.5 -56t57.5 -21h71q163 0 210 215h23zM566.5 497q35.5 29 35.5 63q0 16 -8 25.5t-20 14t-22 6.5l-19 6q-42 14 -42 51
q0 24 16 39.5t43 15.5q38 0 61.5 -32.5t23.5 -84.5q0 -55 -26.5 -90t-62.5 -51.5t-69 -18.5v21q54 6 89.5 35z" />
    <glyph glyph-name="lcaron" unicode="&#x13e;" horiz-adv-x="507" 
d="M80.5 695q-17.5 17 -47.5 17h-14v19l170 36v-681q0 -31 17 -48t47 -19l19 -1v-18h-257v18l19 1q29 2 46.5 18t17.5 49v561q0 31 -17.5 48zM388.5 496q35.5 29 35.5 63q0 16 -8 25.5t-20 14t-22 6.5l-19 6q-42 14 -42 51q0 24 16 39.5t43 15.5q38 0 61.5 -32.5t23.5 -84.5
q0 -55 -26.5 -90t-62.5 -51.5t-69 -18.5v21q54 6 89.5 35z" />
    <glyph glyph-name="Ldot" unicode="&#x13f;" horiz-adv-x="637" 
d="M607 235l-26 -235h-556v21l33 2q33 2 51 20t18 49v516q0 31 -18.5 49t-51.5 20l-32 2v21h301v-21l-32 -2q-33 -2 -51.5 -20t-18.5 -49v-511q0 -35 21.5 -56t57.5 -21h71q163 0 210 215h23zM469 401.5q-19 18.5 -19 46.5q0 26 19 45t49 19q31 0 49.5 -18.5t18.5 -45.5
q0 -28 -18.5 -46.5t-49.5 -18.5q-30 0 -49 18.5z" />
    <glyph glyph-name="ldot" unicode="&#x140;" horiz-adv-x="430" 
d="M80.5 695q-17.5 17 -47.5 17h-14v19l170 36v-681q0 -31 17 -48t47 -19l19 -1v-18h-257v18l19 1q29 2 46.5 18t17.5 49v561q0 31 -17.5 48zM298 391.5q-19 18.5 -19 46.5q0 26 19 45t49 19q31 0 49.5 -18.5t18.5 -45.5q0 -28 -18.5 -46.5t-49.5 -18.5q-30 0 -49 18.5z" />
    <glyph glyph-name="Lslash" unicode="&#x141;" horiz-adv-x="637" 
d="M607 235l-26 -235h-556v21l33 2q33 2 51 20t18 49v192l-100 -53v34l100 52v291q0 31 -18.5 49t-51.5 20l-32 2v21h301v-21l-32 -2q-33 -2 -51.5 -20t-18.5 -49v-240l194 102v-33l-194 -102v-238q0 -35 21.5 -56t57.5 -21h71q163 0 210 215h23z" />
    <glyph glyph-name="lslash" unicode="&#x142;" horiz-adv-x="300" 
d="M195 356v-270q0 -31 17 -48t47 -19l19 -1v-18h-257v18l19 1q29 2 46.5 18t17.5 49v223l-89 -46v33l89 46v305q0 31 -17.5 48t-47.5 17h-14v19l170 36v-378l90 47v-33z" />
    <glyph glyph-name="Nacute" unicode="&#x143;" horiz-adv-x="797" 
d="M782 700v-21l-36 -2q-33 -1 -54.5 -26.5t-21.5 -62.5v-588h-32l-456 588v-476q0 -35 22 -61t52 -28l51 -2v-21h-267v21l37 2q32 1 53.5 27t21.5 62v499l-15 19q-20 26 -45 36.5t-67 12.5v21h195l419 -549v437q0 36 -21.5 61.5t-52.5 27.5l-52 2v21h269zM359 776l51 149
h123l-143 -149h-31z" />
    <glyph glyph-name="nacute" unicode="&#x144;" horiz-adv-x="612" 
d="M602 18v-18h-252v18l18 1q61 3 61 67v244q0 66 -27 100t-79 34q-38 0 -74 -17.5t-60 -47.5v-313q0 -30 15.5 -48t45.5 -19l19 -1v-18h-254v18l19 1q29 2 46.5 18t17.5 49v307q0 32 -17 48.5t-48 16.5h-14v19l165 36v-100q29 44 81.5 72t108.5 28q69 0 107.5 -43.5
t38.5 -123.5v-260q0 -31 17 -48t47 -19zM283 590l51 149h123l-143 -149h-31z" />
    <glyph glyph-name="uni0145" unicode="&#x145;" horiz-adv-x="797" 
d="M782 700v-21l-36 -2q-33 -1 -54.5 -26.5t-21.5 -62.5v-588h-32l-456 588v-476q0 -35 22 -61t52 -28l51 -2v-21h-267v21l37 2q32 1 53.5 27t21.5 62v499l-15 19q-20 26 -45 36.5t-67 12.5v21h195l419 -549v437q0 36 -21.5 61.5t-52.5 27.5l-52 2v21h269zM445.5 -297
q35.5 29 35.5 63q0 16 -8 25.5t-20 14t-22 6.5l-19 6q-42 14 -42 51q0 24 16 39.5t43 15.5q38 0 61.5 -32.5t23.5 -84.5q0 -55 -26.5 -90t-62.5 -51.5t-69 -18.5v21q54 6 89.5 35z" />
    <glyph glyph-name="uni0146" unicode="&#x146;" horiz-adv-x="612" 
d="M602 18v-18h-252v18l18 1q61 3 61 67v244q0 66 -27 100t-79 34q-38 0 -74 -17.5t-60 -47.5v-313q0 -30 15.5 -48t45.5 -19l19 -1v-18h-254v18l19 1q29 2 46.5 18t17.5 49v307q0 32 -17 48.5t-48 16.5h-14v19l165 36v-100q29 44 81.5 72t108.5 28q69 0 107.5 -43.5
t38.5 -123.5v-260q0 -31 17 -48t47 -19zM339.5 -298q35.5 29 35.5 63q0 16 -8 25.5t-20 14t-22 6.5l-19 6q-42 14 -42 51q0 24 16 39.5t43 15.5q38 0 61.5 -32.5t23.5 -84.5q0 -55 -26.5 -90t-62.5 -51.5t-69 -18.5v21q54 6 89.5 35z" />
    <glyph glyph-name="Ncaron" unicode="&#x147;" horiz-adv-x="797" 
d="M782 700v-21l-36 -2q-33 -1 -54.5 -26.5t-21.5 -62.5v-588h-32l-456 588v-476q0 -35 22 -61t52 -28l51 -2v-21h-267v21l37 2q32 1 53.5 27t21.5 62v499l-15 19q-20 26 -45 36.5t-67 12.5v21h195l419 -549v437q0 36 -21.5 61.5t-52.5 27.5l-52 2v21h269zM557 938
l-128 -162h-52l-128 162h31l123 -91l123 91h31z" />
    <glyph glyph-name="ncaron" unicode="&#x148;" horiz-adv-x="612" 
d="M602 18v-18h-252v18l18 1q61 3 61 67v244q0 66 -27 100t-79 34q-38 0 -74 -17.5t-60 -47.5v-313q0 -30 15.5 -48t45.5 -19l19 -1v-18h-254v18l19 1q29 2 46.5 18t17.5 49v307q0 32 -17 48.5t-48 16.5h-14v19l165 36v-100q29 44 81.5 72t108.5 28q69 0 107.5 -43.5
t38.5 -123.5v-260q0 -31 17 -48t47 -19zM314 661l123 91h31l-128 -162h-52l-128 162h31z" />
    <glyph glyph-name="napostrophe" unicode="&#x149;" horiz-adv-x="838" 
d="M828 18v-18h-252v18l18 1q61 3 61 67v244q0 66 -27 100t-79 34q-38 0 -74 -17.5t-60 -47.5v-313q0 -30 15.5 -48t45.5 -19l19 -1v-18h-254v18l19 1q29 2 46.5 18t17.5 49v307q0 32 -17 48.5t-48 16.5h-14v19l165 36v-100q29 44 81.5 72t108.5 28q69 0 107.5 -43.5
t38.5 -123.5v-260q0 -31 17 -48t47 -19zM134.5 496q35.5 29 35.5 63q0 16 -8 25.5t-20 14t-22 6.5l-19 6q-42 14 -42 51q0 24 16 39.5t43 15.5q38 0 61.5 -32.5t23.5 -84.5q0 -55 -26.5 -90t-62.5 -51.5t-69 -18.5v21q54 6 89.5 35z" />
    <glyph glyph-name="Eng" unicode="&#x14a;" horiz-adv-x="797" 
d="M782 700v-21l-36 -2q-33 -2 -54.5 -27t-21.5 -62v-535q0 -62 -19.5 -107t-57 -81.5t-101.5 -80.5l-10 12l23 28q40 50 57 104.5t17 121.5v26l-397 512v-476q0 -35 22 -61t52 -28l51 -2v-21h-267v21l37 2q32 1 53.5 27t21.5 62v499l-15 19q-20 26 -45 36.5t-67 12.5v21
h195l419 -549v437q0 36 -21.5 61.5t-52.5 27.5l-52 2v21h269z" />
    <glyph glyph-name="eng" unicode="&#x14b;" horiz-adv-x="580" 
d="M481.5 469.5q38.5 -43.5 38.5 -123.5v-293q0 -62 -19.5 -107t-57 -81.5t-101.5 -80.5l-10 12l23 28q41 49 57.5 103.5t16.5 122.5v280q0 66 -27 100t-79 34q-38 0 -74 -17.5t-60 -47.5v-313q0 -30 15.5 -48t45.5 -19l19 -1v-18h-254v18l19 1q29 2 46.5 18t17.5 49v307
q0 32 -17 48.5t-48 16.5h-14v19l165 36v-100q29 44 81.5 72t108.5 28q69 0 107.5 -43.5z" />
    <glyph glyph-name="Omacron" unicode="&#x14c;" horiz-adv-x="759" 
d="M207 30q-78 48 -122.5 132.5t-44.5 189.5q0 104 44 187.5t121.5 130.5t172.5 47q96 0 174 -48t122.5 -132.5t44.5 -189.5q0 -104 -44 -187.5t-121.5 -130.5t-172.5 -47q-96 0 -174 48zM512 41q45 39 70 108.5t25 158.5q0 105 -34 194.5t-92.5 142t-127.5 52.5
q-59 0 -104 -39t-70 -109t-25 -159q0 -105 34 -194.5t92 -141.5t127 -52q60 0 105 39zM231 776v65h298v-65h-298z" />
    <glyph glyph-name="omacron" unicode="&#x14d;" horiz-adv-x="546" 
d="M399.5 479q55.5 -34 86 -93.5t30.5 -134.5q0 -74 -31 -134t-86.5 -94t-126.5 -34t-126 33.5t-85.5 93t-30.5 133.5q0 75 31 135t86.5 94.5t125.5 34.5q71 0 126.5 -34zM383.5 54.5q31.5 52.5 31.5 149.5q0 88 -20.5 155t-57 104t-84.5 37q-57 0 -89 -53t-32 -149
q0 -87 20.5 -154t57.5 -104.5t84 -37.5q58 0 89.5 52.5zM124 600v66h298v-66h-298z" />
    <glyph glyph-name="Obreve" unicode="&#x14e;" horiz-adv-x="759" 
d="M207 30q-78 48 -122.5 132.5t-44.5 189.5q0 104 44 187.5t121.5 130.5t172.5 47q96 0 174 -48t122.5 -132.5t44.5 -189.5q0 -104 -44 -187.5t-121.5 -130.5t-172.5 -47q-96 0 -174 48zM512 41q45 39 70 108.5t25 158.5q0 105 -34 194.5t-92.5 142t-127.5 52.5
q-59 0 -104 -39t-70 -109t-25 -159q0 -105 34 -194.5t92 -141.5t127 -52q60 0 105 39zM499 877q0 -45 -29.5 -76t-90.5 -31t-90 31t-29 76q0 24 7 42h21q-3 -15 -3 -27q0 -31 26.5 -47t67.5 -16t68 16t27 47q0 12 -3 27h21q7 -18 7 -42z" />
    <glyph glyph-name="obreve" unicode="&#x14f;" horiz-adv-x="546" 
d="M399.5 479q55.5 -34 86 -93.5t30.5 -134.5q0 -74 -31 -134t-86.5 -94t-126.5 -34t-126 33.5t-85.5 93t-30.5 133.5q0 75 31 135t86.5 94.5t125.5 34.5q71 0 126.5 -34zM383.5 54.5q31.5 52.5 31.5 149.5q0 88 -20.5 155t-57 104t-84.5 37q-57 0 -89 -53t-32 -149
q0 -87 20.5 -154t57.5 -104.5t84 -37.5q58 0 89.5 52.5zM393 697q0 -45 -29.5 -76t-90.5 -31t-90 31t-29 76q0 24 7 42h21q-3 -15 -3 -27q0 -31 26.5 -47t67.5 -16t68 16t27 47q0 12 -3 27h21q7 -18 7 -42z" />
    <glyph glyph-name="Ohungarumlaut" unicode="&#x150;" horiz-adv-x="759" 
d="M207 30q-78 48 -122.5 132.5t-44.5 189.5q0 104 44 187.5t121.5 130.5t172.5 47q96 0 174 -48t122.5 -132.5t44.5 -189.5q0 -104 -44 -187.5t-121.5 -130.5t-172.5 -47q-96 0 -174 48zM512 41q45 39 70 108.5t25 158.5q0 105 -34 194.5t-92.5 142t-127.5 52.5
q-59 0 -104 -39t-70 -109t-25 -159q0 -105 34 -194.5t92 -141.5t127 -52q60 0 105 39zM330 776h-57l41 152h68zM462 776h-57l40 150h68z" />
    <glyph glyph-name="ohungarumlaut" unicode="&#x151;" horiz-adv-x="546" 
d="M399.5 479q55.5 -34 86 -93.5t30.5 -134.5q0 -74 -31 -134t-86.5 -94t-126.5 -34t-126 33.5t-85.5 93t-30.5 133.5q0 75 31 135t86.5 94.5t125.5 34.5q71 0 126.5 -34zM383.5 54.5q31.5 52.5 31.5 149.5q0 88 -20.5 155t-57 104t-84.5 37q-57 0 -89 -53t-32 -149
q0 -87 20.5 -154t57.5 -104.5t84 -37.5q58 0 89.5 52.5zM235 590h-57l41 151h68zM366 590h-57l41 151h68z" />
    <glyph glyph-name="OE" unicode="&#x152;" horiz-adv-x="1001" 
d="M956 235l-26 -235h-549q-97 0 -174.5 43.5t-122 123.5t-44.5 185q0 104 44 183t121 122t173 43h545v-199h-19q-14 85 -57 132.5t-126 47.5h-149v-314h105q60 0 83.5 26.5t28.5 88.5h24v-253h-24q-5 63 -28.5 90.5t-83.5 27.5h-105v-250q0 -35 21.5 -56t58.5 -21h71
q163 0 210 215h23zM475 596q0 35 -21.5 59.5t-84.5 24.5q-103 0 -159 -74.5t-56 -207.5q0 -104 32.5 -191t87.5 -137t120 -50q40 0 60.5 19.5t20.5 55.5v501z" />
    <glyph glyph-name="oe" unicode="&#x153;" horiz-adv-x="887" 
d="M771.5 90.5q39.5 21.5 60.5 64.5h16q-19 -77 -71.5 -121.5t-128.5 -44.5q-62 0 -108 29t-72 81q-30 -52 -80 -81t-116 -29q-71 0 -126 33.5t-85.5 93t-30.5 133.5q0 75 31 135t86.5 94.5t125.5 34.5t122.5 -32.5t80.5 -90.5q31 58 82.5 90.5t117.5 32.5q87 0 133 -58.5
t48 -163.5h-339q-1 -7 -1 -16q0 -97 44.5 -151.5t122.5 -54.5q48 0 87.5 21.5zM383.5 54.5q31.5 52.5 31.5 149.5q0 88 -20.5 155t-57 104t-84.5 37q-57 0 -89 -53t-32 -149q0 -87 20.5 -154t57.5 -104.5t84 -37.5q58 0 89.5 52.5zM589 476.5q-29 -23.5 -48 -67t-23 -99.5
h235v14q0 80 -26 128t-75 48q-34 0 -63 -23.5z" />
    <glyph glyph-name="Racute" unicode="&#x154;" horiz-adv-x="682" 
d="M629.5 45.5q19.5 -19.5 42.5 -24.5v-21h-134q-26 33 -50 67l-184 263h-80v-232q0 -34 18 -53.5t51 -21.5l33 -2v-21h-301v21l33 2q33 2 51 20t18 49v516q0 31 -18.5 49t-51.5 20l-32 2v21h330q73 0 125 -24t78.5 -64t26.5 -85q0 -40 -21 -77.5t-62.5 -65t-99.5 -38.5
l183 -248q25 -33 44.5 -52.5zM392 374q39 24 59.5 62.5t20.5 81.5q0 42 -20 79.5t-60 60.5t-97 23h-71v-331h76q53 0 92 24zM294 776l51 149h123l-143 -149h-31z" />
    <glyph glyph-name="racute" unicode="&#x155;" horiz-adv-x="410" 
d="M390 507v-92q-31 9 -60 9q-43 0 -81 -21t-60 -69v-248q0 -32 17.5 -49t46.5 -18l29 -1v-18h-267v18l19 1q29 2 46.5 18.5t17.5 48.5v307q0 32 -17 48.5t-48 16.5h-14v19l165 36v-167q26 82 71 124.5t95 42.5q14 0 40 -6zM207 590l51 149h123l-143 -149h-31z" />
    <glyph glyph-name="uni0156" unicode="&#x156;" horiz-adv-x="682" 
d="M629.5 45.5q19.5 -19.5 42.5 -24.5v-21h-134q-26 33 -50 67l-184 263h-80v-232q0 -34 18 -53.5t51 -21.5l33 -2v-21h-301v21l33 2q33 2 51 20t18 49v516q0 31 -18.5 49t-51.5 20l-32 2v21h330q73 0 125 -24t78.5 -64t26.5 -85q0 -40 -21 -77.5t-62.5 -65t-99.5 -38.5
l183 -248q25 -33 44.5 -52.5zM392 374q39 24 59.5 62.5t20.5 81.5q0 42 -20 79.5t-60 60.5t-97 23h-71v-331h76q53 0 92 24zM404.5 -297q35.5 29 35.5 63q0 16 -8 25.5t-20 14t-22 6.5l-19 6q-42 14 -42 51q0 24 16 39.5t43 15.5q38 0 61.5 -32.5t23.5 -84.5
q0 -55 -26.5 -90t-62.5 -51.5t-69 -18.5v21q54 6 89.5 35z" />
    <glyph glyph-name="uni0157" unicode="&#x157;" horiz-adv-x="410" 
d="M390 507v-92q-31 9 -60 9q-43 0 -81 -21t-60 -69v-248q0 -32 17.5 -49t46.5 -18l29 -1v-18h-267v18l19 1q29 2 46.5 18.5t17.5 48.5v307q0 32 -17 48.5t-48 16.5h-14v19l165 36v-167q26 82 71 124.5t95 42.5q14 0 40 -6zM180.5 -298q35.5 29 35.5 63q0 16 -8 25.5t-20 14
t-22 6.5l-19 6q-42 14 -42 51q0 24 16 39.5t43 15.5q38 0 61.5 -32.5t23.5 -84.5q0 -55 -26.5 -90t-62.5 -51.5t-69 -18.5v21q54 6 89.5 35z" />
    <glyph glyph-name="Rcaron" unicode="&#x158;" horiz-adv-x="682" 
d="M629.5 45.5q19.5 -19.5 42.5 -24.5v-21h-134q-26 33 -50 67l-184 263h-80v-232q0 -34 18 -53.5t51 -21.5l33 -2v-21h-301v21l33 2q33 2 51 20t18 49v516q0 31 -18.5 49t-51.5 20l-32 2v21h330q73 0 125 -24t78.5 -64t26.5 -85q0 -40 -21 -77.5t-62.5 -65t-99.5 -38.5
l183 -248q25 -33 44.5 -52.5zM392 374q39 24 59.5 62.5t20.5 81.5q0 42 -20 79.5t-60 60.5t-97 23h-71v-331h76q53 0 92 24zM460 938l-128 -162h-52l-128 162h31l123 -91l123 91h31z" />
    <glyph glyph-name="rcaron" unicode="&#x159;" horiz-adv-x="410" 
d="M390 507v-92q-31 9 -60 9q-43 0 -81 -21t-60 -69v-248q0 -32 17.5 -49t46.5 -18l29 -1v-18h-267v18l19 1q29 2 46.5 18.5t17.5 48.5v307q0 32 -17 48.5t-48 16.5h-14v19l165 36v-167q26 82 71 124.5t95 42.5q14 0 40 -6zM229 661l123 91h31l-128 -162h-52l-128 162h31z
" />
    <glyph glyph-name="Sacute" unicode="&#x15a;" horiz-adv-x="586" 
d="M151.5 488.5q24.5 -29.5 61 -47.5t99.5 -40q77 -27 122 -49t78.5 -63t33.5 -105q0 -58 -28.5 -104t-81 -72t-120.5 -26q-69 0 -129 25.5t-100 71.5t-52 105h122q5 -53 30 -94.5t64 -64.5t85 -23q61 0 101.5 37t40.5 94q0 46 -26.5 76t-63 47.5t-106.5 43.5
q-72 27 -117.5 51t-76.5 64.5t-31 101.5q0 59 28 104.5t80.5 70.5t122.5 25q98 0 166 -49t89 -135h-121q-10 80 -49.5 122t-103.5 42q-62 0 -102 -37t-40 -97q0 -45 24.5 -74.5zM274 776l51 149h123l-143 -149h-31z" />
    <glyph glyph-name="sacute" unicode="&#x15b;" horiz-adv-x="452" 
d="M123 355q17 -20 43 -32t70 -25q63 -20 98 -34.5t61.5 -45.5t26.5 -82q0 -68 -48.5 -107.5t-126.5 -39.5q-86 0 -144.5 44t-72.5 116h103q10 -69 42 -108t87 -39q45 0 71.5 25t26.5 65q0 33 -18 54t-45.5 33t-73.5 26q-57 18 -91.5 33.5t-59 46t-24.5 79.5
q0 70 49.5 109.5t127.5 39.5q74 0 125 -37t67 -100h-103q-5 57 -35 90.5t-78 33.5q-42 0 -68.5 -26t-26.5 -67q0 -32 17 -52zM203 590l51 149h123l-143 -149h-31z" />
    <glyph glyph-name="Scircumflex" unicode="&#x15c;" horiz-adv-x="586" 
d="M151.5 488.5q24.5 -29.5 61 -47.5t99.5 -40q77 -27 122 -49t78.5 -63t33.5 -105q0 -58 -28.5 -104t-81 -72t-120.5 -26q-69 0 -129 25.5t-100 71.5t-52 105h122q5 -53 30 -94.5t64 -64.5t85 -23q61 0 101.5 37t40.5 94q0 46 -26.5 76t-63 47.5t-106.5 43.5
q-72 27 -117.5 51t-76.5 64.5t-31 101.5q0 59 28 104.5t80.5 70.5t122.5 25q98 0 166 -49t89 -135h-121q-10 80 -49.5 122t-103.5 42q-62 0 -102 -37t-40 -97q0 -45 24.5 -74.5zM297 867l-123 -91h-31l128 162h52l128 -162h-31z" />
    <glyph glyph-name="scircumflex" unicode="&#x15d;" horiz-adv-x="452" 
d="M123 355q17 -20 43 -32t70 -25q63 -20 98 -34.5t61.5 -45.5t26.5 -82q0 -68 -48.5 -107.5t-126.5 -39.5q-86 0 -144.5 44t-72.5 116h103q10 -69 42 -108t87 -39q45 0 71.5 25t26.5 65q0 33 -18 54t-45.5 33t-73.5 26q-57 18 -91.5 33.5t-59 46t-24.5 79.5
q0 70 49.5 109.5t127.5 39.5q74 0 125 -37t67 -100h-103q-5 57 -35 90.5t-78 33.5q-42 0 -68.5 -26t-26.5 -67q0 -32 17 -52zM226 681l-123 -91h-31l128 162h52l128 -162h-31z" />
    <glyph glyph-name="Scedilla" unicode="&#x15e;" horiz-adv-x="586" 
d="M519.5 83q-26.5 -45 -75.5 -71.5t-114 -29.5v-45q52 0 80 -20t28 -52q0 -33 -26.5 -55.5t-67.5 -22.5q-56 0 -104 43l16 25q17 -11 39 -17t41 -6q20 0 33 8.5t13 25.5q0 44 -89 43l11 73q-67 2 -124 28.5t-95.5 71.5t-49.5 102h122q5 -53 30 -94.5t64 -64.5t85 -23
q61 0 101.5 37t40.5 94q0 46 -26.5 76t-63 47.5t-106.5 43.5q-72 27 -117.5 51t-76.5 64.5t-31 101.5q0 59 28 104.5t80.5 70.5t122.5 25q98 0 166 -49t89 -135h-121q-10 80 -49.5 122t-103.5 42q-62 0 -102 -37t-40 -97q0 -45 24.5 -74.5t61 -47.5t99.5 -40q77 -27 122 -49
t78.5 -63t33.5 -105q0 -56 -26.5 -101z" />
    <glyph glyph-name="scedilla" unicode="&#x15f;" horiz-adv-x="452" 
d="M375.5 30q-46.5 -39 -122.5 -41v-52q52 0 80 -20t28 -52q0 -33 -26.5 -55.5t-67.5 -22.5q-56 0 -104 43l16 25q17 -11 39 -17t41 -6q20 0 33 8.5t13 25.5q0 44 -89 43l12 81q-79 4 -132 47.5t-66 111.5h103q10 -69 42 -108t87 -39q45 0 71.5 25t26.5 65q0 33 -18 54
t-45.5 33t-73.5 26q-57 18 -91.5 33.5t-59 46t-24.5 79.5q0 70 49.5 109.5t127.5 39.5q74 0 125 -37t67 -100h-103q-5 57 -35 90.5t-78 33.5q-42 0 -68.5 -26t-26.5 -67q0 -32 17 -52t43 -32t70 -25q63 -20 98 -34.5t61.5 -45.5t26.5 -82q0 -67 -46.5 -106z" />
    <glyph glyph-name="Scaron" unicode="&#x160;" horiz-adv-x="586" 
d="M151.5 488.5q24.5 -29.5 61 -47.5t99.5 -40q77 -27 122 -49t78.5 -63t33.5 -105q0 -58 -28.5 -104t-81 -72t-120.5 -26q-69 0 -129 25.5t-100 71.5t-52 105h122q5 -53 30 -94.5t64 -64.5t85 -23q61 0 101.5 37t40.5 94q0 46 -26.5 76t-63 47.5t-106.5 43.5
q-72 27 -117.5 51t-76.5 64.5t-31 101.5q0 59 28 104.5t80.5 70.5t122.5 25q98 0 166 -49t89 -135h-121q-10 80 -49.5 122t-103.5 42q-62 0 -102 -37t-40 -97q0 -45 24.5 -74.5zM448 938l-128 -162h-52l-128 162h31l123 -91l123 91h31z" />
    <glyph glyph-name="scaron" unicode="&#x161;" horiz-adv-x="452" 
d="M123 355q17 -20 43 -32t70 -25q63 -20 98 -34.5t61.5 -45.5t26.5 -82q0 -68 -48.5 -107.5t-126.5 -39.5q-86 0 -144.5 44t-72.5 116h103q10 -69 42 -108t87 -39q45 0 71.5 25t26.5 65q0 33 -18 54t-45.5 33t-73.5 26q-57 18 -91.5 33.5t-59 46t-24.5 79.5
q0 70 49.5 109.5t127.5 39.5q74 0 125 -37t67 -100h-103q-5 57 -35 90.5t-78 33.5q-42 0 -68.5 -26t-26.5 -67q0 -32 17 -52zM235 661l123 91h31l-128 -162h-52l-128 162h31z" />
    <glyph glyph-name="uni0162" unicode="&#x162;" horiz-adv-x="679" 
d="M659 501h-20q-18 82 -63.5 131t-116.5 49h-71v-589q0 -31 18.5 -49t50.5 -20l43 -2v-21h-165v-63q52 0 80 -20t28 -52q0 -33 -26.5 -55.5t-67.5 -22.5q-56 0 -104 43l16 25q17 -11 39 -17t41 -6q20 0 33 8.5t13 25.5q0 44 -89 43l14 91h-133v21l43 2q32 2 50.5 20
t18.5 49v589h-71q-72 0 -116.5 -49t-63.5 -131h-20l14 199h611z" />
    <glyph glyph-name="uni0163" unicode="&#x163;" horiz-adv-x="376" 
d="M211 -10v-53q52 0 80 -20t28 -52q0 -33 -26.5 -55.5t-67.5 -22.5q-56 0 -104 43l16 25q17 -11 39 -17t41 -6q20 0 33 8.5t13 25.5q0 44 -89 43l13 85q-41 9 -65.5 36t-24.5 74v381h-87v18q46 10 93 43.5t67 80.5h18v-124h165v-21h-165v-358q0 -52 24 -75t71 -23
q37 0 73 12v-16q-58 -33 -123 -33q-15 0 -22 1z" />
    <glyph glyph-name="Tcaron" unicode="&#x164;" horiz-adv-x="679" 
d="M659 501h-20q-18 82 -63.5 131t-116.5 49h-71v-589q0 -31 18.5 -49t50.5 -20l43 -2v-21h-321v21l43 2q32 2 50.5 20t18.5 49v589h-71q-72 0 -116.5 -49t-63.5 -131h-20l14 199h611zM494 938l-128 -162h-52l-128 162h31l123 -91l123 91h31z" />
    <glyph glyph-name="tcaron" unicode="&#x165;" horiz-adv-x="631" 
d="M188 124q0 -52 24 -75t71 -23q37 0 73 12v-16q-58 -33 -123 -33q-61 0 -98.5 28t-37.5 87v381h-87v18q46 10 93 43.5t67 80.5h18v-124h165v-21h-165v-358zM512.5 496q35.5 29 35.5 63q0 16 -8 25.5t-20 14t-22 6.5l-19 6q-42 14 -42 51q0 24 16 39.5t43 15.5
q38 0 61.5 -32.5t23.5 -84.5q0 -55 -26.5 -90t-62.5 -51.5t-69 -18.5v21q54 6 89.5 35z" />
    <glyph glyph-name="Tbar" unicode="&#x166;" horiz-adv-x="679" 
d="M659 501h-20q-18 82 -63.5 131t-116.5 49h-71v-272h168v-45h-168v-272q0 -31 18.5 -49t50.5 -20l43 -2v-21h-321v21l43 2q32 2 50.5 20t18.5 49v272h-168v45h168v272h-71q-72 0 -116.5 -49t-63.5 -131h-20l14 199h611z" />
    <glyph glyph-name="tbar" unicode="&#x167;" horiz-adv-x="376" 
d="M356 38v-16q-58 -33 -123 -33q-61 0 -98.5 28t-37.5 87v203h-87v21h87v157h-87v18q46 10 93 43.5t67 80.5h18v-124h165v-21h-165v-154h151v-21h-151v-183q0 -52 24 -75t71 -23q37 0 73 12z" />
    <glyph glyph-name="Utilde" unicode="&#x168;" horiz-adv-x="800" 
d="M780 700v-22l-37 -2q-32 -2 -54 -27t-22 -61v-353q0 -79 -33 -136t-92.5 -87t-137.5 -30q-82 0 -146 33t-100 94.5t-36 143.5v355q0 31 -18.5 49t-51.5 20l-32 2v21h301v-21l-32 -2q-33 -2 -51.5 -20t-18.5 -49v-375q0 -100 56 -159.5t150 -59.5q62 0 110 26.5t75 75
t27 112.5v360q0 36 -21.5 61t-52.5 27l-50 2v22h267zM544 810q-26 -35 -64 -35q-19 0 -35 7.5t-40 23.5q-22 14 -35.5 21t-28.5 7q-20 0 -38 -13.5t-26 -40.5h-17q4 58 29.5 91.5t63.5 33.5q19 0 36.5 -8t39.5 -24q22 -15 35 -21.5t28 -6.5q21 0 39.5 14.5t21.5 46.5h17
q0 -61 -26 -96z" />
    <glyph glyph-name="utilde" unicode="&#x169;" horiz-adv-x="599" 
d="M584 43v-19l-166 -35v100q-30 -43 -79 -71.5t-102 -28.5q-68 0 -108 46t-40 125v232q0 32 -17 48.5t-48 16.5h-14v20l170 36v-337q0 -64 28.5 -99.5t81.5 -35.5q69 0 123 62v289q0 32 -17 48.5t-48 16.5h-14v20l170 36v-404q0 -32 17.5 -49t48.5 -17h14zM422 625
q-26 -35 -64 -35q-19 0 -35 7.5t-40 23.5q-22 15 -35.5 21.5t-28.5 6.5q-20 0 -38 -13.5t-26 -40.5h-17q4 58 29.5 91.5t63.5 33.5q19 0 36.5 -8t39.5 -24q22 -15 35 -21.5t28 -6.5q21 0 39.5 14.5t21.5 46.5h17q0 -61 -26 -96z" />
    <glyph glyph-name="Umacron" unicode="&#x16a;" horiz-adv-x="800" 
d="M780 700v-22l-37 -2q-32 -2 -54 -27t-22 -61v-353q0 -79 -33 -136t-92.5 -87t-137.5 -30q-82 0 -146 33t-100 94.5t-36 143.5v355q0 31 -18.5 49t-51.5 20l-32 2v21h301v-21l-32 -2q-33 -2 -51.5 -20t-18.5 -49v-375q0 -100 56 -159.5t150 -59.5q62 0 110 26.5t75 75
t27 112.5v360q0 36 -21.5 61t-52.5 27l-50 2v22h267zM251 776v65h298v-65h-298z" />
    <glyph glyph-name="umacron" unicode="&#x16b;" horiz-adv-x="599" 
d="M584 43v-19l-166 -35v100q-30 -43 -79 -71.5t-102 -28.5q-68 0 -108 46t-40 125v232q0 32 -17 48.5t-48 16.5h-14v20l170 36v-337q0 -64 28.5 -99.5t81.5 -35.5q69 0 123 62v289q0 32 -17 48.5t-48 16.5h-14v20l170 36v-404q0 -32 17.5 -49t48.5 -17h14zM145 600v66h298
v-66h-298z" />
    <glyph glyph-name="Ubreve" unicode="&#x16c;" horiz-adv-x="800" 
d="M780 700v-22l-37 -2q-32 -2 -54 -27t-22 -61v-353q0 -79 -33 -136t-92.5 -87t-137.5 -30q-82 0 -146 33t-100 94.5t-36 143.5v355q0 31 -18.5 49t-51.5 20l-32 2v21h301v-21l-32 -2q-33 -2 -51.5 -20t-18.5 -49v-375q0 -100 56 -159.5t150 -59.5q62 0 110 26.5t75 75
t27 112.5v360q0 36 -21.5 61t-52.5 27l-50 2v22h267zM520 877q0 -45 -29.5 -76t-90.5 -31t-90 31t-29 76q0 24 7 42h21q-3 -15 -3 -27q0 -31 26.5 -47t67.5 -16t68 16t27 47q0 12 -3 27h21q7 -18 7 -42z" />
    <glyph glyph-name="ubreve" unicode="&#x16d;" horiz-adv-x="599" 
d="M584 43v-19l-166 -35v100q-30 -43 -79 -71.5t-102 -28.5q-68 0 -108 46t-40 125v232q0 32 -17 48.5t-48 16.5h-14v20l170 36v-337q0 -64 28.5 -99.5t81.5 -35.5q69 0 123 62v289q0 32 -17 48.5t-48 16.5h-14v20l170 36v-404q0 -32 17.5 -49t48.5 -17h14zM416 697
q0 -45 -29.5 -76t-90.5 -31t-90 31t-29 76q0 24 7 42h21q-3 -15 -3 -27q0 -31 26.5 -47t67.5 -16t68 16t27 47q0 12 -3 27h21q7 -18 7 -42z" />
    <glyph glyph-name="Uring" unicode="&#x16e;" horiz-adv-x="800" 
d="M780 700v-22l-37 -2q-32 -2 -54 -27t-22 -61v-353q0 -79 -33 -136t-92.5 -87t-137.5 -30q-82 0 -146 33t-100 94.5t-36 143.5v355q0 31 -18.5 49t-51.5 20l-32 2v21h301v-21l-32 -2q-33 -2 -51.5 -20t-18.5 -49v-375q0 -100 56 -159.5t150 -59.5q62 0 110 26.5t75 75
t27 112.5v360q0 36 -21.5 61t-52.5 27l-50 2v22h267zM333 924q27 26 67 26t67 -26t27 -67t-27 -68.5t-67 -27.5t-67 27.5t-27 68.5t27 67zM440.5 898.5q-16.5 16.5 -40.5 16.5q-25 0 -41 -16.5t-16 -41.5q0 -26 16 -43.5t41 -17.5q24 0 40.5 17.5t16.5 43.5q0 25 -16.5 41.5
z" />
    <glyph glyph-name="uring" unicode="&#x16f;" horiz-adv-x="599" 
d="M584 43v-19l-166 -35v100q-30 -43 -79 -71.5t-102 -28.5q-68 0 -108 46t-40 125v232q0 32 -17 48.5t-48 16.5h-14v20l170 36v-337q0 -64 28.5 -99.5t81.5 -35.5q69 0 123 62v289q0 32 -17 48.5t-48 16.5h-14v20l170 36v-404q0 -32 17.5 -49t48.5 -17h14zM213.5 768
q29.5 29 73.5 29q43 0 73 -29t30 -74t-29.5 -74.5t-73.5 -29.5t-73.5 29.5t-29.5 74.5t29.5 74zM333 741.5q-19 19.5 -46 19.5q-28 0 -46.5 -19.5t-18.5 -47.5t19 -48t46 -20t46 20t19 48t-19 47.5z" />
    <glyph glyph-name="Uhungarumlaut" unicode="&#x170;" horiz-adv-x="800" 
d="M780 700v-22l-37 -2q-32 -2 -54 -27t-22 -61v-353q0 -79 -33 -136t-92.5 -87t-137.5 -30q-82 0 -146 33t-100 94.5t-36 143.5v355q0 31 -18.5 49t-51.5 20l-32 2v21h301v-21l-32 -2q-33 -2 -51.5 -20t-18.5 -49v-375q0 -100 56 -159.5t150 -59.5q62 0 110 26.5t75 75
t27 112.5v360q0 36 -21.5 61t-52.5 27l-50 2v22h267zM345 776h-57l41 152h68zM477 776h-57l40 150h68z" />
    <glyph glyph-name="uhungarumlaut" unicode="&#x171;" horiz-adv-x="599" 
d="M584 43v-19l-166 -35v100q-30 -43 -79 -71.5t-102 -28.5q-68 0 -108 46t-40 125v232q0 32 -17 48.5t-48 16.5h-14v20l170 36v-337q0 -64 28.5 -99.5t81.5 -35.5q69 0 123 62v289q0 32 -17 48.5t-48 16.5h-14v20l170 36v-404q0 -32 17.5 -49t48.5 -17h14zM246 590h-57
l41 151h68zM377 590h-57l41 151h68z" />
    <glyph glyph-name="Uogonek" unicode="&#x172;" horiz-adv-x="800" 
d="M780 700v-22l-37 -2q-32 -2 -54 -27t-22 -61v-353q0 -115 -68 -181.5t-181 -71.5q-5 -12 -5 -24q0 -27 23.5 -45.5t55.5 -20.5v-58q-59 5 -97 35t-38 71q0 24 14 43q-74 7 -130 42t-87.5 93.5t-31.5 134.5v355q0 31 -18.5 49t-51.5 20l-32 2v21h301v-21l-32 -2
q-33 -2 -51.5 -20t-18.5 -49v-375q0 -100 56 -159.5t150 -59.5q62 0 110 26.5t75 75t27 112.5v360q0 36 -21.5 61t-52.5 27l-50 2v22h267z" />
    <glyph glyph-name="uogonek" unicode="&#x173;" horiz-adv-x="599" 
d="M480 2q-20 -20 -20 -44q0 -27 23.5 -45.5t55.5 -20.5v-58q-59 5 -97 35t-38 71q0 27 18 50l-4 -1v100q-30 -43 -79 -71.5t-102 -28.5q-68 0 -108 46t-40 125v232q0 32 -17 48.5t-48 16.5h-14v20l170 36v-337q0 -64 28.5 -99.5t81.5 -35.5q69 0 123 62v289q0 32 -17 48.5
t-48 16.5h-14v20l170 36v-404q0 -32 17.5 -49t48.5 -17h14v-19z" />
    <glyph glyph-name="Wcircumflex" unicode="&#x174;" horiz-adv-x="1040" 
d="M1030 700v-22q-42 -4 -68.5 -28.5t-41.5 -68.5l-202 -581h-25l-174 475l-171 -475h-27l-222 608q-23 63 -89 70v22h269v-21q-78 -1 -78 -54q0 -11 5 -28l162 -477l134 401l-32 87q-11 30 -33.5 48t-54.5 22v22h270v-21q-39 -1 -59.5 -14.5t-20.5 -38.5q0 -9 6 -29
l161 -470l144 442q9 27 9 46q0 32 -22 47.5t-69 16.5v21h229zM520 867l-123 -91h-31l128 162h52l128 -162h-31z" />
    <glyph glyph-name="wcircumflex" unicode="&#x175;" horiz-adv-x="842" 
d="M832 503v-19q-24 -5 -46 -26.5t-36 -51.5l-179 -406h-22l-128 311l-139 -311h-24l-183 424q-24 54 -65 60v19h219v-19q-57 -1 -57 -42q0 -14 8 -34l125 -311l102 247l-33 80q-22 54 -58 59v20h212v-19q-31 -1 -44.5 -11.5t-13.5 -30.5q0 -13 8 -34l116 -306l122 297
q6 15 6 28q0 25 -21.5 40.5t-56.5 16.5v19h188zM421 681l-123 -91h-31l128 162h52l128 -162h-31z" />
    <glyph glyph-name="Ycircumflex" unicode="&#x176;" horiz-adv-x="663" 
d="M658 700v-23q-43 -7 -67.5 -29.5t-51.5 -67.5l-157 -265v-223q0 -31 18.5 -49t50.5 -20l43 -2v-21h-321v21l43 2q32 2 50.5 20t18.5 49v181l-196 335q-37 63 -84 70v22h270v-21q-35 -1 -54 -17t-19 -40q0 -17 10 -34l150 -262l137 245q16 28 16 50q0 27 -24 42t-68 16v21
h235zM332 867l-123 -91h-31l128 162h52l128 -162h-31z" />
    <glyph glyph-name="ycircumflex" unicode="&#x177;" horiz-adv-x="586" 
d="M576 503v-19q-28 -6 -43.5 -27t-25.5 -45.5t-14 -32.5l-158 -359q-26 -58 -54 -101t-80 -76.5t-129 -33.5q-29 0 -62 5v86q63 -22 119 -22q107 0 160 97l-194 437q-14 32 -33 50t-48 22v19h243v-19q-31 -1 -45.5 -16t-14.5 -38q0 -19 10 -42l130 -318l126 306
q10 25 10 46q0 59 -90 62v19h193zM308 681l-123 -91h-31l128 162h52l128 -162h-31z" />
    <glyph glyph-name="Ydieresis" unicode="&#x178;" horiz-adv-x="663" 
d="M658 700v-23q-43 -7 -67.5 -29.5t-51.5 -67.5l-157 -265v-223q0 -31 18.5 -49t50.5 -20l43 -2v-21h-321v21l43 2q32 2 50.5 20t18.5 49v181l-196 335q-37 63 -84 70v22h270v-21q-35 -1 -54 -17t-19 -40q0 -17 10 -34l150 -262l137 245q16 28 16 50q0 27 -24 42t-68 16v21
h235zM193 872q15 15 40 15q24 0 38.5 -15t14.5 -40t-14.5 -40.5t-38.5 -15.5q-25 0 -40 15.5t-15 40.5t15 40zM396.5 872q14.5 15 38.5 15q25 0 40 -15t15 -40t-15 -40.5t-40 -15.5q-24 0 -38.5 15t-14.5 41q0 25 14.5 40z" />
    <glyph glyph-name="Zacute" unicode="&#x179;" horiz-adv-x="628" 
d="M583 680l-432 -660h205q164 0 209 215h23l-25 -235h-523v20l434 661h-211q-83 0 -126 -47.5t-57 -132.5h-19v199h522v-20zM282 776l51 149h123l-143 -149h-31z" />
    <glyph glyph-name="zacute" unicode="&#x17a;" horiz-adv-x="482" 
d="M447 167l-20 -167h-397v16l309 467h-125q-67 0 -102.5 -33.5t-46.5 -99.5h-20v153h401v-15l-309 -469h136q63 0 97.5 36t52.5 112h24zM230 590l51 149h123l-143 -149h-31z" />
    <glyph glyph-name="Zdotaccent" unicode="&#x17b;" horiz-adv-x="628" 
d="M583 680l-432 -660h205q164 0 209 215h23l-25 -235h-523v20l434 661h-211q-83 0 -126 -47.5t-57 -132.5h-19v199h522v-20zM283 794.5q-19 18.5 -19 46.5q0 26 19 45t49 19q31 0 49.5 -18.5t18.5 -45.5q0 -28 -18.5 -46.5t-49.5 -18.5q-30 0 -49 18.5z" />
    <glyph glyph-name="zdotaccent" unicode="&#x17c;" horiz-adv-x="482" 
d="M447 167l-20 -167h-397v16l309 467h-125q-67 0 -102.5 -33.5t-46.5 -99.5h-20v153h401v-15l-309 -469h136q63 0 97.5 36t52.5 112h24zM209 608.5q-19 18.5 -19 46.5q0 26 19 45t49 19q31 0 49.5 -18.5t18.5 -45.5q0 -28 -18.5 -46.5t-49.5 -18.5q-30 0 -49 18.5z" />
    <glyph glyph-name="Zcaron" unicode="&#x17d;" horiz-adv-x="628" 
d="M583 680l-432 -660h205q164 0 209 215h23l-25 -235h-523v20l434 661h-211q-83 0 -126 -47.5t-57 -132.5h-19v199h522v-20zM482 938l-128 -162h-52l-128 162h31l123 -91l123 91h31z" />
    <glyph glyph-name="zcaron" unicode="&#x17e;" horiz-adv-x="482" 
d="M447 167l-20 -167h-397v16l309 467h-125q-67 0 -102.5 -33.5t-46.5 -99.5h-20v153h401v-15l-309 -469h136q63 0 97.5 36t52.5 112h24zM255 661l123 91h31l-128 -162h-52l-128 162h31z" />
    <glyph glyph-name="longs" unicode="&#x17f;" horiz-adv-x="377" 
d="M186.5 680q-39.5 -29 -39.5 -82q0 -25 7.5 -44.5t23.5 -45.5q16 -27 24 -48t8 -48v-325q0 -30 17 -47.5t47 -19.5l39 -2v-18h-277v18l18 1q64 5 64 69v394h-118v21h118v38q0 116 58.5 183t158.5 67q37 0 72 -8v-91q-61 17 -112 17q-69 0 -108.5 -29z" />
    <glyph glyph-name="florin" unicode="&#x192;" horiz-adv-x="640" 
d="M315.5 607q-38.5 -29 -38.5 -83q0 -48 30.5 -71.5t83.5 -23.5h111v-21h-159v-136q0 -82 -15 -142t-68.5 -102.5t-159.5 -45.5v18q92 7 122 77t30 185v146h-108v21h108v40q0 76 26 132t73.5 86t110.5 30q42 0 79 -9v-92q-27 9 -60 14.5t-61 5.5q-66 0 -104.5 -29z" />
    <glyph glyph-name="Aringacute" unicode="&#x1fa;" horiz-adv-x="744" 
d="M364 957l41 119h98l-114 -119h-25zM315.5 893.5q25.5 24.5 63.5 24.5t64 -25t26 -63q0 -39 -26 -65t-64 -26t-63.5 26t-25.5 65t25.5 63.5zM417.5 869q-15.5 16 -38.5 16t-38.5 -16t-15.5 -39q0 -24 15.5 -41t38.5 -17t38.5 17t15.5 41q0 23 -15.5 39zM676 45
q24 -20 58 -24v-21h-291v21q41 0 65 17.5t24 47.5q0 14 -8 32l-52 126h-272l-49 -119q-9 -21 -9 -38q0 -32 26.5 -48.5t73.5 -17.5v-21h-232v21q39 6 62 28t41 63l248 588h21l256 -604q14 -31 38 -51zM462 266l-128 306l-125 -306h253z" />
    <glyph glyph-name="aringacute" unicode="&#x1fb;" horiz-adv-x="534" 
d="M260 768l46 134h111l-129 -134h-28zM216.5 701.5q24.5 23.5 60.5 23.5q35 0 59.5 -23.5t24.5 -60.5t-24.5 -61.5t-59.5 -24.5q-36 0 -60.5 24.5t-24.5 61.5t24.5 60.5zM313 678q-15 15 -36 15q-22 0 -37 -14.5t-15 -37.5t15 -39t37 -16q21 0 36 16t15 39q0 22 -15 37z
M524 33v-18q-40 -26 -85 -26q-78 0 -86 99q-42 -52 -91.5 -75.5t-96.5 -23.5q-60 0 -95 35.5t-35 92.5q0 46 23 74.5t56 43t87 29.5l45 14q58 19 89 46t31 78q0 46 -26.5 72t-71.5 26q-52 0 -83.5 -40t-38.5 -118h-103q12 84 71.5 127.5t152.5 43.5q84 0 127.5 -38
t43.5 -109v-264q0 -77 51 -77q19 0 35 8zM346 308q-18 -17 -39.5 -27t-54.5 -20q-6 -2 -43.5 -13.5t-55.5 -36t-18 -63.5q0 -50 24.5 -80.5t67.5 -30.5q34 0 67.5 18.5t51.5 46.5v206z" />
    <glyph glyph-name="AEacute" unicode="&#x1fc;" horiz-adv-x="1010" 
d="M965 235l-26 -235h-556v21l33 2q33 2 51 20t18 49v159h-242l-91 -150q-13 -21 -13 -37q0 -43 91 -43v-21h-220v21q32 4 57 23t47 54l300 485q18 29 18 51q0 18 -15 30t-48 13l-41 2v21h605v-199h-20q-14 85 -57 132.5t-126 47.5h-148v-314h105q60 0 83 26.5t29 88.5h23
v-253h-23q-6 63 -29.5 90.5t-82.5 27.5h-105v-250q0 -35 21.5 -56t57.5 -21h71q163 0 210 215h23zM485 273v379l-229 -379h229zM560 776l51 149h123l-143 -149h-31z" />
    <glyph glyph-name="aeacute" unicode="&#x1fd;" horiz-adv-x="803" 
d="M688 90.5q40 21.5 60 64.5h17q-20 -77 -72.5 -121.5t-128.5 -44.5q-65 0 -115 32t-77 90q-45 -66 -100 -94t-107 -28q-60 0 -95 35.5t-35 92.5q0 47 23 75.5t56.5 43t89.5 30.5l42 12q58 19 89 46t31 78q0 46 -26.5 72t-71.5 26q-52 0 -83.5 -40t-38.5 -118h-103
q12 84 71.5 127.5t152.5 43.5q64 0 100 -24t50 -72q29 46 73.5 71t101.5 25q87 0 133 -58.5t48 -163.5h-339q-1 -6 -1 -14q1 -98 45 -153t122 -55q48 0 88 21.5zM505 476.5q-29 -23.5 -47.5 -67t-22.5 -99.5h234v14q0 80 -26 128t-75 48q-34 0 -63 -23.5zM305 63.5
q41 26.5 61 61.5q-20 49 -20 112v71q-17 -17 -37.5 -26t-56.5 -21q-8 -3 -45 -14.5t-54.5 -35.5t-17.5 -63q0 -50 24 -80.5t66 -30.5q39 0 80 26.5zM390 590l51 149h123l-143 -149h-31z" />
    <glyph glyph-name="Oslashacute" unicode="&#x1fe;" horiz-adv-x="759" 
d="M692.5 496.5q26.5 -69.5 26.5 -149.5q0 -104 -44 -187.5t-121.5 -130.5t-172.5 -47q-116 0 -204 69l-61 -78l-39 31l63 81q-47 50 -73.5 118.5t-26.5 148.5q0 104 44 187.5t121.5 130.5t172.5 47q115 0 202 -67l62 79l40 -31l-64 -82q48 -50 74.5 -119.5zM201 163
l330 423q-35 53 -81 82t-97 29q-59 0 -104 -39t-70 -109t-25 -159q0 -127 47 -227zM512 41q45 39 70 108.5t25 158.5q0 128 -49 231l-330 -423q35 -54 81 -84t98 -30q60 0 105 39zM370 776l51 149h123l-143 -149h-31z" />
    <glyph glyph-name="oslashacute" unicode="&#x1ff;" horiz-adv-x="546" 
d="M498 356.5q18 -48.5 18 -105.5q0 -74 -31 -134t-86.5 -94t-126.5 -34q-82 0 -143 45l-48 -61l-34 25l50 64q-32 36 -49.5 84t-17.5 103q0 75 31 135t86.5 94.5t125.5 34.5q81 0 141 -44l53 68l33 -28l-53 -68q33 -36 51 -84.5zM155 136l217 279q-21 41 -52 63t-67 22
q-57 0 -89 -53t-32 -149q0 -93 23 -162zM383.5 54.5q31.5 52.5 31.5 149.5t-24 166l-218 -279q22 -43 53 -66t68 -23q58 0 89.5 52.5zM230 590l51 149h123l-143 -149h-31z" />
    <glyph glyph-name="uni0218" unicode="&#x218;" horiz-adv-x="586" 
d="M151.5 488.5q24.5 -29.5 61 -47.5t99.5 -40q77 -27 122 -49t78.5 -63t33.5 -105q0 -58 -28.5 -104t-81 -72t-120.5 -26q-69 0 -129 25.5t-100 71.5t-52 105h122q5 -53 30 -94.5t64 -64.5t85 -23q61 0 101.5 37t40.5 94q0 46 -26.5 76t-63 47.5t-106.5 43.5
q-72 27 -117.5 51t-76.5 64.5t-31 101.5q0 59 28 104.5t80.5 70.5t122.5 25q98 0 166 -49t89 -135h-121q-10 80 -49.5 122t-103.5 42q-62 0 -102 -37t-40 -97q0 -45 24.5 -74.5zM350.5 -297q35.5 29 35.5 63q0 16 -8 25.5t-20 14t-22 6.5l-19 6q-42 14 -42 51q0 24 16 39.5
t43 15.5q38 0 61.5 -32.5t23.5 -84.5q0 -55 -26.5 -90t-62.5 -51.5t-69 -18.5v21q54 6 89.5 35z" />
    <glyph glyph-name="uni0219" unicode="&#x219;" horiz-adv-x="452" 
d="M123 355q17 -20 43 -32t70 -25q63 -20 98 -34.5t61.5 -45.5t26.5 -82q0 -68 -48.5 -107.5t-126.5 -39.5q-86 0 -144.5 44t-72.5 116h103q10 -69 42 -108t87 -39q45 0 71.5 25t26.5 65q0 33 -18 54t-45.5 33t-73.5 26q-57 18 -91.5 33.5t-59 46t-24.5 79.5
q0 70 49.5 109.5t127.5 39.5q74 0 125 -37t67 -100h-103q-5 57 -35 90.5t-78 33.5q-42 0 -68.5 -26t-26.5 -67q0 -32 17 -52zM269.5 -298q35.5 29 35.5 63q0 16 -8 25.5t-20 14t-22 6.5l-19 6q-42 14 -42 51q0 24 16 39.5t43 15.5q38 0 61.5 -32.5t23.5 -84.5
q0 -55 -26.5 -90t-62.5 -51.5t-69 -18.5v21q54 6 89.5 35z" />
    <glyph glyph-name="uni021A" unicode="&#x21a;" horiz-adv-x="679" 
d="M659 501h-20q-18 82 -63.5 131t-116.5 49h-71v-589q0 -31 18.5 -49t50.5 -20l43 -2v-21h-321v21l43 2q32 2 50.5 20t18.5 49v589h-71q-72 0 -116.5 -49t-63.5 -131h-20l14 199h611zM361.5 -297q35.5 29 35.5 63q0 16 -8 25.5t-20 14t-22 6.5l-19 6q-42 14 -42 51
q0 24 16 39.5t43 15.5q38 0 61.5 -32.5t23.5 -84.5q0 -55 -26.5 -90t-62.5 -51.5t-69 -18.5v21q54 6 89.5 35z" />
    <glyph glyph-name="uni021B" unicode="&#x21b;" horiz-adv-x="376" 
d="M188 124q0 -52 24 -75t71 -23q37 0 73 12v-16q-58 -33 -123 -33q-61 0 -98.5 28t-37.5 87v381h-87v18q46 10 93 43.5t67 80.5h18v-124h165v-21h-165v-358zM225.5 -298q35.5 29 35.5 63q0 16 -8 25.5t-20 14t-22 6.5l-19 6q-42 14 -42 51q0 24 16 39.5t43 15.5
q38 0 61.5 -32.5t23.5 -84.5q0 -55 -26.5 -90t-62.5 -51.5t-69 -18.5v21q54 6 89.5 35z" />
    <glyph glyph-name="circumflex" unicode="&#x2c6;" horiz-adv-x="308" 
d="M154 681l-123 -91h-31l128 162h52l128 -162h-31z" />
    <glyph glyph-name="caron" unicode="&#x2c7;" horiz-adv-x="308" 
d="M154 661l123 91h31l-128 -162h-52l-128 162h31z" />
    <glyph glyph-name="uni02C9" unicode="&#x2c9;" horiz-adv-x="298" 
d="M0 775v66h298v-66h-298z" />
    <glyph glyph-name="breve" unicode="&#x2d8;" horiz-adv-x="239" 
d="M239 697q0 -45 -29.5 -76t-90.5 -31t-90 31t-29 76q0 24 7 42h21q-3 -15 -3 -27q0 -31 26.5 -47t67.5 -16t68 16t27 47q0 12 -3 27h21q7 -18 7 -42z" />
    <glyph glyph-name="dotaccent" unicode="&#x2d9;" horiz-adv-x="136" 
d="M19 608.5q-19 18.5 -19 46.5q0 26 19 45t49 19q31 0 49.5 -18.5t18.5 -45.5q0 -28 -18.5 -46.5t-49.5 -18.5q-30 0 -49 18.5z" />
    <glyph glyph-name="ring" unicode="&#x2da;" horiz-adv-x="206" 
d="M29.5 768q29.5 29 73.5 29q43 0 73 -29t30 -74t-29.5 -74.5t-73.5 -29.5t-73.5 29.5t-29.5 74.5t29.5 74zM149 741.5q-19 19.5 -46 19.5q-28 0 -46.5 -19.5t-18.5 -47.5t19 -48t46 -20t46 20t19 48t-19 47.5z" />
    <glyph glyph-name="ogonek" unicode="&#x2db;" horiz-adv-x="135" 
d="M135 -166q-59 5 -97 35t-38 71q0 21 10.5 38.5t28.5 29.5h43q-26 -23 -26 -50t23.5 -45.5t55.5 -20.5v-58z" />
    <glyph glyph-name="tilde" unicode="&#x2dc;" horiz-adv-x="310" 
d="M284 625q-26 -35 -64 -35q-19 0 -35 7.5t-40 23.5q-22 15 -35.5 21.5t-28.5 6.5q-20 0 -38 -13.5t-26 -40.5h-17q4 58 29.5 91.5t63.5 33.5q19 0 36.5 -8t39.5 -24q22 -15 35 -21.5t28 -6.5q21 0 39.5 14.5t21.5 46.5h17q0 -61 -26 -96z" />
    <glyph glyph-name="hungarumlaut" unicode="&#x2dd;" horiz-adv-x="240" 
d="M57 590h-57l41 151h68zM188 590h-57l41 151h68z" />
    <glyph glyph-name="uni0394" unicode="&#x394;" horiz-adv-x="650" 
d="M640 0h-630v21l306 679h11l313 -679v-21zM536 20l-252 548l-242 -548h494z" />
    <glyph glyph-name="uni03A9" unicode="&#x3a9;" horiz-adv-x="746" 
d="M653 0h-247v140q186 83 186 289q0 72 -27 134t-76.5 99t-115.5 37t-115.5 -37t-76.5 -99t-27 -134q0 -206 186 -289v-140h-246v91h214v38q-108 28 -188 101t-80 194q0 78 38.5 145t114 107.5t180.5 40.5t180.5 -40.5t114 -107t38.5 -145.5q0 -121 -79.5 -194t-187.5 -101
v-38h214v-91z" />
    <glyph glyph-name="uni03BC" unicode="&#x3bc;" horiz-adv-x="604" 
d="M589 43v-19l-163 -35v109q-27 -47 -77 -78t-106 -31q-30 0 -58 10v-210h-91v603q0 32 -17 48.5t-48 16.5h-14v20l170 36v-337q0 -64 28 -99.5t81 -35.5q68 0 124 66v285q0 32 -17 48.5t-48 16.5h-14v20l170 36v-405q0 -32 17.5 -48.5t48.5 -16.5h14z" />
    <glyph glyph-name="pi" unicode="&#x3c0;" horiz-adv-x="735" 
d="M556 21q15 0 33 9v-15q-17 -12 -39.5 -19t-43.5 -7q-38 0 -58 29t-20 77v345h-156v-440h-78v440h-139v63h438q62 0 112 10t75 26v-69q-26 -15 -69 -22t-87 -7h-18v-343q0 -77 50 -77z" />
    <glyph glyph-name="uni1E02" unicode="&#x1e02;" horiz-adv-x="642" 
d="M534.5 317q67.5 -50 67.5 -128q0 -53 -33 -96.5t-91 -68t-130 -24.5h-323v21l33 2q33 2 51 20t18 49v516q0 31 -18.5 49t-51.5 20l-32 2v21h350q86 0 138.5 -40.5t52.5 -107.5q0 -45 -27.5 -84t-77.5 -64.5t-114 -30.5q120 -6 187.5 -56zM224 379h59q50 0 90 20t62 55
t22 79q0 64 -42.5 106t-107.5 42h-83v-302zM414.5 41q34.5 21 54 58t19.5 82q0 52 -26 92.5t-73.5 62.5t-109.5 22h-55v-261q0 -35 18 -56t52 -21h44q42 0 76.5 21zM254 794.5q-19 18.5 -19 46.5q0 26 19 45t49 19q31 0 49.5 -18.5t18.5 -45.5q0 -28 -18.5 -46.5
t-49.5 -18.5q-30 0 -49 18.5z" />
    <glyph glyph-name="uni1E03" unicode="&#x1e03;" horiz-adv-x="588" 
d="M452 483q49 -30 77.5 -85.5t28.5 -128.5q0 -81 -34.5 -145t-95.5 -99.5t-136 -35.5q-101 0 -208 63v595q0 31 -17 48t-48 17h-14v19l170 36v-338q31 40 75.5 62t93.5 22q59 0 108 -30zM376 30q38 30 60 83t22 119q0 68 -22.5 118.5t-62 77t-87.5 26.5q-68 0 -111 -43
v-349q43 -62 116 -62q47 0 85 30zM296 608.5q-19 18.5 -19 46.5q0 26 19 45t49 19q31 0 49.5 -18.5t18.5 -45.5q0 -28 -18.5 -46.5t-49.5 -18.5q-30 0 -49 18.5z" />
    <glyph glyph-name="uni1E0A" unicode="&#x1e0a;" horiz-adv-x="744" 
d="M527 659q84 -41 130.5 -115t46.5 -169q0 -97 -48 -183.5t-138 -139t-210 -52.5h-283v21l33 2q33 2 51 20t18 49v516q0 31 -18.5 49t-51.5 20l-32 2v21h309q109 0 193 -41zM461 65q61 45 95 121.5t34 168.5q0 94 -35.5 168t-98.5 116t-144 42h-88v-584q0 -35 21 -56
t56 -21h23q76 0 137 45zM281 794.5q-19 18.5 -19 46.5q0 26 19 45t49 19q31 0 49.5 -18.5t18.5 -45.5q0 -28 -18.5 -46.5t-49.5 -18.5q-30 0 -49 18.5z" />
    <glyph glyph-name="uni1E0B" unicode="&#x1e0b;" horiz-adv-x="605" 
d="M575 43v-19l-165 -35v90q-28 -43 -73.5 -66.5t-99.5 -23.5q-61 0 -108 29.5t-73 85t-26 130.5q0 81 30 144.5t85 99t127 35.5q38 0 74 -10t59 -30v174q0 31 -17.5 48t-47.5 17h-14v19l170 36v-658q0 -32 17.5 -49t47.5 -17h14zM354 54q31 15 51 41v300q-18 48 -51 76.5
t-76 28.5t-77 -29.5t-52.5 -81t-18.5 -114.5q0 -69 21 -122.5t57.5 -83.5t81.5 -30q33 0 64 15zM108 608.5q-19 18.5 -19 46.5q0 26 19 45t49 19q31 0 49.5 -18.5t18.5 -45.5q0 -28 -18.5 -46.5t-49.5 -18.5q-30 0 -49 18.5z" />
    <glyph glyph-name="uni1E1E" unicode="&#x1e1e;" horiz-adv-x="610" 
d="M575 501h-19q-14 85 -57 132.5t-126 47.5h-149v-314h105q60 0 83 26.5t29 88.5h23v-253h-23q-6 63 -29.5 90.5t-82.5 27.5h-105v-249q0 -33 18.5 -53t50.5 -22l53 -2v-21h-321v21l33 2q33 2 51 20t18 49v516q0 31 -18.5 49t-51.5 20l-32 2v21h550v-199zM283 794.5
q-19 18.5 -19 46.5q0 26 19 45t49 19q31 0 49.5 -18.5t18.5 -45.5q0 -28 -18.5 -46.5t-49.5 -18.5q-30 0 -49 18.5z" />
    <glyph glyph-name="uni1E1F" unicode="&#x1e1f;" horiz-adv-x="376" 
d="M264 873q-18 18 -18 44q0 25 18 42.5t46 17.5q29 0 47 -17.5t18 -42.5q0 -26 -18 -44t-47 -18q-28 0 -46 18zM406 692q-61 17 -112 17q-68 0 -107.5 -29t-39.5 -82q0 -47 34 -71t89 -24h97v-21h-158v-395q0 -30 17 -47.5t47 -19.5l39 -2v-18h-276v18l18 1q64 3 64 69v394
h-118v21h118v38q0 115 58 182.5t158 67.5q37 0 72 -8v-91z" />
    <glyph glyph-name="uni1E40" unicode="&#x1e40;" horiz-adv-x="906" 
d="M797 43q18 -18 51 -20l33 -2v-21h-301v21l33 2q33 2 51 20t18 49v506l-234 -587h-33l-248 620v-519q0 -36 21.5 -61.5t52.5 -27.5l49 -2v-21h-265v21l38 2q31 1 52.5 27t21.5 62v497q0 30 -18 48t-51 20l-33 2v21h212l222 -573l219 573h193v-21l-33 -2q-33 -2 -51 -20
t-18 -48v-517q0 -31 18 -49zM404 794.5q-19 18.5 -19 46.5q0 26 19 45t49 19q31 0 49.5 -18.5t18.5 -45.5q0 -28 -18.5 -46.5t-49.5 -18.5q-30 0 -49 18.5z" />
    <glyph glyph-name="uni1E41" unicode="&#x1e41;" horiz-adv-x="936" 
d="M804.5 469.5q38.5 -43.5 38.5 -123.5v-260q0 -64 65 -67l18 -1v-18h-251v18l18 1q59 3 59 67v245q0 68 -30 100.5t-76 32.5q-36 0 -72 -18.5t-58 -47.5v-312q0 -64 59 -67l18 -1v-18h-245v18l18 1q59 3 59 67v245q0 68 -30 100.5t-76 32.5q-36 0 -72 -18.5t-58 -47.5
v-312q0 -64 59 -67l18 -1v-18h-251v18l19 1q29 2 46.5 18t17.5 49v307q0 32 -17 48.5t-48 16.5h-14v19l165 36v-98q29 43 80.5 70.5t106.5 27.5q54 0 91 -27t47 -76q28 45 80.5 74t107.5 29q69 0 107.5 -43.5zM419 608.5q-19 18.5 -19 46.5q0 26 19 45t49 19
q31 0 49.5 -18.5t18.5 -45.5q0 -28 -18.5 -46.5t-49.5 -18.5q-30 0 -49 18.5z" />
    <glyph glyph-name="uni1E56" unicode="&#x1e56;" horiz-adv-x="633" 
d="M487.5 675.5q52.5 -24.5 79 -65.5t26.5 -89q0 -53 -31.5 -101.5t-92 -79t-144.5 -30.5h-101v-212q0 -33 18 -53.5t50 -21.5l36 -2v-21h-303v21l33 2q33 2 51 20t18 49v516q0 31 -18.5 49t-51.5 20l-32 2v21h336q74 0 126.5 -24.5zM224 329h78q57 0 97.5 25.5t61 66.5
t20.5 87q0 45 -20.5 85t-61 64t-97.5 24h-78v-352zM257 794.5q-19 18.5 -19 46.5q0 26 19 45t49 19q31 0 49.5 -18.5t18.5 -45.5q0 -28 -18.5 -46.5t-49.5 -18.5q-30 0 -49 18.5z" />
    <glyph glyph-name="uni1E57" unicode="&#x1e57;" horiz-adv-x="603" 
d="M470.5 481.5q48.5 -31.5 75.5 -89t27 -130.5q0 -78 -31 -137.5t-87.5 -92t-130.5 -32.5q-82 0 -135 45v-160q0 -30 17 -48t47 -19l29 -1v-18h-267v18l19 1q29 2 46.5 18.5t17.5 48.5v508q0 32 -17 48.5t-48 16.5h-14v19l165 36v-102q27 48 73.5 75t103.5 27
q61 0 109.5 -31.5zM395.5 40.5q36.5 28.5 56.5 79.5t20 117q0 103 -45.5 160t-117.5 57q-77 0 -120 -57v-304q19 -38 50 -59.5t73 -21.5q47 0 83.5 28.5zM269 608.5q-19 18.5 -19 46.5q0 26 19 45t49 19q31 0 49.5 -18.5t18.5 -45.5q0 -28 -18.5 -46.5t-49.5 -18.5
q-30 0 -49 18.5z" />
    <glyph glyph-name="uni1E60" unicode="&#x1e60;" horiz-adv-x="586" 
d="M151.5 488.5q24.5 -29.5 61 -47.5t99.5 -40q77 -27 122 -49t78.5 -63t33.5 -105q0 -58 -28.5 -104t-81 -72t-120.5 -26q-69 0 -129 25.5t-100 71.5t-52 105h122q5 -53 30 -94.5t64 -64.5t85 -23q61 0 101.5 37t40.5 94q0 46 -26.5 76t-63 47.5t-106.5 43.5
q-72 27 -117.5 51t-76.5 64.5t-31 101.5q0 59 28 104.5t80.5 70.5t122.5 25q98 0 166 -49t89 -135h-121q-10 80 -49.5 122t-103.5 42q-62 0 -102 -37t-40 -97q0 -45 24.5 -74.5zM233 794.5q-19 18.5 -19 46.5q0 26 19 45t49 19q31 0 49.5 -18.5t18.5 -45.5
q0 -28 -18.5 -46.5t-49.5 -18.5q-30 0 -49 18.5z" />
    <glyph glyph-name="uni1E61" unicode="&#x1e61;" horiz-adv-x="452" 
d="M123 355q17 -20 43 -32t70 -25q63 -20 98 -34.5t61.5 -45.5t26.5 -82q0 -68 -48.5 -107.5t-126.5 -39.5q-86 0 -144.5 44t-72.5 116h103q10 -69 42 -108t87 -39q45 0 71.5 25t26.5 65q0 33 -18 54t-45.5 33t-73.5 26q-57 18 -91.5 33.5t-59 46t-24.5 79.5
q0 70 49.5 109.5t127.5 39.5q74 0 125 -37t67 -100h-103q-5 57 -35 90.5t-78 33.5q-42 0 -68.5 -26t-26.5 -67q0 -32 17 -52zM175 608.5q-19 18.5 -19 46.5q0 26 19 45t49 19q31 0 49.5 -18.5t18.5 -45.5q0 -28 -18.5 -46.5t-49.5 -18.5q-30 0 -49 18.5z" />
    <glyph glyph-name="uni1E6A" unicode="&#x1e6a;" horiz-adv-x="679" 
d="M659 501h-20q-18 82 -63.5 131t-116.5 49h-71v-589q0 -31 18.5 -49t50.5 -20l43 -2v-21h-321v21l43 2q32 2 50.5 20t18.5 49v589h-71q-72 0 -116.5 -49t-63.5 -131h-20l14 199h611zM291 794.5q-19 18.5 -19 46.5q0 26 19 45t49 19q31 0 49.5 -18.5t18.5 -45.5
q0 -28 -18.5 -46.5t-49.5 -18.5q-30 0 -49 18.5z" />
    <glyph glyph-name="uni1E6B" unicode="&#x1e6b;" horiz-adv-x="376" 
d="M188 124q0 -52 24 -75t71 -23q37 0 73 12v-16q-58 -33 -123 -33q-61 0 -98.5 28t-37.5 87v381h-87v18q46 10 93 43.5t67 80.5h18v-124h165v-21h-165v-358zM139 717.5q-19 18.5 -19 46.5q0 26 19 45t49 19q31 0 49.5 -18.5t18.5 -45.5q0 -28 -18.5 -46.5t-49.5 -18.5
q-30 0 -49 18.5z" />
    <glyph glyph-name="Wgrave" unicode="&#x1e80;" horiz-adv-x="1040" 
d="M1030 700v-22q-42 -4 -68.5 -28.5t-41.5 -68.5l-202 -581h-25l-174 475l-171 -475h-27l-222 608q-23 63 -89 70v22h269v-21q-78 -1 -78 -54q0 -11 5 -28l162 -477l134 401l-32 87q-11 30 -33.5 48t-54.5 22v22h270v-21q-39 -1 -59.5 -14.5t-20.5 -38.5q0 -9 6 -29
l161 -470l144 442q9 27 9 46q0 32 -22 47.5t-69 16.5v21h229zM348 925h123l51 -149h-31z" />
    <glyph glyph-name="wgrave" unicode="&#x1e81;" horiz-adv-x="842" 
d="M832 503v-19q-24 -5 -46 -26.5t-36 -51.5l-179 -406h-22l-128 311l-139 -311h-24l-183 424q-24 54 -65 60v19h219v-19q-57 -1 -57 -42q0 -14 8 -34l125 -311l102 247l-33 80q-22 54 -58 59v20h212v-19q-31 -1 -44.5 -11.5t-13.5 -30.5q0 -13 8 -34l116 -306l122 297
q6 15 6 28q0 25 -21.5 40.5t-56.5 16.5v19h188zM252 739h123l51 -149h-31z" />
    <glyph glyph-name="Wacute" unicode="&#x1e82;" horiz-adv-x="1040" 
d="M1030 700v-22q-42 -4 -68.5 -28.5t-41.5 -68.5l-202 -581h-25l-174 475l-171 -475h-27l-222 608q-23 63 -89 70v22h269v-21q-78 -1 -78 -54q0 -11 5 -28l162 -477l134 401l-32 87q-11 30 -33.5 48t-54.5 22v22h270v-21q-39 -1 -59.5 -14.5t-20.5 -38.5q0 -9 6 -29
l161 -470l144 442q9 27 9 46q0 32 -22 47.5t-69 16.5v21h229zM475 776l51 149h123l-143 -149h-31z" />
    <glyph glyph-name="wacute" unicode="&#x1e83;" horiz-adv-x="842" 
d="M832 503v-19q-24 -5 -46 -26.5t-36 -51.5l-179 -406h-22l-128 311l-139 -311h-24l-183 424q-24 54 -65 60v19h219v-19q-57 -1 -57 -42q0 -14 8 -34l125 -311l102 247l-33 80q-22 54 -58 59v20h212v-19q-31 -1 -44.5 -11.5t-13.5 -30.5q0 -13 8 -34l116 -306l122 297
q6 15 6 28q0 25 -21.5 40.5t-56.5 16.5v19h188zM401 590l51 149h123l-143 -149h-31z" />
    <glyph glyph-name="Wdieresis" unicode="&#x1e84;" horiz-adv-x="1040" 
d="M1030 700v-22q-42 -4 -68.5 -28.5t-41.5 -68.5l-202 -581h-25l-174 475l-171 -475h-27l-222 608q-23 63 -89 70v22h269v-21q-78 -1 -78 -54q0 -11 5 -28l162 -477l134 401l-32 87q-11 30 -33.5 48t-54.5 22v22h270v-21q-39 -1 -59.5 -14.5t-20.5 -38.5q0 -9 6 -29
l161 -470l144 442q9 27 9 46q0 32 -22 47.5t-69 16.5v21h229zM379 872q15 15 40 15q24 0 38.5 -15t14.5 -40t-14.5 -40.5t-38.5 -15.5q-25 0 -40 15.5t-15 40.5t15 40zM582.5 872q14.5 15 38.5 15q25 0 40 -15t15 -40t-15 -40.5t-40 -15.5q-24 0 -38.5 15t-14.5 41
q0 25 14.5 40z" />
    <glyph glyph-name="wdieresis" unicode="&#x1e85;" horiz-adv-x="842" 
d="M832 503v-19q-24 -5 -46 -26.5t-36 -51.5l-179 -406h-22l-128 311l-139 -311h-24l-183 424q-24 54 -65 60v19h219v-19q-57 -1 -57 -42q0 -14 8 -34l125 -311l102 247l-33 80q-22 54 -58 59v20h212v-19q-31 -1 -44.5 -11.5t-13.5 -30.5q0 -13 8 -34l116 -306l122 297
q6 15 6 28q0 25 -21.5 40.5t-56.5 16.5v19h188zM286 707q15 15 40 15q24 0 38.5 -15t14.5 -40q0 -26 -14.5 -41.5t-38.5 -15.5q-25 0 -40 15.5t-15 41.5q0 25 15 40zM478 707q15 15 39 15q25 0 40 -15t15 -40q0 -26 -15 -41.5t-40 -15.5q-24 0 -39 15.5t-15 41.5q0 25 15 40
z" />
    <glyph glyph-name="Ygrave" unicode="&#x1ef2;" horiz-adv-x="663" 
d="M658 700v-23q-43 -7 -67.5 -29.5t-51.5 -67.5l-157 -265v-223q0 -31 18.5 -49t50.5 -20l43 -2v-21h-321v21l43 2q32 2 50.5 20t18.5 49v181l-196 335q-37 63 -84 70v22h270v-21q-35 -1 -54 -17t-19 -40q0 -17 10 -34l150 -262l137 245q16 28 16 50q0 27 -24 42t-68 16v21
h235zM181 925h123l51 -149h-31z" />
    <glyph glyph-name="ygrave" unicode="&#x1ef3;" horiz-adv-x="586" 
d="M576 503v-19q-28 -6 -43.5 -27t-25.5 -45.5t-14 -32.5l-158 -359q-26 -58 -54 -101t-80 -76.5t-129 -33.5q-29 0 -62 5v86q63 -22 119 -22q107 0 160 97l-194 437q-14 32 -33 50t-48 22v19h243v-19q-31 -1 -45.5 -16t-14.5 -38q0 -19 10 -42l130 -318l126 306
q10 25 10 46q0 59 -90 62v19h193zM164 739h123l51 -149h-31z" />
    <glyph glyph-name="endash" unicode="&#x2013;" horiz-adv-x="576" 
d="M55 270v63h466v-63h-466z" />
    <glyph glyph-name="emdash" unicode="&#x2014;" horiz-adv-x="1043" 
d="M55 270v63h933v-63h-933z" />
    <glyph glyph-name="quoteleft" unicode="&#x2018;" horiz-adv-x="253" 
d="M113.5 680q-35.5 -29 -35.5 -63q0 -16 8 -25.5t20 -14t22 -6.5l19 -6q42 -13 42 -51q0 -24 -16 -39.5t-43 -15.5q-38 0 -61.5 32.5t-23.5 84.5q0 55 26.5 90t62.5 51.5t69 18.5v-21q-54 -6 -89.5 -35z" />
    <glyph glyph-name="quoteright" unicode="&#x2019;" horiz-adv-x="253" 
d="M134.5 497q35.5 29 35.5 63q0 16 -8 25.5t-20 14t-22 6.5l-19 6q-42 14 -42 51q0 24 16 39.5t43 15.5q38 0 61.5 -32.5t23.5 -84.5q0 -55 -26.5 -90t-62.5 -51.5t-69 -18.5v21q54 6 89.5 35z" />
    <glyph glyph-name="quotesinglbase" unicode="&#x201a;" horiz-adv-x="253" 
d="M134.5 -102q35.5 29 35.5 63q0 16 -8 25.5t-20 14t-22 6.5l-19 6q-42 14 -42 51q0 24 16 39.5t43 15.5q38 0 61.5 -32.5t23.5 -84.5q0 -55 -26.5 -90t-62.5 -51.5t-69 -18.5v21q54 6 89.5 35z" />
    <glyph glyph-name="quotedblleft" unicode="&#x201c;" horiz-adv-x="473" 
d="M113.5 680q-35.5 -29 -35.5 -63q0 -16 8 -25.5t20 -14t22 -6.5l19 -6q42 -13 42 -51q0 -24 -16 -39.5t-43 -15.5q-38 0 -61.5 32.5t-23.5 84.5q0 55 26.5 90t62.5 51.5t69 18.5v-21q-54 -6 -89.5 -35zM333.5 680q-35.5 -29 -35.5 -63q0 -16 8 -25.5t20 -14t22 -6.5l19 -6
q42 -13 42 -51q0 -24 -16 -39.5t-43 -15.5q-38 0 -61.5 32.5t-23.5 84.5q0 55 26.5 90t62.5 51.5t69 18.5v-21q-54 -6 -89.5 -35z" />
    <glyph glyph-name="quotedblright" unicode="&#x201d;" horiz-adv-x="473" 
d="M134.5 496q35.5 29 35.5 63q0 16 -8 25.5t-20 14t-22 6.5l-19 6q-42 14 -42 51q0 24 16 39.5t43 15.5q38 0 61.5 -32.5t23.5 -84.5q0 -55 -26.5 -90t-62.5 -51.5t-69 -18.5v21q54 6 89.5 35zM354.5 496q35.5 29 35.5 63q0 16 -8 25.5t-20 14t-22 6.5l-19 6q-42 14 -42 51
q0 24 16 39.5t43 15.5q38 0 61.5 -32.5t23.5 -84.5q0 -55 -26.5 -90t-62.5 -51.5t-69 -18.5v21q54 6 89.5 35z" />
    <glyph glyph-name="quotedblbase" unicode="&#x201e;" horiz-adv-x="473" 
d="M134.5 -102q35.5 29 35.5 63q0 16 -8 25.5t-20 14t-22 6.5l-19 6q-42 14 -42 51q0 24 16 39.5t43 15.5q38 0 61.5 -32.5t23.5 -84.5q0 -55 -26.5 -90t-62.5 -51.5t-69 -18.5v21q54 6 89.5 35zM354.5 -102q35.5 29 35.5 63q0 16 -8 25.5t-20 14t-22 6.5l-19 6
q-42 14 -42 51q0 24 16 39.5t43 15.5q38 0 61.5 -32.5t23.5 -84.5q0 -55 -26.5 -90t-62.5 -51.5t-69 -18.5v21q54 6 89.5 35z" />
    <glyph glyph-name="dagger" unicode="&#x2020;" horiz-adv-x="508" 
d="M45 414v72h172v214h73v-214h173v-72h-173v-507h-73v507h-172z" />
    <glyph glyph-name="daggerdbl" unicode="&#x2021;" horiz-adv-x="508" 
d="M290 161h173v-71h-173v-183h-73v183h-172v71h172v285h-172v71h172v183h73v-183h173v-71h-173v-285z" />
    <glyph glyph-name="bullet" unicode="&#x2022;" horiz-adv-x="313" 
d="M83.5 288.5q-28.5 28.5 -28.5 69.5q0 40 28.5 68t73.5 28q46 0 74 -28t28 -68q0 -42 -28 -70t-74 -28q-45 0 -73.5 28.5z" />
    <glyph glyph-name="ellipsis" unicode="&#x2026;" horiz-adv-x="972" 
d="M113 8.5q-19 18.5 -19 46.5q0 26 19 45t49 19q31 0 49.5 -18.5t18.5 -45.5q0 -28 -18.5 -46.5t-49.5 -18.5q-30 0 -49 18.5zM437 8.5q-19 18.5 -19 46.5q0 26 19 45t49 19q31 0 49.5 -18.5t18.5 -45.5q0 -28 -18.5 -46.5t-49.5 -18.5q-30 0 -49 18.5zM761 8.5
q-19 18.5 -19 46.5q0 26 19 45t49 19q31 0 49.5 -18.5t18.5 -45.5q0 -28 -18.5 -46.5t-49.5 -18.5q-30 0 -49 18.5z" />
    <glyph glyph-name="perthousand" unicode="&#x2030;" horiz-adv-x="1206" 
d="M1075 296q38 -21 60 -59t22 -85t-22 -85t-60 -59t-85 -21t-85 21t-60 59t-22 85t22 85t60 59t85 21t85 -21zM1050 42.5q17 37.5 17 109.5t-17 109.5t-60 37.5t-60 -37.5t-17 -109.5t17 -109.5t60 -37.5t60 37.5zM187 0h-59l445 700h58zM263 691q38 -21 60 -59t22 -85
t-22 -85t-60 -59t-85 -21t-85 21t-60 59t-22 85t22 85t60 59t85 21t85 -21zM238 437.5q17 37.5 17 109.5t-17 109.5t-60 37.5t-60 -37.5t-17 -109.5t17 -109.5t60 -37.5t60 37.5zM694 296q38 -21 60 -59t22 -85t-22 -85t-60 -59t-85 -21t-85 21t-60 59t-22 85t22 85t60 59
t85 21t85 -21zM669 42.5q17 37.5 17 109.5t-17 109.5t-60 37.5t-60 -37.5t-17 -109.5t17 -109.5t60 -37.5t60 37.5z" />
    <glyph glyph-name="guilsinglleft" unicode="&#x2039;" horiz-adv-x="256" 
d="M211 105l-20 -15l-166 170v50l166 171l20 -15l-92 -181z" />
    <glyph glyph-name="guilsinglright" unicode="&#x203a;" horiz-adv-x="240" 
d="M29 466l20 15l166 -171v-50l-166 -170l-20 15l92 180z" />
    <glyph glyph-name="fraction" unicode="&#x2044;" horiz-adv-x="593" 
d="M104 0h-59l445 700h58z" />
    <glyph glyph-name="Euro" unicode="&#x20ac;" horiz-adv-x="640" 
d="M492 511q-6 82 -36.5 125.5t-83.5 43.5q-67 0 -112.5 -71.5t-57.5 -176.5h229v-19h-230q-3 -27 -3 -53q0 -21 4 -63h229v-19h-226q15 -93 63 -151.5t126 -58.5t128.5 49t62.5 128h22q-10 -115 -71 -186t-165 -71q-77 0 -133.5 39.5t-88 105t-38.5 145.5h-77v19h75
q-1 10 -1 29q0 41 8 87h-82v19h85q24 117 94.5 193t176.5 76q85 0 143.5 -48t70.5 -142h-112z" />
    <glyph glyph-name="uni2113" unicode="&#x2113;" horiz-adv-x="368" 
d="M340.5 532q-32.5 -44 -94.5 -76l-92 -48l-68 -295q-4 -15 -4 -28q0 -22 10.5 -32.5t26.5 -10.5q25 0 59.5 26.5t68.5 69.5l22 -20q-90 -129 -181 -129q-39 0 -61 23.5t-22 63.5q0 16 7 46l58 254l-75 -40l12 52l74 38l30 131q18 77 63 115.5t99 38.5q40 0 70 -22t30 -68
q0 -45 -32.5 -89zM166 462l46 23q106 53 106 128q0 25 -12 39t-34 14q-30 0 -49 -23.5t-28 -60.5z" />
    <glyph glyph-name="uni2116" unicode="&#x2116;" horiz-adv-x="1235" 
d="M782 700v-21l-36 -2q-33 -1 -54.5 -26.5t-21.5 -62.5v-588h-32l-456 588v-476q0 -35 22 -61t52 -28l51 -2v-21h-267v21l37 2q32 1 53.5 27t21.5 62v499l-15 19q-20 26 -45 36.5t-67 12.5v21h195l419 -549v437q0 36 -21.5 61.5t-52.5 27.5l-52 2v21h269zM1121 696
q38 -21 60 -59t22 -85t-22 -85t-60 -59t-85 -21t-85 21t-60 59t-22 85t22 85t60 59t85 21t85 -21zM1096 442.5q17 37.5 17 109.5t-17 109.5t-60 37.5t-60 -37.5t-17 -109.5t17 -109.5t60 -37.5t60 37.5z" />
    <glyph glyph-name="trademark" unicode="&#x2122;" horiz-adv-x="950" 
d="M385 700l8 -110h-21l-1 5q-17 84 -79 84h-45v-319q0 -22 25 -23l37 -2v-19h-190v19l38 2q24 2 24 23v319h-45q-28 0 -49.5 -21.5t-29.5 -62.5l-1 -5h-21l8 110h342zM859 656v-296q0 -22 25 -23l31 -2v-19h-169v19l21 2q25 3 25 23v280l-128 -319h-23l-124 309v-260
q0 -13 7.5 -22.5t18.5 -10.5l31 -2v-19h-148v19l33 2q12 1 20 10.5t8 22.5v286q0 21 -25 22l-31 2v20h127l113 -288l114 288h130v-20l-31 -2q-25 -2 -25 -22z" />
    <glyph glyph-name="estimated" unicode="&#x212e;" horiz-adv-x="473" 
d="M364.5 26q-53.5 -38 -124.5 -38q-57 0 -105 26.5t-76.5 80.5t-28.5 134q0 82 30 138t78.5 83.5t103.5 27.5q50 0 93.5 -22.5t70 -68t26.5 -109.5q0 -31 -3 -48h-323v-120q19 -37 56 -57t83 -20q53 0 97 28.5t75 84.5l26 -13q-25 -69 -78.5 -107zM106 273h241v115
q-19 26 -48 39t-60 13q-42 0 -77 -18.5t-56 -52.5v-96z" />
    <glyph glyph-name="uni2153" unicode="&#x2153;" horiz-adv-x="960" 
d="M278 0h-59l445 700h58zM289 280v-17h-225v17l48 2q15 1 24.5 12t9.5 28v327q-14 -9 -38.5 -15t-47.5 -8v18q73 0 120 49h27v-371q0 -18 9.5 -28.5t24.5 -11.5zM860.5 189q39.5 -32 39.5 -79q0 -55 -39 -88.5t-103 -33.5q-63 0 -107 33.5t-52 88.5h80q2 -50 23 -77.5
t58 -27.5q35 0 54 22t19 62q0 53 -40.5 84t-113.5 34v16q64 11 101 37.5t37 64.5q0 30 -20.5 47t-55.5 17q-32 0 -60 -13.5t-47 -41.5l-14 9q24 44 61 66t84 22q50 0 83 -25t33 -63t-33 -67t-95 -46q68 -9 107.5 -41z" />
    <glyph glyph-name="uni2154" unicode="&#x2154;" horiz-adv-x="988" 
d="M888.5 189q39.5 -32 39.5 -79q0 -55 -39 -88.5t-103 -33.5q-63 0 -107 33.5t-52 88.5h80q2 -50 23 -77.5t58 -27.5q35 0 54 22t19 62q0 53 -40.5 84t-113.5 34v16q64 11 101 37.5t37 64.5q0 30 -20.5 47t-55.5 17q-32 0 -60 -13.5t-47 -41.5l-14 9q24 44 61 66t84 22
q50 0 83 -25t33 -63t-33 -67t-95 -46q68 -9 107.5 -41zM321 0h-59l445 700h58zM356 325v-61h-296v24l25 24l15 14q61 56 94 90.5t54 72t21 77.5q0 41 -23.5 66t-60.5 25q-32 0 -59.5 -19.5t-46.5 -55.5l-14 7q19 52 57.5 81.5t88.5 29.5q55 0 89 -32t34 -82q0 -39 -21 -74.5
t-50.5 -64.5t-76.5 -69l-28 -24l-35 -29h233z" />
    <glyph glyph-name="uni2155" unicode="&#x2155;" horiz-adv-x="926" 
d="M278 0h-59l445 700h58zM289 280v-17h-225v17l48 2q15 1 24.5 12t9.5 28v327q-14 -9 -38.5 -15t-47.5 -8v18q73 0 120 49h27v-371q0 -18 9.5 -28.5t24.5 -11.5zM651 361l-12 -79q110 -4 168.5 -46.5t58.5 -116.5q0 -59 -39 -95t-103 -36q-60 0 -101 32.5t-55 90.5h78
q2 -48 24.5 -77t58.5 -29q35 0 57 23.5t22 63.5q0 59 -50.5 93t-145.5 38l28 202h199v-64h-188z" />
    <glyph glyph-name="uni2156" unicode="&#x2156;" horiz-adv-x="969" 
d="M321 0h-59l445 700h58zM694 361l-12 -79q110 -4 168.5 -46.5t58.5 -116.5q0 -59 -39 -95t-103 -36q-60 0 -101 32.5t-55 90.5h78q2 -48 24.5 -77t58.5 -29q35 0 57 23.5t22 63.5q0 59 -50.5 93t-145.5 38l28 202h199v-64h-188zM356 325v-61h-296v24l25 24l15 14
q61 56 94 90.5t54 72t21 77.5q0 41 -23.5 66t-60.5 25q-32 0 -59.5 -19.5t-46.5 -55.5l-14 7q19 52 57.5 81.5t88.5 29.5q55 0 89 -32t34 -82q0 -39 -21 -74.5t-50.5 -64.5t-76.5 -69l-28 -24l-35 -29h233z" />
    <glyph glyph-name="uni2157" unicode="&#x2157;" horiz-adv-x="947" 
d="M299 0h-59l445 700h58zM672 361l-12 -79q110 -4 168.5 -46.5t58.5 -116.5q0 -59 -39 -95t-103 -36q-60 0 -101 32.5t-55 90.5h78q2 -48 24.5 -77t58.5 -29q35 0 57 23.5t22 63.5q0 59 -50.5 93t-145.5 38l28 202h199v-64h-188zM321.5 458q39.5 -32 39.5 -79
q0 -55 -39 -88.5t-103 -33.5q-63 0 -107 33.5t-52 88.5h80q2 -50 23 -77.5t58 -27.5q35 0 54 22t19 62q0 53 -40.5 84t-113.5 34v16q64 11 101 37.5t37 64.5q0 30 -20.5 47t-55.5 17q-32 0 -60 -13.5t-47 -41.5l-14 9q24 44 61 66t84 22q50 0 83 -25t33 -63t-33 -67t-95 -46
q68 -9 107.5 -41z" />
    <glyph glyph-name="uni2158" unicode="&#x2158;" horiz-adv-x="994" 
d="M346 0h-59l445 700h58zM719 361l-12 -79q110 -4 168.5 -46.5t58.5 -116.5q0 -59 -39 -95t-103 -36q-60 0 -101 32.5t-55 90.5h78q2 -48 24.5 -77t58.5 -29q35 0 57 23.5t22 63.5q0 59 -50.5 93t-145.5 38l28 202h199v-64h-188zM319 381v-117h-61v117h-198v44l207 266h52
v-257h72v-53h-72zM258 644l-161 -210h161v210z" />
    <glyph glyph-name="uni2159" unicode="&#x2159;" horiz-adv-x="960" 
d="M278 0h-59l445 700h58zM289 280v-17h-225v17l48 2q15 1 24.5 12t9.5 28v327q-14 -9 -38.5 -15t-47.5 -8v18q73 0 120 49h27v-371q0 -18 9.5 -28.5t24.5 -11.5zM862.5 225q37.5 -39 37.5 -97q0 -62 -42 -101t-109 -39q-74 0 -119.5 49t-45.5 131q0 67 32.5 127.5t92.5 98
t139 37.5v-16q-78 -7 -129 -61.5t-62 -141.5q21 24 50.5 38t62.5 14q55 0 92.5 -39zM811 34q21 29 21 76q0 54 -26 87t-69 33q-38 0 -82 -34l-1 -24q0 -73 28 -120t73 -47q35 0 56 29z" />
    <glyph glyph-name="uni215A" unicode="&#x215a;" horiz-adv-x="995" 
d="M312 0h-59l445 700h58zM897.5 225q37.5 -39 37.5 -97q0 -62 -42 -101t-109 -39q-74 0 -119.5 49t-45.5 131q0 67 32.5 127.5t92.5 98t139 37.5v-16q-78 -7 -129 -61.5t-62 -141.5q21 24 50.5 38t62.5 14q55 0 92.5 -39zM846 34q21 29 21 76q0 54 -26 87t-69 33
q-38 0 -82 -34l-1 -24q0 -73 28 -120t73 -47q35 0 56 29zM143 630l-12 -79q110 -4 168.5 -46.5t58.5 -116.5q0 -59 -39 -95t-103 -36q-60 0 -101 32.5t-55 90.5h78q2 -48 24.5 -77t58.5 -29q35 0 57 23.5t22 63.5q0 59 -50.5 93t-145.5 38l28 202h199v-64h-188z" />
    <glyph glyph-name="oneeighth" unicode="&#x215b;" horiz-adv-x="964" 
d="M278 0h-59l445 700h58zM289 280v-17h-225v17l48 2q15 1 24.5 12t9.5 28v327q-14 -9 -38.5 -15t-47.5 -8v18q73 0 120 49h27v-371q0 -18 9.5 -28.5t24.5 -11.5zM875.5 173.5q28.5 -28.5 28.5 -73.5q0 -51 -38.5 -81.5t-105.5 -30.5q-69 0 -112 29t-43 76q0 39 28.5 67
t76.5 38q-46 25 -70 53t-24 70q0 50 36.5 80t97.5 30q59 0 97.5 -27.5t38.5 -68.5q0 -36 -27.5 -63.5t-75.5 -38.5q64 -31 92.5 -59.5zM702.5 282.5q20.5 -20.5 65.5 -42.5q50 33 50 90q0 41 -18 62.5t-52 21.5q-31 0 -48.5 -19t-17.5 -54q0 -38 20.5 -58.5zM815.5 24
q19.5 19 19.5 55q0 39 -22 59.5t-68 41.5q-3 2 -19 10q-52 -29 -52 -92q0 -43 23 -68t63 -25q36 0 55.5 19z" />
    <glyph glyph-name="threeeighths" unicode="&#x215c;" horiz-adv-x="1006" 
d="M319 0h-59l445 700h58zM917.5 173.5q28.5 -28.5 28.5 -73.5q0 -51 -38.5 -81.5t-105.5 -30.5q-69 0 -112 29t-43 76q0 39 28.5 67t76.5 38q-46 25 -70 53t-24 70q0 50 36.5 80t97.5 30q59 0 97.5 -27.5t38.5 -68.5q0 -36 -27.5 -63.5t-75.5 -38.5q64 -31 92.5 -59.5z
M744.5 282.5q20.5 -20.5 65.5 -42.5q50 33 50 90q0 41 -18 62.5t-52 21.5q-31 0 -48.5 -19t-17.5 -54q0 -38 20.5 -58.5zM857.5 24q19.5 19 19.5 55q0 39 -22 59.5t-68 41.5q-3 2 -19 10q-52 -29 -52 -92q0 -43 23 -68t63 -25q36 0 55.5 19zM321.5 458q39.5 -32 39.5 -79
q0 -55 -39 -88.5t-103 -33.5q-63 0 -107 33.5t-52 88.5h80q2 -50 23 -77.5t58 -27.5q35 0 54 22t19 62q0 53 -40.5 84t-113.5 34v16q64 11 101 37.5t37 64.5q0 30 -20.5 47t-55.5 17q-32 0 -60 -13.5t-47 -41.5l-14 9q24 44 61 66t84 22q50 0 83 -25t33 -63t-33 -67t-95 -46
q68 -9 107.5 -41z" />
    <glyph glyph-name="fiveeighths" unicode="&#x215d;" horiz-adv-x="982" 
d="M893.5 173.5q28.5 -28.5 28.5 -73.5q0 -51 -38.5 -81.5t-105.5 -30.5q-69 0 -112 29t-43 76q0 39 28.5 67t76.5 38q-46 25 -70 53t-24 70q0 50 36.5 80t97.5 30q59 0 97.5 -27.5t38.5 -68.5q0 -36 -27.5 -63.5t-75.5 -38.5q64 -31 92.5 -59.5zM720.5 282.5
q20.5 -20.5 65.5 -42.5q50 33 50 90q0 41 -18 62.5t-52 21.5q-31 0 -48.5 -19t-17.5 -54q0 -38 20.5 -58.5zM833.5 24q19.5 19 19.5 55q0 39 -22 59.5t-68 41.5q-3 2 -19 10q-52 -29 -52 -92q0 -43 23 -68t63 -25q36 0 55.5 19zM292 0h-59l445 700h58zM143 630l-12 -79
q110 -4 168.5 -46.5t58.5 -116.5q0 -59 -39 -95t-103 -36q-60 0 -101 32.5t-55 90.5h78q2 -48 24.5 -77t58.5 -29q35 0 57 23.5t22 63.5q0 59 -50.5 93t-145.5 38l28 202h199v-64h-188z" />
    <glyph glyph-name="seveneighths" unicode="&#x215e;" horiz-adv-x="960" 
d="M369 691v-24l-189 -403h-65l215 366h-270v61h309zM871.5 173.5q28.5 -28.5 28.5 -73.5q0 -51 -38.5 -81.5t-105.5 -30.5q-69 0 -112 29t-43 76q0 39 28.5 67t76.5 38q-46 25 -70 53t-24 70q0 50 36.5 80t97.5 30q59 0 97.5 -27.5t38.5 -68.5q0 -36 -27.5 -63.5
t-75.5 -38.5q64 -31 92.5 -59.5zM698.5 282.5q20.5 -20.5 65.5 -42.5q50 33 50 90q0 41 -18 62.5t-52 21.5q-31 0 -48.5 -19t-17.5 -54q0 -38 20.5 -58.5zM811.5 24q19.5 19 19.5 55q0 39 -22 59.5t-68 41.5q-3 2 -19 10q-52 -29 -52 -92q0 -43 23 -68t63 -25q36 0 55.5 19z
M286 0h-59l445 700h58z" />
    <glyph glyph-name="arrowleft" unicode="&#x2190;" horiz-adv-x="665" 
d="M187 390q63 65 107 134l43 -28q-22 -45 -69.5 -100.5t-94.5 -87.5h447v-64h-447q47 -32 94.5 -87t69.5 -100l-43 -28q-44 69 -107 133.5t-142 113.5q79 49 142 114z" />
    <glyph glyph-name="arrowup" unicode="&#x2191;" horiz-adv-x="585" 
d="M406.5 433q64.5 -63 133.5 -107l-28 -43q-45 22 -100 69.5t-87 94.5v-447h-64v447q-32 -47 -87.5 -94.5t-100.5 -69.5l-28 43q69 44 134 107t114 142q49 -79 113.5 -142z" />
    <glyph glyph-name="arrowright" unicode="&#x2192;" horiz-adv-x="665" 
d="M478 188.5q-63 -64.5 -107 -133.5l-43 28q22 45 69.5 100t94.5 87h-447v64h447q-47 32 -94.5 87.5t-69.5 100.5l43 28q44 -69 107 -134t142 -114q-79 -49 -142 -113.5z" />
    <glyph glyph-name="arrowdown" unicode="&#x2193;" horiz-adv-x="585" 
d="M159 142q-65 63 -134 107l28 43q45 -22 100.5 -69.5t87.5 -94.5v447h64v-447q32 47 87 94.5t100 69.5l28 -43q-69 -44 -133.5 -107t-113.5 -142q-49 79 -114 142z" />
    <glyph glyph-name="partialdiff" unicode="&#x2202;" horiz-adv-x="575" 
d="M346.5 401.5q53.5 -26.5 85.5 -66.5q-10 95 -52 171t-110.5 122t-156.5 55v18q128 -2 224 -63t147 -158t51 -204q0 -86 -33 -151t-93 -101t-140 -36q-71 0 -125.5 28.5t-84 79t-29.5 114.5q0 61 27 111t74.5 78.5t104.5 28.5t110.5 -26.5zM349.5 42q39.5 35 62 97.5
t22.5 141.5q0 32 -1 42q-32 27 -69.5 42t-74.5 15q-72 0 -116 -54t-44 -142q0 -79 36 -128t96 -49q49 0 88.5 35z" />
    <glyph glyph-name="product" unicode="&#x220f;" horiz-adv-x="706" 
d="M681 21v-21h-301v21l33 2q33 2 51 20t18 49v586h-258v-586q0 -31 18 -49t51 -20l33 -2v-21h-301v21l33 2q33 2 51 20t18 49v586h-101v22h654v-22h-101v-586q0 -31 18 -49t51 -20z" />
    <glyph glyph-name="summation" unicode="&#x2211;" horiz-adv-x="717" 
d="M672 235l-26 -235h-606v11l302 344l-266 333v12h564v-199h-20q-14 85 -57 132.5t-126 47.5h-235l261 -327l-296 -334h272q163 0 210 215h23z" />
    <glyph glyph-name="minus" unicode="&#x2212;" 
d="M516 245h-412v55h412v-55z" />
    <glyph glyph-name="radical" unicode="&#x221a;" horiz-adv-x="677" 
d="M667 700v-19q-45 -4 -71.5 -20t-40.5 -47l-261 -614h-24l-185 434q-11 25 -29 36.5t-46 13.5v19h147l157 -402l247 599h106z" />
    <glyph glyph-name="infinity" unicode="&#x221e;" horiz-adv-x="753" 
d="M644 482q39 -29 59 -77.5t20 -104.5q0 -57 -20 -106.5t-55.5 -79.5t-80.5 -30q-56 0 -99.5 45.5t-68.5 116.5q-37 -72 -82.5 -117t-115.5 -45q-54 0 -93 29.5t-58.5 78t-19.5 104.5q0 57 20 106.5t55.5 79t80.5 29.5q56 0 99 -45t68 -116q39 75 84 118t113 43
q55 0 94 -29zM658 209.5q36 34.5 36 94.5q0 55 -31 86.5t-90 31.5q-44 0 -73.5 -18.5t-48 -47.5t-41.5 -80q27 -44 62 -72.5t91 -28.5q59 0 95 34.5zM253 191.5q29 18.5 47.5 47.5t41.5 80q-30 49 -63 75.5t-87 26.5q-60 0 -96.5 -35t-36.5 -95q0 -54 31 -86t90 -32
q44 0 73 18.5z" />
    <glyph glyph-name="integral" unicode="&#x222b;" horiz-adv-x="436" 
d="M187 569q15 60 69 102.5t160 45.5v-18q-64 -5 -97.5 -42.5t-44 -91.5t-10.5 -128v-165q0 -82 -15 -142t-69 -102.5t-160 -45.5v18q64 5 97.5 42.5t44 91.5t10.5 128v165q0 82 15 142z" />
    <glyph glyph-name="approxequal" unicode="&#x2248;" 
d="M459 367.5q27 5.5 47 16.5v-52q-19 -11 -45.5 -16.5t-52.5 -5.5q-23 0 -47 4.5t-47 9.5q-34 8 -55.5 11.5t-46.5 3.5t-52 -5t-46 -16v52q20 10 46 15.5t52 5.5q23 0 43 -3.5t52 -10.5q58 -15 99 -15q26 0 53 5.5zM459 218.5q27 5.5 47 16.5v-52q-19 -11 -45.5 -16.5
t-52.5 -5.5q-23 0 -47 4.5t-47 9.5q-34 8 -55.5 11.5t-46.5 3.5t-52 -5t-46 -16v52q20 10 46 15.5t52 5.5q23 0 43 -3.5t52 -10.5q58 -15 99 -15q26 0 53 5.5z" />
    <glyph glyph-name="notequal" unicode="&#x2260;" 
d="M364 320l-41 -96h183v-53h-205l-54 -129h-54l54 129h-133v53h156l40 96h-196v53h219l56 133h53l-56 -133h120v-53h-142z" />
    <glyph glyph-name="lessequal" unicode="&#x2264;" 
d="M118 328v55l340 202l25 -47l-310 -182l310 -181l-25 -47zM118 0v51h384v-51h-384z" />
    <glyph glyph-name="greaterequal" unicode="&#x2265;" 
d="M137 175l310 181l-310 182l25 47l340 -202v-55l-340 -200zM118 51h384v-51h-384v51z" />
    <glyph glyph-name="lozenge" unicode="&#x25ca;" horiz-adv-x="616" 
d="M308 -11q-93 169 -253 347q157 174 253 346q96 -172 253 -346q-160 -178 -253 -347zM308 574q-59 -120 -172 -238q112 -117 172 -239q60 122 172 239q-113 118 -172 238z" />
    <glyph glyph-name="fl" unicode="&#xfb02;" horiz-adv-x="636" 
d="M621 18v-18h-257v18l19 1q29 2 46.5 18t17.5 49v471q0 36 -8 67.5t-41 58t-101 26.5t-109 -29t-41 -81q0 -48 34.5 -72t90.5 -24h96v-21h-159v-395q0 -30 17 -47.5t47 -19.5l39 -2v-18h-276v18l18 1q29 2 46.5 18.5t17.5 50.5v394h-118v21h118v40q0 115 57.5 181.5
t155.5 66.5q38 0 76 -9v-63l131 28v-661q0 -30 17 -47.5t47 -19.5z" />
    <glyph glyph-name="f_b" horiz-adv-x="951" 
d="M815 483q49 -30 77.5 -85.5t28.5 -128.5q0 -81 -34.5 -145t-95.5 -99.5t-136 -35.5q-101 0 -208 63v505q0 36 -8 67.5t-41 58t-101 26.5t-109 -29t-41 -81q0 -48 34.5 -72t90.5 -24h96v-21h-159v-395q0 -30 17 -47.5t47 -19.5l39 -2v-18h-276v18l18 1q29 2 46.5 18.5
t17.5 50.5v394h-118v21h118v40q0 115 57.5 181.5t155.5 66.5q38 0 76 -9v-63l131 28v-318q31 40 75.5 62t93.5 22q59 0 108 -30zM739 30q38 30 60 83t22 119q0 68 -22.5 118.5t-62 77t-87.5 26.5q-68 0 -111 -43v-349q43 -62 116 -62q47 0 85 30z" />
    <glyph glyph-name="f_f_b" horiz-adv-x="1282" 
d="M1146 483q49 -30 77.5 -85.5t28.5 -128.5q0 -81 -34.5 -145t-95.5 -99.5t-136 -35.5q-101 0 -208 63v505q0 36 -8 67.5t-41 58t-101 26.5t-109 -29t-41 -81q0 -48 34.5 -72t90.5 -24h96v-21h-159v-395q0 -30 17 -47.5t47 -19.5l39 -2v-18h-276v18l18 1q29 2 46.5 18.5
t17.5 50.5v394h-240v-395q0 -30 17 -47.5t47 -19.5l39 -2v-18h-276v18l18 1q64 3 64 69v394h-118v21h118v38q0 116 58.5 183t158.5 67q33 0 62 -6v-90q-58 14 -102 14q-69 0 -108.5 -29t-39.5 -82q0 -47 34.5 -71t89.5 -24h178v40q0 115 57.5 181.5t155.5 66.5q39 0 76 -9
v-63l131 28v-318q31 40 75.5 62t93.5 22q59 0 108 -30zM1070 30q38 30 60 83t22 119q0 68 -22.5 118.5t-62 77t-87.5 26.5q-68 0 -111 -43v-349q43 -62 116 -62q47 0 85 30z" />
    <glyph glyph-name="f_f_h" horiz-adv-x="1292" 
d="M1282 18v-18h-253v18l18 1q61 3 61 67v244q0 66 -26.5 100t-78.5 34q-38 0 -74 -17.5t-60 -47.5v-313q0 -30 15.5 -48t45.5 -19l19 -1v-18h-254v18l19 1q29 2 46.5 18t17.5 49v471q0 36 -8 67.5t-41 58t-101 26.5t-109 -29t-41 -81q0 -48 34.5 -72t90.5 -24h96v-21h-159
v-395q0 -30 17 -47.5t47 -19.5l39 -2v-18h-276v18l18 1q29 2 46.5 18.5t17.5 50.5v394h-240v-395q0 -30 17 -47.5t47 -19.5l39 -2v-18h-276v18l18 1q64 3 64 69v394h-118v21h118v38q0 116 58.5 183t158.5 67q33 0 62 -6v-90q-58 14 -102 14q-69 0 -108.5 -29t-39.5 -82
q0 -47 34.5 -71t89.5 -24h178v40q0 115 57.5 181.5t155.5 66.5q39 0 76 -9v-63l131 28v-327q30 41 81 67t104 26q69 0 107.5 -43.5t38.5 -123.5v-260q0 -31 17 -48t47 -19z" />
    <glyph glyph-name="f_f_k" horiz-adv-x="1242" 
d="M886 38.5q17 -17.5 47 -19.5l19 -1v-18h-257v18l19 1q29 2 46.5 18t17.5 49v471q0 36 -8 67.5t-41 58t-101 26.5t-109 -29t-41 -81q0 -48 34.5 -72t90.5 -24h96v-21h-159v-395q0 -30 17 -47.5t47 -19.5l39 -2v-18h-276v18l18 1q29 2 46.5 18.5t17.5 50.5v394h-240v-395
q0 -30 17 -47.5t47 -19.5l39 -2v-18h-276v18l18 1q64 3 64 69v394h-118v21h118v38q0 116 58.5 183t158.5 67q33 0 62 -6v-90q-58 14 -102 14q-69 0 -108.5 -29t-39.5 -82q0 -47 34.5 -71t89.5 -24h178v40q0 115 57.5 181.5t155.5 66.5q39 0 76 -9v-63l131 28v-661
q0 -30 17 -47.5zM1208 37.5q14 -14.5 24 -19.5v-18h-113q-19 20 -46 52l-179 206l128 127q30 30 30 57q0 19 -16 30t-46 11v20h231v-21q-35 -5 -72.5 -25t-67.5 -48l-111 -104l194 -219q30 -34 44 -48.5z" />
    <glyph glyph-name="f_h" horiz-adv-x="961" 
d="M951 18v-18h-253v18l18 1q61 3 61 67v244q0 66 -26.5 100t-78.5 34q-38 0 -74 -17.5t-60 -47.5v-313q0 -30 15.5 -48t45.5 -19l19 -1v-18h-254v18l19 1q29 2 46.5 18t17.5 49v471q0 36 -8 67.5t-41 58t-101 26.5t-109 -29t-41 -81q0 -48 34.5 -72t90.5 -24h96v-21h-159
v-395q0 -30 17 -47.5t47 -19.5l39 -2v-18h-276v18l18 1q29 2 46.5 18.5t17.5 50.5v394h-118v21h118v40q0 115 57.5 181.5t155.5 66.5q38 0 76 -9v-63l131 28v-327q30 41 81 67t104 26q69 0 107.5 -43.5t38.5 -123.5v-260q0 -31 17 -48t47 -19z" />
    <glyph glyph-name="f_k" horiz-adv-x="911" 
d="M555 38.5q17 -17.5 47 -19.5l19 -1v-18h-257v18l19 1q29 2 46.5 18t17.5 49v471q0 36 -8 67.5t-41 58t-101 26.5t-109 -29t-41 -81q0 -48 34.5 -72t90.5 -24h96v-21h-159v-395q0 -30 17 -47.5t47 -19.5l39 -2v-18h-276v18l18 1q29 2 46.5 18.5t17.5 50.5v394h-118v21h118
v40q0 115 57.5 181.5t155.5 66.5q38 0 76 -9v-63l131 28v-661q0 -30 17 -47.5zM852 64q18 -21 28.5 -31.5t20.5 -14.5v-18h-113q-19 20 -46 52l-179 206l128 127q30 30 30 57q0 19 -16 30t-46 11v20h231v-21q-35 -5 -72.5 -25t-67.5 -48l-111 -104l194 -219z" />
    <glyph glyph-name="t_t" horiz-adv-x="705" 
d="M685 38v-16q-58 -33 -123 -33q-61 0 -98.5 28t-37.5 87v378h-238v-358q0 -52 24 -75t71 -23q37 0 73 12v-16q-58 -33 -123 -33q-61 0 -98.5 28t-37.5 87v381h-87v18q46 10 93 43.5t67 80.5h18v-124h151q46 10 93 43.5t67 80.5h18v-124h165v-21h-165v-358q0 -52 24 -75
t71 -23q37 0 73 12z" />
    <glyph glyph-name="zero.osf" horiz-adv-x="641" 
d="M461 525q60 -37 92.5 -101.5t32.5 -147.5t-32.5 -148t-92.5 -101.5t-141 -36.5q-80 0 -140.5 36.5t-92.5 101.5t-32 148t32.5 147.5t92.5 101.5t140 37q81 0 141 -37zM229.5 520q-33.5 -27 -52.5 -78t-19 -121q0 -91 23 -163t64 -112.5t93 -40.5q42 0 75.5 26.5t52.5 77
t19 121.5q0 91 -23 163.5t-64.5 113t-92.5 40.5q-42 0 -75.5 -27z" />
    <glyph glyph-name="one.osf" horiz-adv-x="487" 
d="M325.5 41.5q16.5 -19.5 43.5 -20.5l93 -3v-18h-397v18l92 3q27 1 44 21t17 50v395q-22 -15 -62 -25t-79 -12v20q118 3 192 80h40v-458q0 -31 16.5 -50.5z" />
    <glyph glyph-name="two.osf" horiz-adv-x="529" 
d="M469 84v-84h-409v35l38 32q88 74 138.5 123t78.5 95.5t28 93.5q0 50 -30.5 78.5t-76.5 28.5q-44 0 -88.5 -24.5t-62.5 -69.5l-18 7q27 78 83.5 120.5t123.5 42.5q43 0 80.5 -17.5t60.5 -51t23 -79.5q0 -47 -24.5 -88t-59.5 -72.5t-93 -75.5l-48 -37l-71 -57h327z" />
    <glyph glyph-name="three.osf" horiz-adv-x="577" 
d="M452.5 176q69.5 -53 69.5 -132q0 -55 -29 -99t-81 -69t-119 -25q-99 0 -166.5 50.5t-81.5 135.5h112q6 -79 44.5 -123t99.5 -44q57 0 90.5 37.5t33.5 102.5q0 87 -69.5 139t-189.5 58v20q105 18 165.5 61.5t60.5 106.5q0 51 -35 80.5t-94 29.5q-51 0 -97.5 -22.5
t-78.5 -66.5l-16 10q37 66 97.5 102t136.5 36q53 0 95 -18t65.5 -50t23.5 -72q0 -61 -57.5 -109.5t-168.5 -75.5q120 -10 189.5 -63z" />
    <glyph glyph-name="four.osf" horiz-adv-x="615" 
d="M565 150v-78h-120v-212h-91v212h-324v70l333 408h82v-400h120zM354 493l-272 -343h272v343z" />
    <glyph glyph-name="five.osf" horiz-adv-x="552" 
d="M411.5 240q95.5 -68 95.5 -183q0 -62 -28.5 -109t-80 -73t-120.5 -26q-94 0 -157.5 49t-85.5 136h113q7 -75 46.5 -121t100.5 -46q56 0 91 38.5t35 104.5q0 100 -83.5 156t-236.5 63l46 321h314v-69h-302l-24 -165q181 -8 276.5 -76z" />
    <glyph glyph-name="six.osf" horiz-adv-x="615" 
d="M453 403.5q49 -27.5 78 -77t29 -113.5q0 -65 -30 -116t-84.5 -80t-125.5 -29q-79 0 -139 36t-93 101t-33 151q0 107 51 204t147 158t224 63v-18q-88 -9 -157 -56.5t-111 -124t-52 -171.5q36 49 85 74.5t104 25.5q58 0 107 -27.5zM424.5 57q36.5 50 36.5 127
q0 89 -47.5 138t-119.5 49q-74 0 -138 -54v-36q0 -80 23 -142.5t62.5 -97t87.5 -34.5q59 0 95.5 50z" />
    <glyph glyph-name="seven.osf" horiz-adv-x="543" 
d="M518 550v-33l-307 -657h-85l348 612h-449v78h493z" />
    <glyph glyph-name="eight.osf" horiz-adv-x="588" 
d="M445 312q43 -29 65.5 -65t22.5 -86q0 -82 -62.5 -127.5t-168.5 -45.5q-75 0 -131 21.5t-86 59.5t-30 87q0 65 50 113t130 61q-54 29 -88 54t-54 60t-20 83q0 81 60 127.5t153 46.5q61 0 111 -19.5t78.5 -54t28.5 -78.5q0 -60 -50 -108.5t-126 -64.5q74 -35 117 -64z
M199 649q-31 -33 -31 -91q0 -45 19.5 -77t50.5 -54t78 -45q42 29 64.5 70t22.5 88q0 67 -32 104.5t-88 37.5q-53 0 -84 -33zM397 40q35 33 35 93q0 46 -22.5 78.5t-55 53.5t-87.5 49l-18 9q-43 -24 -68 -66.5t-25 -93.5q0 -72 39.5 -114t106.5 -42q60 0 95 33z" />
    <glyph glyph-name="nine.osf" horiz-adv-x="615" 
d="M162 151.5q-49 27.5 -78 77t-29 113.5q0 65 30 116t84.5 80t125.5 29q79 0 139 -36t93 -101t33 -151q0 -107 -51 -204t-147 -158t-224 -63v18q88 9 157 56.5t111 124t52 171.5q-36 -49 -85 -74.5t-104 -25.5q-58 0 -107 27.5zM190.5 498q-36.5 -50 -36.5 -127
q0 -89 47.5 -138t119.5 -49q74 0 138 54v36q0 80 -23 142.5t-62.5 97t-87.5 34.5q-59 0 -95.5 -50z" />
    <glyph glyph-name="zero.tf" 
d="M447 655.5q57 -44.5 87 -125.5t30 -187q0 -105 -29.5 -185t-86.5 -124.5t-137 -44.5t-137.5 45t-87 125.5t-29.5 186.5t29.5 186t86.5 124t137 44t137 -44.5zM462 292q0 186 -42.5 288t-123.5 102q-71 0 -102.5 -74.5t-31.5 -213.5q0 -186 41.5 -286.5t123.5 -100.5
q135 0 135 285z" />
    <glyph glyph-name="one.tf" 
d="M412.5 48.5q16.5 -19.5 43.5 -20.5l123 -3v-25h-457v25l122 3q27 1 44 21t17 50v528q-23 -15 -64 -25.5t-87 -11.5v20q128 3 202 80h40v-591q0 -31 16.5 -50.5z" />
    <glyph glyph-name="two.tf" 
d="M548 84v-84h-473v35l39 36q3 3 60 57q88 84 134.5 134.5t76.5 106.5t30 116q0 68 -39 110t-102 42q-53 0 -98 -31t-76 -88l-16 8q30 81 91 127.5t142 46.5q56 0 100.5 -23t69.5 -64t25 -94q0 -61 -32 -116t-77.5 -99.5t-120.5 -107.5q4 3 -55 -46l-77 -66h398z" />
    <glyph glyph-name="three.tf" 
d="M478.5 313q69.5 -53 69.5 -132q0 -55 -29 -99t-81 -69t-119 -25q-99 0 -166.5 50.5t-81.5 135.5h112q6 -79 44.5 -123t99.5 -44q57 0 90.5 37.5t33.5 102.5q0 87 -69.5 139t-189.5 58v20q105 18 165.5 61.5t60.5 106.5q0 51 -35 80.5t-94 29.5q-51 0 -97.5 -22.5
t-78.5 -66.5l-16 10q37 66 97.5 102t136.5 36q53 0 95 -18t65.5 -50t23.5 -72q0 -61 -57.5 -109.5t-168.5 -75.5q120 -10 189.5 -63z" />
    <glyph glyph-name="four.tf" 
d="M576 290v-78h-120v-212h-91v212h-324v70l333 408h82v-400h120zM365 633l-272 -343h272v343z" />
    <glyph glyph-name="five.tf" 
d="M450.5 380q95.5 -68 95.5 -183q0 -62 -28.5 -109t-80 -73t-120.5 -26q-94 0 -157.5 49t-85.5 136h113q7 -75 46.5 -121t100.5 -46q56 0 91 38.5t35 104.5q0 100 -83.5 156t-236.5 63l46 321h314v-69h-302l-24 -165q181 -8 276.5 -76z" />
    <glyph glyph-name="six.tf" 
d="M456 403.5q49 -27.5 78 -77t29 -113.5q0 -65 -30 -116t-84.5 -80t-125.5 -29q-79 0 -139 36t-93 101t-33 151q0 107 51 204t147 158t224 63v-18q-88 -9 -157 -56.5t-111 -124t-52 -171.5q36 49 85 74.5t104 25.5q58 0 107 -27.5zM427.5 57q36.5 50 36.5 127
q0 89 -47.5 138t-119.5 49q-74 0 -138 -54v-36q0 -80 23 -142.5t62.5 -97t87.5 -34.5q59 0 95.5 50z" />
    <glyph glyph-name="seven.tf" 
d="M566 690v-33l-317 -657h-85l358 612h-469v78h513z" />
    <glyph glyph-name="eight.tf" 
d="M461 312q43 -29 65.5 -65t22.5 -86q0 -82 -62.5 -127.5t-168.5 -45.5q-75 0 -131 21.5t-86 59.5t-30 87q0 65 50 113t130 61q-54 29 -88 54t-54 60t-20 83q0 81 60 127.5t153 46.5q61 0 111 -19.5t78.5 -54t28.5 -78.5q0 -60 -50 -108.5t-126 -64.5q74 -35 117 -64z
M215 649q-31 -33 -31 -91q0 -45 19.5 -77t50.5 -54t78 -45q42 29 64.5 70t22.5 88q0 67 -32 104.5t-88 37.5q-53 0 -84 -33zM413 40q35 33 35 93q0 46 -22.5 78.5t-55 53.5t-87.5 49l-18 9q-43 -24 -68 -66.5t-25 -93.5q0 -72 39.5 -114t106.5 -42q60 0 95 33z" />
    <glyph glyph-name="nine.tf" 
d="M165 287.5q-49 27.5 -78 77t-29 113.5q0 65 30 116t84.5 80t125.5 29q79 0 139 -36t93 -101t33 -151q0 -107 -51 -204t-147 -158t-224 -63v18q88 9 157 56.5t111 124t52 171.5q-36 -49 -85 -74.5t-104 -25.5q-58 0 -107 27.5zM193.5 634q-36.5 -50 -36.5 -127
q0 -89 47.5 -138t119.5 -49q74 0 138 54v36q0 80 -23 142.5t-62.5 97t-87.5 34.5q-59 0 -95.5 -50z" />
    <glyph glyph-name="zero.dnom" horiz-adv-x="340" 
d="M286 372q41 -59 41 -163t-40.5 -162.5t-113.5 -58.5t-114 59t-41 163t40.5 162.5t113.5 58.5t114 -59zM258 191q0 105 -23 164.5t-69 59.5q-80 0 -80 -189q0 -103 23 -162t69 -59q80 0 80 186z" />
    <glyph glyph-name="one.dnom" horiz-adv-x="340" 
d="M281 11v-17h-225v17l48 2q15 1 24.5 12t9.5 28v327q-14 -9 -38.5 -15t-47.5 -8v18q73 0 120 49h27v-371q0 -18 9.5 -28.5t24.5 -11.5z" />
    <glyph glyph-name="two.dnom" horiz-adv-x="340" 
d="M316 57v-61h-296v24l25 24l15 14q61 56 94 90.5t54 72t21 77.5q0 41 -23.5 66t-60.5 25q-32 0 -59.5 -19.5t-46.5 -55.5l-14 7q19 52 57.5 81.5t88.5 29.5q55 0 89 -32t34 -82q0 -39 -21 -74.5t-50.5 -64.5t-76.5 -69l-28 -24l-35 -29h233z" />
    <glyph glyph-name="three.dnom" horiz-adv-x="340" 
d="M281.5 189q39.5 -32 39.5 -79q0 -55 -39 -88.5t-103 -33.5q-63 0 -107 33.5t-52 88.5h80q2 -50 23 -77.5t58 -27.5q35 0 54 22t19 62q0 53 -40.5 84t-113.5 34v16q64 11 101 37.5t37 64.5q0 30 -20.5 47t-55.5 17q-32 0 -60 -13.5t-47 -41.5l-14 9q24 44 61 66t84 22
q50 0 83 -25t33 -63t-33 -67t-95 -46q68 -9 107.5 -41z" />
    <glyph glyph-name="four.dnom" horiz-adv-x="340" 
d="M264 112v-117h-61v117h-198v44l207 266h52v-257h72v-53h-72zM203 375l-161 -210h161v210z" />
    <glyph glyph-name="five.dnom" horiz-adv-x="340" 
d="M104 361l-12 -79q110 -4 168.5 -46.5t58.5 -116.5q0 -59 -39 -95t-103 -36q-60 0 -101 32.5t-55 90.5h78q2 -48 24.5 -77t58.5 -29q35 0 57 23.5t22 63.5q0 59 -50.5 93t-145.5 38l28 202h199v-64h-188z" />
    <glyph glyph-name="six.dnom" horiz-adv-x="340" 
d="M292.5 225q37.5 -39 37.5 -97q0 -62 -42 -101t-109 -39q-74 0 -119.5 49t-45.5 131q0 67 32.5 127.5t92.5 98t139 37.5v-16q-78 -7 -129 -61.5t-62 -141.5q21 24 50.5 38t62.5 14q55 0 92.5 -39zM241 34q21 29 21 76q0 54 -26 87t-69 33q-38 0 -82 -34l-1 -24
q0 -73 28 -120t73 -47q35 0 56 29z" />
    <glyph glyph-name="seven.dnom" horiz-adv-x="340" 
d="M325 422v-24l-189 -403h-65l215 366h-270v61h309z" />
    <glyph glyph-name="eight.dnom" horiz-adv-x="340" 
d="M291.5 173.5q28.5 -28.5 28.5 -73.5q0 -51 -38.5 -81.5t-105.5 -30.5q-69 0 -112 29t-43 76q0 39 28.5 67t76.5 38q-46 25 -70 53t-24 70q0 50 36.5 80t97.5 30q59 0 97.5 -27.5t38.5 -68.5q0 -36 -27.5 -63.5t-75.5 -38.5q64 -31 92.5 -59.5zM118.5 282.5
q20.5 -20.5 65.5 -42.5q50 33 50 90q0 41 -18 62.5t-52 21.5q-31 0 -48.5 -19t-17.5 -54q0 -38 20.5 -58.5zM231.5 24q19.5 19 19.5 55q0 39 -22 59.5t-68 41.5q-3 2 -19 10q-52 -29 -52 -92q0 -43 23 -68t63 -25q36 0 55.5 19z" />
    <glyph glyph-name="nine.dnom" horiz-adv-x="340" 
d="M51.5 194q-37.5 39 -37.5 97q0 62 42 101t108 39q74 0 119.5 -49t45.5 -131q0 -67 -32 -127.5t-92 -98t-140 -37.5v16q78 7 129 61.5t62 141.5q-20 -23 -49.5 -37.5t-62.5 -14.5q-55 0 -92.5 39zM258 223q1 7 1 24q0 73 -28 120t-73 47q-34 0 -55 -29t-21 -76
q0 -54 25.5 -87t68.5 -33q38 0 82 34z" />
    <glyph glyph-name="zero.numr" horiz-adv-x="340" 
d="M286 641q41 -59 41 -163t-40.5 -162.5t-113.5 -58.5t-114 59t-41 163t40.5 162.5t113.5 58.5t114 -59zM258 460q0 105 -23 164.5t-69 59.5q-80 0 -80 -189q0 -103 23 -162t69 -59q80 0 80 186z" />
    <glyph glyph-name="one.numr" horiz-adv-x="340" 
d="M281 281v-17h-225v17l48 2q15 1 24.5 12t9.5 28v327q-14 -9 -38.5 -15t-47.5 -8v18q73 0 120 49h27v-371q0 -18 9.5 -28.5t24.5 -11.5z" />
    <glyph glyph-name="two.numr" horiz-adv-x="340" 
d="M316 325v-61h-296v24l25 24l15 14q61 56 94 90.5t54 72t21 77.5q0 41 -23.5 66t-60.5 25q-32 0 -59.5 -19.5t-46.5 -55.5l-14 7q19 52 57.5 81.5t88.5 29.5q55 0 89 -32t34 -82q0 -39 -21 -74.5t-50.5 -64.5t-76.5 -69l-28 -24l-35 -29h233z" />
    <glyph glyph-name="three.numr" horiz-adv-x="340" 
d="M281.5 458q39.5 -32 39.5 -79q0 -55 -39 -88.5t-103 -33.5q-63 0 -107 33.5t-52 88.5h80q2 -50 23 -77.5t58 -27.5q35 0 54 22t19 62q0 53 -40.5 84t-113.5 34v16q64 11 101 37.5t37 64.5q0 30 -20.5 47t-55.5 17q-32 0 -60 -13.5t-47 -41.5l-14 9q24 44 61 66t84 22
q50 0 83 -25t33 -63t-33 -67t-95 -46q68 -9 107.5 -41z" />
    <glyph glyph-name="four.numr" horiz-adv-x="340" 
d="M264 381v-117h-61v117h-198v44l207 266h52v-257h72v-53h-72zM203 644l-161 -210h161v210z" />
    <glyph glyph-name="five.numr" horiz-adv-x="340" 
d="M104 630l-12 -79q110 -4 168.5 -46.5t58.5 -116.5q0 -59 -39 -95t-103 -36q-60 0 -101 32.5t-55 90.5h78q2 -48 24.5 -77t58.5 -29q35 0 57 23.5t22 63.5q0 59 -50.5 93t-145.5 38l28 202h199v-64h-188z" />
    <glyph glyph-name="six.numr" horiz-adv-x="340" 
d="M292.5 494q37.5 -39 37.5 -97q0 -62 -42 -101t-109 -39q-74 0 -119.5 49t-45.5 131q0 67 32.5 127.5t92.5 98t139 37.5v-16q-78 -7 -129 -61.5t-62 -141.5q21 24 50.5 38t62.5 14q55 0 92.5 -39zM241 303q21 29 21 76q0 54 -26 87t-69 33q-38 0 -82 -34l-1 -24
q0 -73 28 -120t73 -47q35 0 56 29z" />
    <glyph glyph-name="seven.numr" horiz-adv-x="340" 
d="M325 691v-24l-189 -403h-65l215 366h-270v61h309z" />
    <glyph glyph-name="eight.numr" horiz-adv-x="340" 
d="M291.5 442.5q28.5 -28.5 28.5 -73.5q0 -51 -38.5 -81.5t-105.5 -30.5q-69 0 -112 29t-43 76q0 39 28.5 67t76.5 38q-46 25 -70 53t-24 70q0 50 36.5 80t97.5 30q59 0 97.5 -27.5t38.5 -68.5q0 -36 -27.5 -63.5t-75.5 -38.5q64 -31 92.5 -59.5zM118.5 551.5
q20.5 -20.5 65.5 -42.5q50 33 50 90q0 41 -18 62.5t-52 21.5q-31 0 -48.5 -19t-17.5 -54q0 -38 20.5 -58.5zM231.5 293q19.5 19 19.5 55q0 39 -22 59.5t-68 41.5q-3 2 -19 10q-52 -29 -52 -92q0 -43 23 -68t63 -25q36 0 55.5 19z" />
    <glyph glyph-name="nine.numr" horiz-adv-x="340" 
d="M51.5 463q-37.5 39 -37.5 97q0 62 42 101t108 39q74 0 119.5 -49t45.5 -131q0 -67 -32 -127.5t-92 -98t-140 -37.5v16q78 7 129 61.5t62 141.5q-20 -23 -49.5 -37.5t-62.5 -14.5q-55 0 -92.5 39zM258 492q1 7 1 24q0 73 -28 120t-73 47q-34 0 -55 -29t-21 -76
q0 -54 25.5 -87t68.5 -33q38 0 82 34z" />
    <glyph glyph-name="exclamdown.cap" horiz-adv-x="316" 
d="M207 641.5q19 -18.5 19 -46.5q0 -26 -19 -45t-49 -19t-49 19t-19 45q0 28 18.5 46.5t49.5 18.5q30 0 49 -18.5zM167 457l56 -507h-130l55 507h19z" />
    <glyph glyph-name="questiondown.cap" horiz-adv-x="398" 
d="M295 658.5q19 -18.5 19 -46.5q0 -26 -19 -45t-49 -19t-49 19t-19 45q0 28 18.5 46.5t49.5 18.5q30 0 49 -18.5zM188.5 -6.5q-69.5 39.5 -106.5 91.5t-37 110q0 39 15.5 63.5t38.5 37.5t59 27q34 13 51.5 22t30 25t12.5 40q0 20 -11 55h21q41 -61 41 -106q0 -43 -31.5 -68
t-85.5 -45q-5 -2 -11 -3.5t-12 -4.5q-49 -16 -72.5 -30.5t-23.5 -38.5q0 -50 91 -80t195 -42v-113q-95 20 -164.5 59.5z" />
    <glyph glyph-name="periodcentered.cap" horiz-adv-x="246" 
d="M74 359.5q-19 18.5 -19 46.5q0 26 19 45t49 19q31 0 49.5 -18.5t18.5 -45.5q0 -28 -18.5 -46.5t-49.5 -18.5q-30 0 -49 18.5z" />
    <glyph glyph-name="bullet.cap" horiz-adv-x="313" 
d="M83.5 338.5q-28.5 28.5 -28.5 69.5q0 40 28.5 68t73.5 28q46 0 74 -28t28 -68q0 -42 -28 -70t-74 -28q-45 0 -73.5 28.5z" />
    <glyph glyph-name="hyphen.cap" horiz-adv-x="398" 
d="M55 408h288v-80h-288v80z" />
    <glyph glyph-name="endash.cap" horiz-adv-x="576" 
d="M55 342v63h466v-63h-466z" />
    <glyph glyph-name="emdash.cap" horiz-adv-x="1043" 
d="M55 342v63h933v-63h-933z" />
    <glyph glyph-name="guillemotleft.cap" horiz-adv-x="472" 
d="M211 170l-20 -15l-166 170v50l166 171l20 -15l-92 -181zM427 170l-20 -15l-166 170v50l166 171l20 -15l-92 -181z" />
    <glyph glyph-name="guillemotright.cap" horiz-adv-x="456" 
d="M29 531l20 15l166 -171v-50l-166 -170l-20 15l92 180zM245 531l20 15l166 -171v-50l-166 -170l-20 15l92 180z" />
    <glyph glyph-name="guilsinglleft.cap" horiz-adv-x="256" 
d="M211 170l-20 -15l-166 170v50l166 171l20 -15l-92 -181z" />
    <glyph glyph-name="guilsinglright.cap" horiz-adv-x="240" 
d="M29 531l20 15l166 -171v-50l-166 -170l-20 15l92 180z" />
    <glyph glyph-name="at.cap" horiz-adv-x="925" 
d="M680 725.5q84 -35.5 137 -109t53 -182.5q0 -82 -25 -148t-70 -103.5t-102 -37.5q-46 0 -84 21.5t-56 60.5q-25 -40 -63 -64t-79 -24q-72 0 -115 52t-43 135q0 65 28.5 124.5t79.5 95.5t116 36q77 0 121 -60l9 46h83l-51 -224q-1 -5 -6.5 -26.5t-5.5 -47.5q0 -47 21 -71
t61 -24q48 0 82.5 35t52 92.5t17.5 124.5q0 96 -45 166t-122 107t-170 37q-116 0 -213 -57t-152.5 -152.5t-55.5 -207.5q0 -99 45 -175.5t125 -119.5t181 -43q52 0 97 13l4 -22q-48 -17 -110 -17q-108 0 -192 45.5t-131 127.5t-47 190q0 124 60.5 225t163.5 159t224 58
q93 0 177 -35.5zM564 478q-6 35 -29.5 60.5t-55.5 25.5q-44 0 -79 -31.5t-55 -83.5t-20 -111q0 -67 28 -109t75 -42q25 0 47.5 12t38.5 32z" />
    <glyph glyph-name="acute.cap" horiz-adv-x="174" 
d="M0 776l51 149h123l-143 -149h-31z" />
    <glyph glyph-name="breve.cap" horiz-adv-x="239" 
d="M239 877q0 -45 -29.5 -76t-90.5 -31t-90 31t-29 76q0 24 7 42h21q-3 -15 -3 -27q0 -31 26.5 -47t67.5 -16t68 16t27 47q0 12 -3 27h21q7 -18 7 -42z" />
    <glyph glyph-name="caron.cap" horiz-adv-x="308" 
d="M308 938l-128 -162h-52l-128 162h31l123 -91l123 91h31z" />
    <glyph glyph-name="cedilla.cap" horiz-adv-x="198" 
d="M170 -83q28 -20 28 -52q0 -33 -26.5 -55.5t-67.5 -22.5q-56 0 -104 43l16 25q17 -11 39 -17t41 -6q20 0 33 8.5t13 25.5q0 44 -89 43l14 92h23v-64q52 0 80 -20z" />
    <glyph glyph-name="circumflex.cap" horiz-adv-x="308" 
d="M154 867l-123 -91h-31l128 162h52l128 -162h-31z" />
    <glyph glyph-name="dieresis.cap" horiz-adv-x="312" 
d="M15 872q15 15 40 15q24 0 38.5 -15t14.5 -40t-14.5 -40.5t-38.5 -15.5q-25 0 -40 15.5t-15 40.5t15 40zM218.5 872q14.5 15 38.5 15q25 0 40 -15t15 -40t-15 -40.5t-40 -15.5q-24 0 -38.5 15t-14.5 41q0 25 14.5 40z" />
    <glyph glyph-name="dotaccent.cap" horiz-adv-x="136" 
d="M19 794.5q-19 18.5 -19 46.5q0 26 19 45t49 19q31 0 49.5 -18.5t18.5 -45.5q0 -28 -18.5 -46.5t-49.5 -18.5q-30 0 -49 18.5z" />
    <glyph glyph-name="grave.cap" horiz-adv-x="174" 
d="M0 925h123l51 -149h-31z" />
    <glyph glyph-name="hungarumlaut.cap" horiz-adv-x="240" 
d="M57 776h-57l41 152h68zM189 776h-57l40 150h68z" />
    <glyph glyph-name="macron.cap" horiz-adv-x="298" 
d="M0 776v65h298v-65h-298z" />
    <glyph glyph-name="ring.cap" horiz-adv-x="188" 
d="M27 924q27 26 67 26t67 -26t27 -67t-27 -68.5t-67 -27.5t-67 27.5t-27 68.5t27 67zM134.5 898.5q-16.5 16.5 -40.5 16.5q-25 0 -41 -16.5t-16 -41.5q0 -26 16 -43.5t41 -17.5q24 0 40.5 17.5t16.5 43.5q0 25 -16.5 41.5z" />
    <glyph glyph-name="tilde.cap" horiz-adv-x="310" 
d="M284 810q-26 -35 -64 -35q-19 0 -35 7.5t-40 23.5q-22 14 -35.5 21t-28.5 7q-20 0 -38 -13.5t-26 -40.5h-17q4 58 29.5 91.5t63.5 33.5q19 0 36.5 -8t39.5 -24q22 -15 35 -21.5t28 -6.5q21 0 39.5 14.5t21.5 46.5h17q0 -61 -26 -96z" />
    <glyph glyph-name="ffl" horiz-adv-x="967" 
d="M952 18v-18h-257v18l19 1q29 2 46.5 18t17.5 49v471q0 36 -8 67.5t-41 58t-101 26.5t-109 -29t-41 -81q0 -48 34.5 -72t90.5 -24h96v-21h-159v-395q0 -30 17 -47.5t47 -19.5l39 -2v-18h-276v18l18 1q29 2 46.5 18.5t17.5 50.5v394h-240v-395q0 -30 17 -47.5t47 -19.5
l39 -2v-18h-276v18l18 1q64 3 64 69v394h-118v21h118v38q0 116 58.5 183t158.5 67q33 0 62 -6v-90q-58 14 -102 14q-69 0 -108.5 -29t-39.5 -82q0 -47 34.5 -71t89.5 -24h178v40q0 115 57.5 181.5t155.5 66.5q39 0 76 -9v-63l131 28v-661q0 -30 17 -47.5t47 -19.5z" />
    </font>
</defs>
</svg>
