<svg xmlns:xlink="http://www.w3.org/1999/xlink" xmlns="http://www.w3.org/2000/svg" id="icons" width="66"  height="12" >

  <symbol id="logo" viewBox="0 0 66 12"><path fill="inherit" d="M2.5 12l.9-2.6H8L9 12h2.4L7.1.7H4.5L.2 12h2.3zm4.8-4.6H4.2l1.6-4.3 1.5 4.3zm7.8 4.6V4l5.2 8h2.3V.7h-2.2v7.5L15.7.7h-2.8V12h2.2zm14.8 0V2.8h3.6V.7h-9.4v2.1h3.6V12h2.2zm5.3 0l.9-2.6h4.6l.9 2.6H44L39.8.7h-2.6L32.8 12h2.4zM40 7.4h-3.1l1.6-4.3L40 7.4zm7.8 4.6V7.6H49l2.2 4.4h2.5l-2.4-4.6c1.5-.4 2.4-1.6 2.4-3.2 0-2-1.4-3.5-3.6-3.5h-4.4V12h2.1zm1.8-6.3h-1.8V2.6h1.8c1.1 0 1.8.6 1.8 1.6-.1.9-.7 1.5-1.8 1.5zm7.1 6.3l.9-2.6h4.6l.9 2.6h2.4L61.3.7h-2.6L54.4 12h2.3zm4.8-4.6h-3.1L60 3.1l1.5 4.3z"></path></symbol>

  <symbol id="arrow-back" viewBox="0 0 52 21"><defs></defs>
    <style>
      .st1 {
        fill: none;
        stroke: #fff;
        stroke-width: 1.5;
      }
    </style><path id="Stroke-1" fill="none" stroke="#FFFFFF" d="M.5 10.5l50.5-.2"></path><path id="Stroke-3" d="M39.5 20s-.3-9.5 11.5-9.8" class="st1" stroke="#FFFFFF" fill="none" stroke-width="1.5px"></path><path id="Stroke-5" d="M39.5.3s-.3 9.5 11.5 9.8" class="st1" stroke="#FFFFFF" fill="none" stroke-width="1.5px"></path></symbol>

  <symbol id="arrow-right" viewBox="0 0 78 16" xml:space="preserve">
    <title>Arrow - right</title>
    <path style="" d="M0 8h77" stroke="#000000" fill="none" stroke-width="1.5px"></path><path style="" d="M68 15s-.3-6.8 9-7" stroke="#000000" fill="none" stroke-width="1.5px"></path><path style="" d="M68 1s-.3 6.8 9 7" stroke="#000000" fill="none" stroke-width="1.5px"></path></symbol>

  <symbol id="arrow-down" viewBox="0 0 62 305" xmlns="http://www.w3.org/2000/svg">
    <title>Arrow - down</title>
    <g stroke="#000000" stroke-width="inherit" fill="none" fill-rule="evenodd">
      <path d="M31 0v304M1.009 269s29-1 30 35M61.009 269s-29-1-30 35" stroke="#000000" fill="none"></path>
    </g>
  </symbol>

  <symbol id="border" viewBox="0 0 277 310">
    <path fill="none" fill-rule="evenodd" stroke="#000000" stroke-width="0.5px" d="M138.5.25c38.177 0 72.74 15.474 97.758 40.492 25.018 25.019 40.492 59.581 40.492 97.758h0v171.25H.25V138.5c0-38.177 15.474-72.74 40.492-97.758C65.761 15.724 100.323.25 138.5.25z"></path>
  </symbol>

  <symbol id="more" viewBox="0 0 50 50" xmlns="http://www.w3.org/2000/svg">
    <title>Read more</title>
    <path d="M38.058 43.423l-.333-.499-1.94 1.295.332.499 1.94-1.295zm6.373-3.03l-.136-.101-.173.204c-.233.27-.53.302-.822.083l-1.504-1.126.394-.526 2.605.09c.22.003.406.01.67-.004l.651-.869-.136-.102c-.227.195-.577.216-.9.216l-2.523-.037c.44-.885.22-1.687-.285-2.065-.57-.428-1.49-.348-2.238.65l-1.598 2.134.136.102.169-.198c.233-.27.515-.323.787-.119l3.345 2.506c.272.204.302.489.112.782l-.147.224.136.102 1.457-1.945zm-2.39-1.537l-.374.5-2.146-1.608.35-.467c.582-.778 1.39-.749 1.916-.356.544.408.793 1.212.254 1.931zm6.551-6.068l-1.69-.9-.069.173c.914.617 1.339 1.344.988 2.225l-.214.534c-.15.376-.473.509-.819.37l-1.88-.75.317-.797c.246-.617.609-.673 1.221-.481l.072-.18-1.903-.76-.072.18c.576.283.778.564.532 1.181l-.318.798-2.363-.943.45-1.128c.351-.88 1.067-1.013 1.9-.83l.058-.142-1.498-.597-1.647 4.13.158.063.111-.235c.155-.322.413-.445.73-.32l3.882 1.549c.316.126.418.394.312.726l-.084.254.158.063 1.668-4.183zm.844-3.583l-.169-.017c-.064.538-.247.804-.56.772a.778.778 0 01-.3-.097l-.972-.524.229-2.192 1.118-.34a.735.735 0 01.297-.033c.282.029.41.287.357.794l.169.018.244-2.345-.169-.017c-.091.406-.323.601-.627.7l-5.139 1.566-.017.169 4.583 2.521c.338.19.561.393.592.877l.17.017.194-1.869zm-1.957-2.004l-.213 2.039-2.368-1.265 2.58-.774zm2.057-5.662c-.361-1.993-2.038-2.891-3.56-2.615-1.531.277-2.375 1.664-2.057 3.418l.446 2.462.167-.03-.03-.258c-.04-.355.114-.597.449-.657l4.113-.745c.334-.06.563.112.65.45l.063.26.167-.03-.408-2.255zm-.181-.091l.033.183c.068.375-.136.659-.503.725l-4.655.843-.128-.71c-.238-1.315.683-2.412 2.197-2.686 1.475-.267 2.828.386 3.056 1.645zm-5.122-8.283l-.52.3 1.166 2.02.52-.3-1.166-2.02zm-2.454-6.31l-.106.133.301.26c.25.219.268.626.021.937l-2.61 3.285 1.546-5.175-.21-.167-4.446 2.55 2.554-3.215c.217-.272.492-.292.78-.095l.225.159.106-.133-1.903-1.512-.106.133.2.18c.257.235.295.513.083.78L35.61 8.254c-.212.266-.487.286-.78.083l-.214-.148-.106.133 1.218.967 4.281-2.537-1.477 4.764 1.338 1.063.106-.133-.2-.179c-.257-.236-.306-.512-.095-.779l2.504-3.152c.242-.304.642-.39.918-.192l.251.18.106-.134-1.68-1.335zm-7.624-5c-1.466-.541-2.99.217-3.585 1.828-.601 1.625.07 3.22 1.544 3.765 1.466.543 2.998-.213 3.593-1.823.601-1.626-.078-3.224-1.552-3.77zm-.246.083c1.102.407 1.417 2.078.824 3.68-.51 1.384-1.476 2.08-2.38 1.746-1.102-.407-1.417-2.078-.822-3.689.508-1.375 1.466-2.074 2.378-1.737zM27.527.34l-.012.17.265.035c.354.05.54.283.513.647l-.136 1.874-.655-.048-1.33-2.24c-.117-.188-.21-.349-.366-.563l-1.082-.08-.012.17c.286.086.492.37.667.642l1.33 2.144c-.982.107-1.539.724-1.585 1.354-.051.71.512 1.442 1.757 1.533l2.657.194.013-.17-.258-.035c-.353-.05-.55-.26-.524-.598l.304-4.169c.024-.34.248-.518.598-.517l.267.004.013-.17L27.527.34zm-.004 2.842l.622.046-.195 2.674-.582-.043c-.969-.07-1.381-.766-1.333-1.42.049-.68.591-1.322 1.488-1.257zM18.869.916l.146 1.91.183-.035c.031-1.102.418-1.851 1.349-2.026l.565-.107c.398-.075.683.127.752.493l.375 1.99-.844.159c-.652.123-.894-.153-1.06-.773l-.191.036.38 2.014.19-.036c-.07-.638.059-.959.711-1.082l.844-.159.471 2.5-1.194.225c-.931.175-1.427-.358-1.719-1.16l-.15.028.298 1.584 4.37-.823-.032-.167-.258.032c-.354.042-.597-.11-.66-.444L22.62.967c-.063-.334.108-.564.446-.652l.26-.066-.032-.167-4.426.834zm-5.59 4.779l.296.521 2.029-1.152-.296-.521-2.029 1.152zM6.72 8.259l.128.111.187-.191c.252-.254.55-.263.825-.025l1.42 1.23-.429.497-2.592-.274c-.22-.019-.405-.04-.67-.044l-.71.82.129.112c.24-.178.59-.175.913-.152l2.514.216c-.502.852-.34 1.667.137 2.08.539.467 1.462.453 2.28-.49l1.744-2.014-.129-.112-.182.186c-.251.253-.536.285-.793.062L8.33 7.535c-.257-.223-.266-.51-.056-.789l.163-.212-.129-.112L6.72 8.26zm2.275 1.703l.408-.471 2.027 1.755-.382.441c-.637.735-1.441.649-1.937.22-.514-.446-.705-1.265-.116-1.945zM2.029 15.54l1.621 1.02.082-.168c-.867-.681-1.239-1.437-.826-2.29l.251-.518c.177-.364.509-.473.844-.31l1.822.882-.374.773c-.29.598-.655.628-1.252.392l-.085.175 1.844.894.085-.175c-.555-.323-.736-.618-.446-1.215l.374-.773 2.289 1.11-.53 1.093c-.413.853-1.137.934-1.955.69l-.067.139 1.45.703 1.94-4.002-.153-.074-.128.226c-.177.31-.444.415-.75.267l-3.761-1.823c-.306-.149-.39-.423-.26-.747l.103-.247-.153-.075-1.965 4.053zM.925 19.063l.167.03c.103-.533.304-.786.615-.73.088.015.189.05.292.117l.931.593-.384 2.17-1.14.258a.735.735 0 01-.298.013c-.279-.05-.388-.316-.3-.818l-.167-.03-.41 2.321.167.03c.12-.398.365-.577.675-.654l5.238-1.195.03-.167-4.392-2.842c-.324-.214-.533-.432-.529-.917l-.167-.03-.328 1.851zm1.81 2.138l.357-2.018 2.272 1.43-2.63.588zM.282 26.694c.219 2.013 1.828 3.028 3.366 2.86 1.546-.167 2.486-1.492 2.293-3.263l-.27-2.488-.17.018.013.26c.014.356-.157.587-.495.623l-4.155.452c-.338.037-.554-.151-.616-.495l-.045-.264-.169.018.248 2.28zm.174.104l-.02-.186c-.041-.378.182-.647.552-.687l4.703-.511.078.716c.145 1.329-.852 2.358-2.382 2.524-1.49.162-2.793-.584-2.931-1.856zm4.521 8.65l.54-.262-1.02-2.098-.539.262 1.02 2.098zm1.994 6.456l.115-.125-.282-.28c-.233-.237-.222-.644.046-.937l2.836-3.092-1.909 5.053.197.18 4.616-2.229-2.775 3.027c-.236.257-.51.257-.784.04l-.214-.175-.115.126 1.791 1.642.115-.125-.186-.193c-.24-.253-.258-.533-.028-.784l2.83-3.086c.23-.251.505-.252.784-.029l.202.164.115-.126-1.146-1.05-4.45 2.227 1.812-4.648-1.26-1.155-.115.126.186.192c.24.253.27.533.04.784L6.67 40.398c-.263.286-.668.344-.93.126l-.237-.196-.115.125 1.582 1.451zm7.257 5.535c1.423.647 2.997 0 3.707-1.563.717-1.579.162-3.218-1.269-3.868-1.423-.646-3.005-.003-3.715 1.56-.716 1.579-.154 3.222 1.277 3.871zm.25-.063c-1.069-.486-1.262-2.175-.556-3.731.61-1.343 1.623-1.968 2.5-1.57 1.07.486 1.264 2.175.554 3.739-.606 1.335-1.612 1.963-2.497 1.562zm6.246 2.042l.025-.168-.263-.054c-.349-.076-.518-.321-.466-.682l.27-1.86.649.094 1.168 2.33c.103.195.185.363.325.587l1.074.156.024-.168c-.279-.106-.465-.403-.62-.688l-1.175-2.232c.987-.037 1.587-.614 1.677-1.239.102-.705-.408-1.475-1.643-1.654l-2.637-.381-.025.168.254.053c.35.075.53.298.482.634l-.6 4.137c-.048.337-.284.499-.632.473l-.267-.022-.025.168 2.405.348zm.206-2.835l-.617-.089.384-2.653.577.083c.962.14 1.324.863 1.23 1.512-.098.674-.684 1.276-1.574 1.147zm8.493 3.415l.21-1.903h-.185c-.235 1.077-.754 1.741-1.701 1.741h-.575c-.405 0-.648-.25-.648-.623v-2.025h.858c.664 0 .85.316.9.956h.194v-2.05h-.195c-.048.64-.235.932-.899.932h-.858v-2.544h1.215c.947 0 1.336.616 1.474 1.458h.154v-1.612H24.92v.17l.259.017c.356.024.567.218.567.559v4.18c0 .34-.21.534-.559.558l-.267.016v.17h4.503z" fill="#0D0D0D" fill-rule="nonzero" stroke="none" stroke-width="1"></path>
  </symbol>
</svg>