<svg xmlns:xlink="http://www.w3.org/1999/xlink" xmlns="http://www.w3.org/2000/svg" class="scroll icon" viewBox="0 0 79 81" style="transform: rotate(0deg);" width="79"  height="81" >
  <defs>
    <path id="a" d="M.263.272h8.592V8.62H.263z"></path>
    <path id="c" d="M.921.208h7.45V9H.921z"></path>
  <path id="a" d="M.263.272h8.592V8.62H.263z"></path><path id="c" d="M.921.208h7.45V9H.921z"></path></defs>
  <g fill="none" fill-rule="evenodd">
    <path fill="#000" d="M40.091 2.165C39.89.887 39.2.22 38.192.248c-.984.026-1.686.68-1.66 1.64.027 1.055.914 1.452 1.92 1.786l.956.322c1.15.377 2.233.924 2.27 2.304.038 1.415-1.026 2.464-2.693 2.508-1.68.044-3.109-.914-3.435-2.321l1.451-.04c.166 1.27 1.077 2.133 2.216 2.103.972-.027 1.686-.682 1.662-1.617-.026-.971-.805-1.371-1.75-1.705l-.945-.311c-1.235-.424-2.438-.968-2.478-2.454-.037-1.416.992-2.415 2.707-2.461 1.571-.042 2.744.742 3.117 2.125l-1.439.038zM49.169 4.042c.214-1.622-.352-2.732-1.42-2.955-1.528-.317-2.957 1.077-3.394 3.18-.462 2.22.459 3.98 2.245 4.352 1.398.29 2.537-.294 3.142-1.614l.259.054c-.652 1.898-2.13 2.817-4.034 2.42-2.22-.46-3.403-2.434-2.905-4.831.525-2.526 2.55-4.25 5.064-3.727 1.645.342 2.677 1.512 2.465 3.416l-1.422-.295zM55.515 3.79l-1.753 3.566.83.409c1.195.587 2.298.005 2.742-.9.429-.873.249-2.057-1.044-2.693l-.775-.381zM53.37 2.765l.11-.226 3.546 1.74c1.658.817 2.027 2.135 1.56 3.083-.412.84-1.52 1.379-2.928.98l.637 3.684c.089.473.216.976.56 1.253l-.11.227-1.443-.71c-.095-.381-.134-.654-.19-.976L54.529 8l-.873-.43-1.228 2.5c-.238.485-.112.908.346 1.173l.345.196-.111.227-3.232-1.588.11-.226.367.153c.479.195.887.074 1.109-.378l2.732-5.56c.222-.452.069-.847-.39-1.113l-.333-.191zM60.672 10.681c-1.645 1.922-2.065 4.403-.744 5.534 1.093.936 2.782.456 4.194-1.193 1.653-1.93 2.072-4.412.752-5.543-1.085-.928-2.783-.456-4.202 1.202m4.788 4.824c-1.653 1.931-4.158 2.202-5.915.697-1.768-1.512-1.89-4.08-.222-6.029 1.653-1.93 4.167-2.194 5.925-.689 1.767 1.512 1.881 4.072.212 6.021M69.611 14.29l.207-.144 2.101 3.012-.207.145-.288-.37c-.324-.404-.739-.495-1.152-.206l-5.03 3.508c-.452.317-.55.825-.208 1.317l.487.699c.804 1.15 2.05 1.218 3.558.59l.158.226-2.49 1.358-3.819-5.472.207-.144.246.31c.325.403.74.494 1.153.206l5.078-3.543c.414-.288.472-.71.2-1.163l-.2-.328zM74.63 21.883l.235-.093 1.354 3.413-.234.093-.195-.426c-.223-.466-.606-.65-1.075-.465l-5.7 2.262c-.512.203-.725.675-.504 1.233l.314.792c.518 1.305 1.716 1.656 3.327 1.391l.102.256-2.736.75-2.46-6.2.234-.095.168.36c.224.466.607.65 1.075.464l5.756-2.283c.468-.186.62-.582.46-1.087l-.12-.365z"></path>
    <g transform="translate(70 33.042)" fill="none">
      <mask id="b" fill="#FFFFFF">
        <use xlink:href="#a" fill="#FFFFFF"></use>
      </mask>
      <path fill="#000" d="M8.547 2.656l-6.995.375c-.55.029-.903.408-.873.972l.015.275C.795 6.171 2.662 7.38 4.878 7.261c2.275-.122 3.832-1.562 3.726-3.539l-.057-1.066zm-.15-2.37l.251-.014.198 3.701C8.987 6.609 7.49 8.491 5.19 8.614 2.902 8.736.605 7.105.444 4.111L.264.721.514.708l.045.393c.063.514.367.81.871.783l6.18-.331c.503-.027.774-.353.782-.882l.004-.385z" mask="url(#b)"></path>
    </g>
    <path fill="#000" d="M74.983 44.731c-2.473-.551-4.864.245-5.242 1.944-.313 1.407.905 2.674 3.026 3.147 2.485.553 4.876-.243 5.254-1.943.31-1.394-.905-2.673-3.038-3.148m-2.013 6.501c-2.485-.553-3.902-2.64-3.398-4.901.506-2.274 2.718-3.589 5.225-3.032 2.485.554 3.899 2.653 3.396 4.914-.506 2.274-2.715 3.578-5.223 3.019M71.617 62.72l-1.412 2.357-.226-.135c.3-.619.202-1.11-.272-1.673l-4.788-5.72.154-.258 5.965 1.136-3.838-4.689.166-.278 7.722 1.474c.477.09.837-.045 1.178-.498l.227.136-1.658 2.77-.217-.129c.3-.548.372-.925.032-1.128a1.005 1.005 0 00-.335-.117l-6.013-1.29 3.315 3.857 1.184.22c.47.1.856-.075 1.172-.487l.227.136-1.658 2.77-.217-.13c.288-.527.362-.93.012-1.14a1.094 1.094 0 00-.3-.109l-5.95-1.253 3.735 4.278c.149.172.284.295.419.376.41.247.75.03 1.16-.607l.216.13zM63.642 70.47l.162.191-2.471 2.078-.162-.193.315-.297c.38-.367.389-.954.01-1.404l-4.54-5.4.286-.24 8.738 1.872-3.675-4.373c-.371-.44-.984-.536-1.376-.238l-.484.376-.162-.193 2.462-2.07.162.194-.334.311c-.37.343-.364.948.007 1.39l3.853 4.583.285.058c.526.123.887-.025 1.406-.414l.163.193-1.782 1.498-8.105-1.81 3.382 4.024c.37.44.975.544 1.367.246l.493-.383zM51.4 72.002l3.182-1.349.346.818-3.181 1.349zM43.616 76.804c.359 1.245 1.126 1.821 2.124 1.67.973-.148 1.59-.885 1.446-1.835-.158-1.044-1.088-1.328-2.128-1.535l-.99-.202c-1.19-.233-2.331-.642-2.538-2.007-.213-1.402.714-2.574 2.364-2.824 1.662-.252 3.2.522 3.698 1.88l-1.436.217c-.322-1.238-1.333-1.983-2.461-1.812-.962.145-1.591.885-1.45 1.81.145.962.968 1.262 1.949 1.478l.976.192c1.279.268 2.54.66 2.764 2.131.212 1.4-.686 2.521-2.384 2.778-1.555.237-2.817-.398-3.358-1.725l1.424-.216z"></path>
    <g transform="translate(32 70.042)" fill="none">
      <mask id="d" fill="#FFFFFF">
        <use xlink:href="#c" fill="#FFFFFF"></use>
      </mask>
      <path fill="#000" d="M2.368 6.017c-.01 1.637.688 2.668 1.777 2.756 1.556.125 2.801-1.437 2.973-3.578.181-2.26-.952-3.893-2.77-4.039-1.424-.115-2.48.607-2.917 1.993l-.264-.022C1.578 1.162 2.93.067 4.868.222 7.13.404 8.55 2.215 8.353 4.656c-.207 2.572-2.002 4.535-4.562 4.33C2.116 8.85.947 7.817.921 5.9l1.447.116z" mask="url(#d)"></path>
    </g>
    <path fill="#000" d="M28.105 77.101l1.293-3.758-.874-.3c-1.26-.434-2.281.281-2.609 1.235-.316.92.01 2.073 1.373 2.542l.817.281zm2.256.75l-.082.24-3.735-1.286c-1.749-.6-2.279-1.864-1.936-2.863.305-.885 1.337-1.559 2.785-1.34L26.3 69.027c-.148-.457-.337-.942-.714-1.173l.082-.238 1.521.523c.141.366.214.633.31.944l1.058 3.716.919.317.906-2.634c.176-.51-.002-.915-.49-1.12l-.367-.153.082-.238 3.406 1.172-.082.238-.382-.106c-.5-.134-.889.037-1.053.514l-2.016 5.858c-.164.476.038.85.525 1.057l.356.147zM22.14 70.91c1.394-2.111 1.502-4.626.051-5.584-1.2-.793-2.818-.107-4.014 1.705-1.4 2.122-1.509 4.637-.058 5.595 1.191.786 2.818.107 4.021-1.715m-5.352-4.193c1.401-2.122 3.853-2.703 5.785-1.427 1.942 1.28 2.383 3.814.97 5.956-1.402 2.122-3.864 2.696-5.796 1.42-1.942-1.281-2.373-3.807-.959-5.95M12.824 68.435l-.187.17-2.46-2.728.186-.169.332.331c.372.36.795.398 1.17.061l4.553-4.109c.41-.37.445-.887.043-1.332l-.57-.633c-.942-1.043-2.188-.953-3.606-.143l-.185-.205 2.304-1.658 4.47 4.955-.187.17-.283-.279c-.372-.36-.795-.398-1.17-.06l-4.598 4.15c-.374.336-.379.761-.052 1.178l.24.301zM6.902 61.521l-.22.121-1.77-3.217.22-.12.247.398c.28.434.683.568 1.125.326l5.372-2.955c.484-.267.636-.76.347-1.287l-.41-.746c-.678-1.23-1.91-1.429-3.476-.964l-.133-.243 2.621-1.085 3.216 5.845-.22.121-.213-.335c-.28-.434-.683-.569-1.124-.326L7.06 60.038c-.442.243-.544.655-.32 1.134l.163.35zM5.69 46.401l.848 3.349-.86.217-.848-3.348zM.315 39.902l7.004.258c.552.02.937-.325.958-.89l.01-.275c.07-1.895-1.68-3.27-3.9-3.351-2.279-.084-3.96 1.21-4.032 3.19l-.04 1.068zm-.063 2.375L0 42.267l.136-3.705c.097-2.64 1.76-4.38 4.062-4.294 2.291.085 4.433 1.917 4.322 4.915l-.125 3.395-.252-.01-.009-.396c-.017-.517-.294-.84-.798-.858l-6.188-.228c-.504-.02-.803.282-.858.808l-.038.383zM4.686 31.242c2.412.775 4.867.203 5.4-1.454.44-1.371-.655-2.746-2.724-3.411-2.423-.781-4.878-.208-5.41 1.449-.438 1.36.655 2.746 2.734 3.416m2.604-6.29c2.423.78 3.641 2.989 2.933 5.195-.715 2.217-3.038 3.324-5.484 2.536-2.422-.78-3.638-3-2.927-5.205.713-2.216 3.032-3.311 5.478-2.525M9.697 13.623l1.62-2.22.214.157c-.355.587-.303 1.085.118 1.69l4.243 6.133-.177.242-5.834-1.677 3.39 5.02-.19.26-7.552-2.172c-.467-.134-.838-.034-1.22.386l-.213-.155L6 18.68l.204.148c-.35.518-.455.887-.135 1.12a.998.998 0 00.323.148l5.868 1.835-2.947-4.145-1.158-.326c-.46-.144-.86-.004-1.212.377l-.214-.155 1.905-2.607.204.149c-.335.499-.446.893-.116 1.134.078.057.169.094.287.136l5.81 1.792-3.327-4.601a1.811 1.811 0 00-.382-.413c-.388-.283-.745-.098-1.21.498l-.204-.148zM18.34 6.63l-.143-.207 2.652-1.843.143.207-.34.268c-.414.33-.476.915-.14 1.397l4.029 5.796-.306.213-8.533-2.665 3.26 4.692c.33.473.932.623 1.35.364l.516-.33.144.207-2.642 1.835-.143-.206.36-.28c.4-.307.449-.912.12-1.384l-3.42-4.92-.277-.083c-.512-.17-.886-.058-1.44.284l-.143-.207 1.912-1.33 7.908 2.544-3.001-4.317c-.328-.474-.921-.633-1.34-.37l-.525.335zM30.648 6.233l-3.293 1.055-.271-.846 3.293-1.055z"></path>
  </g>
</svg>