<svg xmlns:xlink="http://www.w3.org/1999/xlink" xmlns="http://www.w3.org/2000/svg" class="icon" width="70"  height="20" ><defs><symbol id="logo" viewBox="0 0 66 12"><path fill="inherit" d="M2.5 12l.9-2.6H8L9 12h2.4L7.1.7H4.5L.2 12h2.3zm4.8-4.6H4.2l1.6-4.3 1.5 4.3zm7.8 4.6V4l5.2 8h2.3V.7h-2.2v7.5L15.7.7h-2.8V12h2.2zm14.8 0V2.8h3.6V.7h-9.4v2.1h3.6V12h2.2zm5.3 0l.9-2.6h4.6l.9 2.6H44L39.8.7h-2.6L32.8 12h2.4zM40 7.4h-3.1l1.6-4.3L40 7.4zm7.8 4.6V7.6H49l2.2 4.4h2.5l-2.4-4.6c1.5-.4 2.4-1.6 2.4-3.2 0-2-1.4-3.5-3.6-3.5h-4.4V12h2.1zm1.8-6.3h-1.8V2.6h1.8c1.1 0 1.8.6 1.8 1.6-.1.9-.7 1.5-1.8 1.5zm7.1 6.3l.9-2.6h4.6l.9 2.6h2.4L61.3.7h-2.6L54.4 12h2.3zm4.8-4.6h-3.1L60 3.1l1.5 4.3z"></path></symbol></defs>
        <use xlink:href="#logo" fill="#0D0D0D"></use>
      </svg>